<svg width="240" height="240" viewBox="0 0 240 240" fill="none" xmlns="http://www.w3.org/2000/svg">
<g clip-path="url(#clip0)">
<path d="M121.294 239.641C151.825 239.641 176.575 236.429 176.575 232.467C176.575 228.505 151.825 225.293 121.294 225.293C90.7637 225.293 66.0137 228.505 66.0137 232.467C66.0137 236.429 90.7637 239.641 121.294 239.641Z" fill="#E6E6E6"/>
<path d="M124.344 207.489C124.344 207.489 127.314 217.72 129.295 220.361C131.275 223.001 132.925 227.292 131.935 227.952C130.945 228.612 128.964 236.533 131.605 236.863C134.245 237.193 140.186 228.282 140.516 225.312C140.846 222.341 142.167 211.78 142.167 211.78C142.167 211.78 144.477 202.538 140.846 201.878C137.216 201.218 131.605 200.888 131.605 200.888L124.344 207.489Z" fill="#2F2E41"/>
<path d="M110.484 218.381C110.484 218.381 106.193 229.602 105.203 230.262C104.213 230.923 100.582 236.863 107.843 236.863C115.104 236.863 119.065 234.883 119.065 234.883L121.375 232.243C121.375 232.243 121.375 225.312 120.715 224.321C120.055 223.331 120.715 218.381 120.715 218.381H110.484Z" fill="#2F2E41"/>
<path d="M81.1083 115.735C81.1083 115.735 75.8275 151.38 80.4482 162.932C85.0689 174.484 89.6896 177.784 89.6896 177.784L124.675 210.459C124.675 210.459 135.567 204.848 134.577 201.218C134.577 201.218 132.266 199.898 131.936 198.907C131.606 197.917 127.315 197.587 127.315 197.587C127.315 197.587 125.335 195.277 125.335 193.957C125.335 192.637 108.173 169.203 102.562 167.553C102.562 167.553 99.5912 163.922 99.9212 163.262C100.251 162.602 98.9311 160.291 98.9311 160.291L102.232 147.419L123.025 144.119C123.025 144.119 131.606 113.754 124.345 111.444C117.084 109.134 81.1083 115.735 81.1083 115.735Z" fill="#2F2E41"/>
<path d="M122.365 138.838L123.025 144.119C123.025 144.119 123.025 157.981 122.365 159.301C121.705 160.622 121.375 162.602 122.365 163.922C123.355 165.242 125.006 168.543 124.345 169.863C123.685 171.183 125.666 208.479 123.025 211.119C120.385 213.76 121.375 217.06 121.705 217.39C122.035 217.72 121.375 219.041 121.375 219.041C121.375 219.041 107.843 221.351 108.833 219.041C109.823 216.73 109.823 215.41 110.483 214.75C111.143 214.09 110.483 213.1 110.483 213.1C110.483 213.1 111.474 202.538 110.483 201.878C109.493 201.218 106.523 169.533 106.523 169.203C106.523 168.873 105.533 168.213 105.533 166.893C105.533 165.572 105.533 161.282 103.882 160.622C102.232 159.961 102.562 143.789 102.562 143.789L122.365 138.838Z" fill="#2F2E41"/>
<path d="M98.9303 21.0099C98.9303 21.0099 100.251 30.9114 104.211 32.8917C108.172 34.872 110.812 35.8622 110.812 35.8622L107.512 47.414L106.191 57.3155H91.0091L82.7578 50.7145L85.3982 39.8228L86.7184 37.8425C86.7184 37.8425 88.3687 30.5814 87.0484 28.271C85.7282 25.9607 98.9303 21.0099 98.9303 21.0099Z" fill="#D697A0"/>
<path d="M92.3284 45.1036L94.6388 49.3943C94.6388 49.3943 96.289 43.4534 98.5994 42.4632C100.91 41.4731 106.521 39.8228 106.521 38.5026C106.521 37.1824 106.191 33.8819 107.511 33.8819C108.831 33.8819 121.703 37.8425 123.683 39.1627C125.664 40.4829 125.994 41.8031 125.994 41.8031L122.363 79.759C122.363 79.759 127.644 97.5818 125.994 104.513C124.343 111.444 123.023 112.434 119.063 113.424C115.102 114.414 117.412 111.114 105.861 114.414C94.3087 117.715 87.0476 116.725 84.4072 116.725C81.7668 116.725 80.1165 118.045 79.4564 118.375C78.7963 118.705 79.1264 116.725 81.4367 113.754C83.7471 110.784 82.7569 105.833 82.7569 105.833C82.7569 105.833 80.1165 97.2517 81.7668 93.9512C83.417 90.6507 85.7274 86.36 83.7471 85.0398C81.7668 83.7197 79.1263 73.8181 79.1263 73.8181L71.8652 48.0741L86.7175 37.8425C86.7175 37.8425 86.0574 42.4632 88.3678 43.4534C90.6781 44.4435 92.3284 45.1036 92.3284 45.1036Z" fill="#575A89"/>
<path d="M73.8472 47.744H71.8669C71.8669 47.744 68.5664 53.3549 68.5664 57.3155C68.5664 61.2761 70.2167 83.7196 70.2167 83.7196L79.7881 93.6211L82.0985 86.0299L82.7586 69.1973L73.8472 47.744Z" fill="#575A89"/>
<path d="M79.1276 82.7294C79.1276 82.7294 68.2359 79.759 68.5659 84.3797C68.896 89.0004 70.5462 94.6113 75.8271 95.9315C81.1079 97.2517 82.7582 89.9906 82.7582 89.9906C82.7582 89.9906 83.4183 83.3895 79.1276 82.7294Z" fill="#575A89"/>
<path d="M120.054 97.9118C120.054 97.9118 119.394 113.094 115.434 114.744L125.005 117.055C125.005 117.055 129.626 101.212 128.966 100.552C128.306 99.8921 120.054 97.9118 120.054 97.9118Z" fill="#D697A0"/>
<path d="M63.4427 67.0079L69.1109 64.5318C69.3226 64.4393 69.5624 64.4347 69.7774 64.519C69.9925 64.6033 70.1653 64.7696 70.2578 64.9813L76.5592 79.4061C76.6722 79.6647 76.6778 79.9576 76.5748 80.2203C76.4719 80.483 76.2688 80.694 76.0102 80.807L70.6955 83.1287C70.437 83.2416 70.1441 83.2472 69.8814 83.1443C69.6187 83.0413 69.4076 82.8382 69.2947 82.5796L62.9932 68.1548C62.9474 68.05 62.9227 67.9372 62.9205 67.8228C62.9183 67.7085 62.9387 67.5948 62.9804 67.4883C63.0222 67.3818 63.0845 67.2845 63.1638 67.2021C63.2431 67.1197 63.3379 67.0537 63.4427 67.0079Z" fill="#2F2E41"/>
<path opacity="0.1" d="M63.4427 67.0079L69.1109 64.5318C69.3226 64.4393 69.5624 64.4347 69.7774 64.519C69.9925 64.6033 70.1653 64.7696 70.2578 64.9813L76.5592 79.4061C76.6722 79.6647 76.6778 79.9576 76.5748 80.2203C76.4719 80.483 76.2688 80.694 76.0102 80.807L70.6955 83.1287C70.437 83.2416 70.1441 83.2472 69.8814 83.1443C69.6187 83.0413 69.4076 82.8382 69.2947 82.5796L62.9932 68.1548C62.9474 68.05 62.9227 67.9372 62.9205 67.8228C62.9183 67.7085 62.9387 67.5948 62.9804 67.4883C63.0222 67.3818 63.0845 67.2845 63.1638 67.2021C63.2431 67.1197 63.3379 67.0537 63.4427 67.0079Z" fill="black"/>
<path d="M63.765 67.7443L68.7067 65.5855C68.9184 65.493 69.1582 65.4884 69.3733 65.5727C69.5883 65.657 69.7611 65.8233 69.8536 66.035L75.8334 79.7235C75.9464 79.9821 75.952 80.275 75.849 80.5377C75.746 80.8004 75.5429 81.0114 75.2843 81.1244L70.6962 83.1287C70.4376 83.2417 70.1447 83.2473 69.882 83.1443C69.6193 83.0414 69.4082 82.8383 69.2953 82.5797L63.3155 68.8912C63.223 68.6795 63.2184 68.4397 63.3027 68.2246C63.387 68.0095 63.5533 67.8367 63.765 67.7443Z" fill="#2F2E41"/>
<path d="M68.3098 73.5832C69.1122 73.2327 69.4747 72.2892 69.1194 71.476C68.7641 70.6627 67.8257 70.2876 67.0232 70.6381C66.2208 70.9887 65.8583 71.9321 66.2136 72.7454C66.5689 73.5586 67.5074 73.9337 68.3098 73.5832Z" fill="#F2F2F2"/>
<path opacity="0.1" d="M122.528 46.2588L124.673 43.1234C124.673 43.1234 132.594 55.3353 131.934 63.5865C131.274 71.8378 130.614 72.1679 130.614 73.4881C130.614 74.8083 128.964 74.8083 130.614 76.4585C132.264 78.1088 134.574 80.4191 133.254 81.7394C131.934 83.0596 130.944 83.0596 131.274 84.7098C131.485 85.9087 131.595 87.1231 131.604 88.3404C131.604 88.3404 128.799 93.7862 127.808 93.7862C126.818 93.7862 117.412 102.533 117.412 101.542C117.412 100.552 118.402 93.6212 118.402 92.631C118.402 91.6409 118.732 88.3404 119.392 87.3502C120.052 86.3601 120.052 86.6901 119.392 85.7C118.732 84.7098 118.732 85.7 118.732 84.7098C118.732 83.7197 119.062 82.3994 118.072 82.0694C117.082 81.7394 116.092 82.0694 116.752 80.4192C117.412 78.7689 116.752 77.4487 116.422 77.4487C116.092 77.4487 114.441 77.1186 115.431 76.1285C116.422 75.1384 113.451 55.9954 113.451 55.9954C113.451 55.9954 113.946 51.2096 122.528 46.2588Z" fill="black"/>
<path d="M120.715 39.1626L126.326 41.803C126.326 41.803 134.247 54.0149 133.587 62.2662C132.927 70.5175 132.267 70.8475 132.267 72.1677C132.267 73.4879 130.617 73.4879 132.267 75.1382C133.917 76.7885 136.228 79.0988 134.908 80.419C133.587 81.7392 132.597 81.7392 132.927 83.3895C133.138 84.5883 133.249 85.8028 133.257 87.02C133.257 87.02 130.287 102.862 129.297 102.862C128.307 102.862 119.065 101.212 119.065 100.222C119.065 99.2319 120.055 92.3008 120.055 91.3107C120.055 90.3205 120.385 87.02 121.045 86.0299C121.706 85.0397 121.706 85.3698 121.045 84.3796C120.385 83.3895 120.385 84.3796 120.385 83.3895C120.385 82.3993 120.715 81.0791 119.725 80.7491C118.735 80.419 117.745 80.7491 118.405 79.0988C119.065 77.4485 118.405 76.1283 118.075 76.1283C117.745 76.1283 116.095 75.7983 117.085 74.8081C118.075 73.818 115.105 54.675 115.105 54.675C115.105 54.675 112.134 44.1134 120.715 39.1626Z" fill="#575A89"/>
<path d="M70.631 85.0866C70.3237 85.168 69.9977 85.141 69.7079 85.0103C69.4181 84.8795 69.1822 84.6529 69.0398 84.3686C67.5231 81.336 63.4137 72.4414 67.2446 72.1678C70.7788 71.9153 73.9268 78.8068 75.2118 82.0618C75.2936 82.2685 75.3306 82.4903 75.3204 82.7124C75.3102 82.9345 75.2529 83.1519 75.1525 83.3503C75.0521 83.5487 74.9107 83.7235 74.7377 83.8632C74.5648 84.0029 74.3642 84.1044 74.1491 84.1608L70.631 85.0866Z" fill="#D697A0"/>
<path d="M89.6885 30.2513C96.4329 30.2513 101.9 24.7839 101.9 18.0394C101.9 11.295 96.4329 5.82751 89.6885 5.82751C82.944 5.82751 77.4766 11.295 77.4766 18.0394C77.4766 24.7839 82.944 30.2513 89.6885 30.2513Z" fill="#D697A0"/>
<path d="M85.203 11.0063C83.6792 11.5321 82.1064 11.9034 80.5084 12.1146C79.3056 12.3022 77.8982 12.3983 77.0529 11.5224C76.2233 10.6628 76.3575 9.22894 76.9234 8.17684C77.4892 7.12475 78.3956 6.29991 79.0756 5.31772C80.145 3.77298 80.7762 1.72507 82.4862 0.946877C83.1949 0.675586 83.947 0.53512 84.7058 0.532294C89.1433 0.249381 93.7621 -0.0055097 97.8716 1.69255C99.4156 2.28083 100.784 3.25418 101.846 4.52008C102.541 5.45219 103.078 6.4929 103.434 7.60009C104.532 10.858 104.776 14.3432 104.143 17.7225C103.51 21.1017 102.021 24.2621 99.8177 26.9015C98.32 25.5521 98.9714 22.4342 97.0764 21.7466C96.4547 21.5211 95.7518 21.678 95.115 21.4995C93.1136 20.9383 93.2142 17.8453 91.548 16.6026C91.1841 16.4067 90.8619 16.1419 90.5993 15.8229C90.4528 15.5169 90.3891 15.1779 90.4147 14.8396C90.4025 13.6809 90.9468 10.7376 89.8415 9.94342C88.7164 9.135 86.2841 10.6159 85.203 11.0063Z" fill="#2F2E41"/>
<path d="M78.5551 211.016C78.5551 211.016 77.6574 191.707 59.2539 193.952L78.5551 211.016Z" fill="#E6E6E6"/>
<path d="M156.152 165.799C156.152 165.799 157.05 146.49 175.454 148.735L156.152 165.799Z" fill="#E6E6E6"/>
<path d="M155.773 227.398C155.75 227.194 153.564 206.947 162.415 196.231C165.682 192.276 170.059 190.061 175.425 189.649L175.484 190.412C170.334 190.808 166.135 192.93 163.006 196.717C154.362 207.18 156.511 227.111 156.533 227.311L155.773 227.398Z" fill="#E6E6E6"/>
<path d="M78.6386 188.545H77.873V230.65H78.6386V188.545Z" fill="#E6E6E6"/>
<path d="M155.957 146.057H155.191V230.65H155.957V146.057Z" fill="#E6E6E6"/>
<path d="M78.5556 189.912C82.0262 189.912 84.8397 187.098 84.8397 183.628C84.8397 180.157 82.0262 177.344 78.5556 177.344C75.085 177.344 72.2715 180.157 72.2715 183.628C72.2715 187.098 75.085 189.912 78.5556 189.912Z" fill="#6C63FF"/>
<path d="M156.153 146.49C159.624 146.49 162.437 143.677 162.437 140.206C162.437 136.736 159.624 133.922 156.153 133.922C152.683 133.922 149.869 136.736 149.869 140.206C149.869 143.677 152.683 146.49 156.153 146.49Z" fill="#6C63FF"/>
<path d="M175.454 196.314C178.925 196.314 181.738 193.501 181.738 190.03C181.738 186.56 178.925 183.746 175.454 183.746C171.983 183.746 169.17 186.56 169.17 190.03C169.17 193.501 171.983 196.314 175.454 196.314Z" fill="#E6E6E6"/>
</g>
<defs>
<clipPath id="clip0">
<rect width="122.871" height="240" fill="white" transform="translate(59)"/>
</clipPath>
</defs>
</svg>
