<svg width="16" height="14" viewBox="0 0 16 14" fill="none" xmlns="http://www.w3.org/2000/svg">
<path d="M15.0383 5.87695C14.9728 5.86632 14.9066 5.86142 14.8403 5.86228H3.55262L3.79875 5.7478C4.03933 5.63393 4.2582 5.47895 4.44556 5.28988L7.6109 2.12453C8.02779 1.72658 8.09783 1.08639 7.7769 0.607685C7.40338 0.0975729 6.68706 -0.0131856 6.17691 0.360339C6.1357 0.390532 6.09652 0.423445 6.05971 0.458862L0.335755 6.18282C-0.111572 6.62965 -0.111966 7.35448 0.334861 7.80181C0.335147 7.80209 0.335469 7.80242 0.335755 7.8027L6.05971 13.5267C6.5074 13.9731 7.23223 13.9721 7.6787 13.5244C7.71383 13.4892 7.74663 13.4517 7.7769 13.4122C8.09783 12.9335 8.02779 12.2933 7.6109 11.8953L4.45128 8.72426C4.28332 8.55612 4.09021 8.41513 3.87888 8.30641L3.53545 8.15186H14.7773C15.3621 8.17358 15.8752 7.76507 15.9851 7.19024C16.0863 6.56615 15.6624 5.97819 15.0383 5.87695Z" fill="#62526D" fill-opacity="0.8"/>
</svg>
