<svg width="64" height="64" viewBox="0 0 64 64" fill="none" xmlns="http://www.w3.org/2000/svg">
<path d="M25.6373 61.168C25.0586 61.168 24.5266 61.0607 24.0413 60.846C23.5559 60.6313 23.1313 60.3233 22.7673 59.922C22.4126 59.5113 22.1326 59.012 21.9273 58.424C21.7313 57.8267 21.6333 57.1547 21.6333 56.408C21.6333 55.6707 21.7359 55.008 21.9413 54.42C22.1466 53.832 22.4313 53.3327 22.7953 52.922C23.1593 52.5113 23.5886 52.1987 24.0833 51.984C24.5779 51.76 25.1193 51.648 25.7073 51.648C26.2673 51.648 26.7573 51.7647 27.1773 51.998C27.6066 52.222 27.9566 52.4833 28.2273 52.782L27.5973 53.538C27.3546 53.2767 27.0793 53.0667 26.7713 52.908C26.4633 52.7493 26.1133 52.67 25.7213 52.67C25.2826 52.67 24.8859 52.7587 24.5313 52.936C24.1766 53.104 23.8733 53.3513 23.6213 53.678C23.3693 53.9953 23.1733 54.3827 23.0333 54.84C22.9026 55.2973 22.8373 55.8107 22.8373 56.38C22.8373 56.9587 22.9026 57.4813 23.0333 57.948C23.1733 58.4053 23.3646 58.7973 23.6073 59.124C23.8499 59.4507 24.1439 59.7027 24.4893 59.88C24.8439 60.0573 25.2406 60.146 25.6793 60.146C26.1273 60.146 26.5193 60.0573 26.8553 59.88C27.1913 59.6933 27.5086 59.4367 27.8073 59.11L28.4513 59.838C28.0873 60.258 27.6766 60.5847 27.2193 60.818C26.7619 61.0513 26.2346 61.168 25.6373 61.168ZM31.6193 61.168C31.05 61.168 30.574 61 30.1913 60.664C29.818 60.328 29.6313 59.852 29.6313 59.236C29.6313 58.4893 29.9627 57.92 30.6253 57.528C31.288 57.1267 32.3473 56.8467 33.8033 56.688C33.8033 56.4733 33.78 56.2633 33.7333 56.058C33.696 55.8527 33.626 55.6707 33.5233 55.512C33.4207 55.3533 33.276 55.2273 33.0893 55.134C32.912 55.0313 32.6833 54.98 32.4033 54.98C32.0113 54.98 31.6427 55.0547 31.2973 55.204C30.952 55.3533 30.644 55.5213 30.3733 55.708L29.9253 54.91C30.2427 54.7047 30.63 54.5087 31.0873 54.322C31.5447 54.126 32.0487 54.028 32.5993 54.028C33.43 54.028 34.032 54.2847 34.4053 54.798C34.7787 55.302 34.9653 55.9787 34.9653 56.828V61H34.0133L33.9153 60.188H33.8733C33.5467 60.4587 33.1967 60.692 32.8233 60.888C32.45 61.0747 32.0487 61.168 31.6193 61.168ZM31.9553 60.244C32.282 60.244 32.59 60.1693 32.8793 60.02C33.1687 59.8613 33.4767 59.6327 33.8033 59.334V57.444C33.234 57.5187 32.7533 57.6073 32.3613 57.71C31.9787 57.8127 31.666 57.934 31.4233 58.074C31.19 58.214 31.0173 58.3773 30.9053 58.564C30.8027 58.7413 30.7513 58.9373 30.7513 59.152C30.7513 59.544 30.868 59.824 31.1013 59.992C31.3347 60.16 31.6193 60.244 31.9553 60.244ZM38.324 61.168C37.8853 61.168 37.5727 61.0373 37.386 60.776C37.1993 60.5147 37.106 60.132 37.106 59.628V51.032H38.254V59.712C38.254 59.8987 38.2867 60.0293 38.352 60.104C38.4173 60.1787 38.492 60.216 38.576 60.216C38.6133 60.216 38.646 60.216 38.674 60.216C38.7113 60.216 38.7627 60.2067 38.828 60.188L38.982 61.056C38.9073 61.0933 38.8187 61.1213 38.716 61.14C38.6133 61.1587 38.4827 61.168 38.324 61.168ZM41.8924 61.168C41.4537 61.168 41.141 61.0373 40.9544 60.776C40.7677 60.5147 40.6744 60.132 40.6744 59.628V51.032H41.8224V59.712C41.8224 59.8987 41.855 60.0293 41.9204 60.104C41.9857 60.1787 42.0604 60.216 42.1444 60.216C42.1817 60.216 42.2144 60.216 42.2424 60.216C42.2797 60.216 42.331 60.2067 42.3964 60.188L42.5504 61.056C42.4757 61.0933 42.387 61.1213 42.2844 61.14C42.1817 61.1587 42.051 61.168 41.8924 61.168Z" fill="#62526D" fill-opacity="0.8"/>
<path d="M37.8442 27.3743L40.8593 24.3592C41.2654 23.9582 41.7792 23.6836 42.3383 23.5689C42.8974 23.4542 43.4778 23.5043 44.0089 23.7131L47.6835 25.1803C48.2203 25.3982 48.6806 25.7701 49.0064 26.2491C49.3321 26.7282 49.5088 27.293 49.5141 27.8723V34.6023C49.511 34.9964 49.4281 35.3858 49.2706 35.747C49.113 36.1082 48.884 36.4338 48.5972 36.7042C48.3105 36.9746 47.972 37.1841 47.6022 37.3202C47.2324 37.4564 46.8388 37.5162 46.4452 37.4962C20.6961 35.8945 15.5005 14.0892 14.5179 5.74393C14.4723 5.33412 14.514 4.9193 14.6402 4.52675C14.7664 4.1342 14.9743 3.77283 15.2502 3.4664C15.5262 3.15997 15.8638 2.91544 16.241 2.74888C16.6182 2.58233 17.0264 2.49752 17.4388 2.50006H23.94C24.5201 2.50177 25.0865 2.67701 25.5662 3.00323C26.046 3.32945 26.4171 3.79174 26.632 4.33062L28.0991 8.00522C28.3148 8.5343 28.3699 9.1152 28.2574 9.67537C28.1448 10.2355 27.8698 10.7501 27.4665 11.1549L24.4515 14.1699C24.4515 14.1699 26.1878 25.9206 37.8442 27.3743Z" fill="#732CA4"/>
</svg>
