<svg width="24" height="24" viewBox="0 0 24 24" fill="none" xmlns="http://www.w3.org/2000/svg">
<path d="M14.9555 15.6163L16.4847 14.087C16.6907 13.8836 16.9513 13.7444 17.2349 13.6862C17.5184 13.628 17.8128 13.6534 18.0822 13.7593L19.946 14.5035C20.2182 14.614 20.4517 14.8026 20.6169 15.0456C20.7822 15.2886 20.8718 15.575 20.8745 15.8689V19.2824C20.8729 19.4822 20.8309 19.6797 20.7509 19.8629C20.671 20.0462 20.5548 20.2113 20.4094 20.3484C20.264 20.4856 20.0923 20.5919 19.9047 20.6609C19.7171 20.7299 19.5175 20.7603 19.3179 20.7502C6.25791 19.9377 3.6227 8.87805 3.12433 4.64533C3.10119 4.43747 3.12233 4.22707 3.18635 4.02797C3.25037 3.82887 3.35582 3.64558 3.49576 3.49016C3.6357 3.33474 3.80697 3.21071 3.99829 3.12623C4.18961 3.04176 4.39664 2.99874 4.60578 3.00003H7.90321C8.19746 3.0009 8.48471 3.08978 8.72804 3.25524C8.97136 3.4207 9.15962 3.65517 9.2686 3.9285L10.0127 5.79226C10.1221 6.06061 10.1501 6.35524 10.093 6.63936C10.0359 6.92348 9.89641 7.18448 9.69187 7.38977L8.16263 8.91901C8.16263 8.91901 9.04331 14.879 14.9555 15.6163Z" fill="#62526D" fill-opacity="0.8"/>
</svg>
