<svg width="32" height="32" viewBox="0 0 32 32" fill="none" xmlns="http://www.w3.org/2000/svg">
<path d="M3.33331 5.33325H28.6666C30.5076 5.33325 31.9999 6.82563 31.9999 8.66656V23.3333C31.9999 25.1742 30.5076 26.6666 28.6666 26.6666H3.33331C1.49238 26.6666 0 25.1743 0 23.3333V8.66663C0 6.82563 1.49238 5.33325 3.33331 5.33325Z" fill="#54455E" fill-opacity="0.7"/>
<path d="M32 9.33325H0V14.6666H32V9.33325Z" fill="#54455E"/>
<path d="M10 19.9999H4.66669C4.2985 19.9999 4 19.7014 4 19.3332C4 18.965 4.2985 18.6665 4.66669 18.6665H10C10.3682 18.6665 10.6667 18.965 10.6667 19.3332C10.6667 19.7014 10.3682 19.9999 10 19.9999Z" fill="#FAFAFA"/>
<path d="M14 22.6666H4.66669C4.2985 22.6666 4 22.3681 4 21.9999C4 21.6318 4.2985 21.3333 4.66669 21.3333H14C14.3682 21.3333 14.6667 21.6318 14.6667 21.9999C14.6667 22.3681 14.3682 22.6666 14 22.6666Z" fill="#FAFAFA"/>
</svg>
