<svg width="24" height="24" viewBox="0 0 24 24" fill="none" xmlns="http://www.w3.org/2000/svg">
<path d="M11.4923 21.9844C6.2586 21.9844 2 17.7259 2 12.4923C2 7.2586 6.2586 3 11.4923 3C13.3122 3 15.0828 3.51858 16.6128 4.50059C16.9132 4.69399 17.0012 5.09438 16.8078 5.39554C16.6137 5.6967 16.2141 5.78376 15.913 5.59052C14.5927 4.74218 13.0636 4.29439 11.4923 4.29439C6.97216 4.29439 3.29439 7.97216 3.29439 12.4923C3.29439 17.0122 6.97216 20.69 11.4923 20.69C16.0122 20.69 19.69 17.0122 19.69 12.4923C19.69 12.2221 19.677 11.9546 19.652 11.6915C19.6176 11.335 19.8782 11.0192 20.2337 10.9847C20.5909 10.9519 20.9058 11.2108 20.9404 11.5663C20.9697 11.871 20.9844 12.1799 20.9844 12.4923C20.9844 17.7259 16.7259 21.9844 11.4923 21.9844Z" fill="#DD0AA3"/>
<path d="M12.5691 14.6496C12.4035 14.6496 12.2378 14.5866 12.1119 14.4598L8.22867 10.5767C7.97586 10.3237 7.97586 9.91384 8.22867 9.66102C8.48148 9.40821 8.89135 9.40821 9.14416 9.66102L12.5701 13.0869L21.604 4.05289C21.8569 3.80008 22.2668 3.80008 22.5196 4.05289C22.7724 4.3057 22.7724 4.71557 22.5196 4.96838L13.0273 14.4606C12.9005 14.5866 12.7349 14.6496 12.5691 14.6496Z" fill="#DD0AA3"/>
</svg>
