<svg width="22" height="20" viewBox="0 0 22 20" fill="none" xmlns="http://www.w3.org/2000/svg">
<path d="M20.8649 8.62169L11.7046 0.274809C11.3025 -0.0916163 10.6962 -0.0915764 10.2943 0.274769L1.13388 8.62173C0.811793 8.91522 0.705402 9.36742 0.862755 9.77372C1.02015 10.18 1.40336 10.4425 1.83909 10.4425H3.30216V18.8055C3.30216 19.137 3.57101 19.4059 3.90258 19.4059H8.9236C9.25517 19.4059 9.52402 19.1371 9.52402 18.8055V13.7278H12.475V18.8055C12.475 19.1371 12.7438 19.4059 13.0754 19.4059H18.0962C18.4277 19.4059 18.6966 19.1371 18.6966 18.8055V10.4425H20.1599C20.5956 10.4425 20.9789 10.18 21.1363 9.77372C21.2934 9.36738 21.187 8.91522 20.8649 8.62169Z" fill="#62526D" fill-opacity="0.5"/>
</svg>
