<svg width="16" height="16" viewBox="0 0 16 16" fill="none" xmlns="http://www.w3.org/2000/svg">
<path d="M8.002 0H7.998C3.587 0 0 3.588 0 8C0 9.75 0.564 11.372 1.523 12.689L0.526 15.661L3.601 14.678C4.866 15.516 6.375 16 8.002 16C12.413 16 16 12.411 16 8C16 3.589 12.413 0 8.002 0Z" fill="#25D366"/>
<path d="M12.6585 11.2969C12.4655 11.8419 11.6995 12.2939 11.0885 12.4259C10.6705 12.5149 10.1245 12.5859 8.28651 11.8239C5.93551 10.8499 4.42152 8.46094 4.30352 8.30594C4.19052 8.15094 3.35352 7.04094 3.35352 5.89294C3.35352 4.74494 3.93652 4.18594 4.17152 3.94594C4.36452 3.74894 4.68352 3.65894 4.98952 3.65894C5.08852 3.65894 5.17752 3.66394 5.25752 3.66794C5.49252 3.67794 5.61051 3.69194 5.76551 4.06294C5.95851 4.52794 6.42851 5.67594 6.48451 5.79394C6.54151 5.91194 6.59851 6.07194 6.51851 6.22694C6.44351 6.38694 6.37751 6.45794 6.25951 6.59394C6.14151 6.72994 6.02951 6.83394 5.91151 6.97994C5.80351 7.10694 5.68151 7.24294 5.81751 7.47794C5.95351 7.70794 6.42351 8.47494 7.11551 9.09094C8.00851 9.88594 8.73251 10.1399 8.99151 10.2479C9.18451 10.3279 9.41451 10.3089 9.55551 10.1589C9.73451 9.96594 9.95551 9.64594 10.1805 9.33094C10.3405 9.10494 10.5425 9.07694 10.7545 9.15694C10.9705 9.23194 12.1135 9.79694 12.3485 9.91394C12.5835 10.0319 12.7385 10.0879 12.7955 10.1869C12.8515 10.2859 12.8515 10.7509 12.6585 11.2969Z" fill="#FAFAFA"/>
</svg>
