<svg width="23" height="32" viewBox="0 0 23 32" fill="none" xmlns="http://www.w3.org/2000/svg">
<path d="M20.4757 5.47984C18.5337 2.12834 15.0842 0.0807813 11.2482 0.00253125C11.0845 -0.00084375 10.9197 -0.00084375 10.7558 0.00253125C6.91996 0.0807813 3.47046 2.12834 1.52834 5.47984C-0.456787 8.90559 -0.511099 13.0206 1.38303 16.4875L9.31821 31.0117C9.32178 31.0182 9.32534 31.0246 9.32903 31.031C9.67815 31.6378 10.3036 32 11.0022 32C11.7007 32 12.3261 31.6377 12.6751 31.031C12.6788 31.0246 12.6824 31.0182 12.686 31.0117L20.6212 16.4875C22.5152 13.0206 22.4608 8.90559 20.4757 5.47984ZM11.002 14.5C8.52071 14.5 6.50203 12.4813 6.50203 10C6.50203 7.51872 8.52071 5.50003 11.002 5.50003C13.4833 5.50003 15.502 7.51872 15.502 10C15.502 12.4813 13.4834 14.5 11.002 14.5Z" fill="url(#paint0_linear)"/>
<defs>
<linearGradient id="paint0_linear" x1="22.0041" y1="-2.35319e-05" x2="-0.598662" y2="0.314915" gradientUnits="userSpaceOnUse">
<stop stop-color="#732CA4"/>
<stop offset="1" stop-color="#8C62A9"/>
</linearGradient>
</defs>
</svg>
