<svg width="12" height="16" viewBox="0 0 12 16" fill="none" xmlns="http://www.w3.org/2000/svg">
<path d="M10.7379 2.73992C9.76683 1.06417 8.04208 0.0403906 6.12411 0.00126563C6.04223 -0.000421875 5.95983 -0.000421875 5.87792 0.00126563C3.95998 0.0403906 2.23523 1.06417 1.26417 2.73992C0.271607 4.4528 0.24445 6.5103 1.19151 8.24376L5.15911 15.5059C5.16089 15.5091 5.16267 15.5123 5.16451 15.5155C5.33908 15.8189 5.65179 16 6.00108 16C6.35033 16 6.66304 15.8189 6.83757 15.5155C6.83942 15.5123 6.8412 15.5091 6.84298 15.5059L10.8106 8.24376C11.7576 6.5103 11.7304 4.4528 10.7379 2.73992ZM6.00101 7.25002C4.76036 7.25002 3.75101 6.24067 3.75101 5.00002C3.75101 3.75936 4.76036 2.75002 6.00101 2.75002C7.24167 2.75002 8.25101 3.75936 8.25101 5.00002C8.25101 6.24067 7.2417 7.25002 6.00101 7.25002Z" fill="#B0A8B6"/>
</svg>
