<svg width="104" height="104" viewBox="0 0 104 104" fill="none" xmlns="http://www.w3.org/2000/svg">
<g clip-path="url(#clip0)">
<path d="M92.2043 55.4822V92.6242C92.2047 95.4151 91.1954 98.1119 89.3629 100.217C87.5303 102.322 84.9982 103.693 82.2339 104.077H22.1009C19.3369 103.692 16.8054 102.321 14.9734 100.216C13.1413 98.1113 12.1324 95.4148 12.1328 92.6242V55.4822H92.2043Z" fill="url(#paint0_linear)"/>
<path d="M65.7534 31.699V38.5684L62.2258 42.6528C62.2258 42.6528 60.7406 42.0959 60.7406 38.3827L60.1836 32.9986L65.7534 31.699Z" fill="#9F616A"/>
<path d="M77.5307 24.2522L74.129 22.7661C74.002 22.7106 73.8581 22.7079 73.729 22.7585C73.5999 22.8091 73.4962 22.9089 73.4407 23.0359L69.659 31.6928C69.5912 31.848 69.5878 32.0238 69.6496 32.1814C69.7114 32.3391 69.8333 32.4658 69.9885 32.5335L73.178 33.9269C73.3332 33.9947 73.509 33.998 73.6666 33.9363C73.8243 33.8745 73.951 33.7526 74.0187 33.5974L77.8005 24.9405C77.828 24.8776 77.8428 24.8098 77.8441 24.7412C77.8454 24.6726 77.8332 24.6044 77.8082 24.5404C77.7831 24.4765 77.7457 24.4182 77.6981 24.3687C77.6505 24.3192 77.5936 24.2796 77.5307 24.2522Z" fill="#2F2E41"/>
<path opacity="0.1" d="M77.5307 24.2522L74.129 22.7661C74.002 22.7106 73.8581 22.7079 73.729 22.7585C73.5999 22.8091 73.4962 22.9089 73.4407 23.0359L69.659 31.6928C69.5912 31.848 69.5878 32.0238 69.6496 32.1814C69.7114 32.3391 69.8333 32.4658 69.9885 32.5335L73.178 33.9269C73.3332 33.9947 73.509 33.998 73.6666 33.9363C73.8243 33.8745 73.951 33.7526 74.0187 33.5974L77.8005 24.9405C77.828 24.8776 77.8428 24.8098 77.8441 24.7412C77.8454 24.6726 77.8332 24.6044 77.8082 24.5404C77.7831 24.4765 77.7457 24.4182 77.6981 24.3687C77.6505 24.3192 77.5936 24.2796 77.5307 24.2522Z" fill="black"/>
<path d="M77.3374 24.6941L74.3717 23.3985C74.2446 23.343 74.1007 23.3402 73.9716 23.3908C73.8425 23.4414 73.7388 23.5412 73.6833 23.6683L70.0946 31.8833C70.0268 32.0385 70.0235 32.2142 70.0853 32.3719C70.1471 32.5296 70.269 32.6562 70.4241 32.724L73.1777 33.9269C73.3329 33.9947 73.5086 33.9981 73.6663 33.9363C73.824 33.8745 73.9506 33.7526 74.0184 33.5974L77.6071 25.3824C77.6626 25.2553 77.6654 25.1114 77.6148 24.9823C77.5642 24.8533 77.4644 24.7496 77.3374 24.6941Z" fill="#2F2E41"/>
<path d="M74.6118 28.1983C74.1302 27.988 73.9127 27.4217 74.1259 26.9337C74.3391 26.4456 74.9023 26.2205 75.3839 26.4309C75.8655 26.6412 76.083 27.2074 75.8698 27.6955C75.6566 28.1836 75.0934 28.4087 74.6118 28.1983Z" fill="#F2F2F2"/>
<path d="M62.2252 38.5684C62.2252 38.5684 67.9807 34.6696 68.1663 33.37C68.352 32.0704 73.6864 26.2202 75.2214 29.8425C76.67 33.2611 70.8093 36.1914 70.8093 36.1914C70.8093 36.1914 66.6811 43.7669 63.8962 43.5812C61.1113 43.3956 61.1113 39.868 62.2252 38.5684Z" fill="#9F616A"/>
<path d="M58.8851 80.3416L58.3281 83.6836L61.2988 82.9408V80.3416H58.8851Z" fill="#9F616A"/>
<path d="M59.4402 82.1978C59.4402 82.1978 62.8736 80.1638 63.0135 81.088C63.1534 82.0122 64.6387 85.5397 65.3813 85.911C66.1239 86.2823 67.0522 90.3668 65.3813 90.1811C64.0872 90.0374 59.3405 87.5548 57.2657 86.4425C57.0103 86.3048 56.8174 86.0745 56.7267 85.7989C56.636 85.5233 56.6545 85.2234 56.7782 84.961C56.8999 84.7359 56.9839 84.4923 57.0267 84.2401C57.0267 83.8688 59.4402 82.1978 59.4402 82.1978Z" fill="#2F2E41"/>
<path d="M57.7685 44.5096C57.7685 44.5096 71.3216 50.822 70.022 55.6491C68.7224 60.4762 63.8953 80.8987 63.8953 80.8987C63.8953 80.8987 58.5112 82.1983 58.1399 80.8987C57.7685 79.5991 61.6674 59.3623 61.296 58.6196C60.9247 57.877 54.0554 53.0499 54.0554 53.0499L39.9453 47.1088L45.8864 41.5391L57.7685 44.5096Z" fill="#2F2E41"/>
<path d="M67.9843 81.4553L69.6554 85.7256L66.6847 87.0252L64.8281 83.6833L67.9843 81.4553Z" fill="#9F616A"/>
<path d="M57.9523 14.0614C57.9523 14.0614 56.2814 16.2893 57.581 17.4033C58.8806 18.5172 57.9523 22.6017 57.9523 22.6017L56.2814 27.2432L49.5977 25.9436V18.3316L49.969 14.6184C49.969 14.6184 53.3108 11.4622 53.6822 9.04865C54.0535 6.63509 57.9523 14.0614 57.9523 14.0614Z" fill="#9F616A"/>
<path d="M46.8119 43.0244C46.8119 43.0244 55.5379 52.6787 55.5379 53.05C55.5379 53.4213 60.1794 61.0333 60.1794 61.0333L69.2766 81.2701C69.2766 81.2701 65.7491 86.0972 64.2638 85.7259C62.7786 85.3546 52.196 63.8182 52.196 63.8182C52.196 63.8182 50.3394 58.9911 45.3267 57.8771C40.3139 56.7632 36.415 52.8643 38.2716 48.4085C40.1282 43.9527 46.8119 43.0244 46.8119 43.0244Z" fill="#2F2E41"/>
<path d="M57.9567 15.3609C61.2379 15.3609 63.8978 12.701 63.8978 9.41984C63.8978 6.13868 61.2379 3.47876 57.9567 3.47876C54.6755 3.47876 52.0156 6.13868 52.0156 9.41984C52.0156 12.701 54.6755 15.3609 57.9567 15.3609Z" fill="#9F616A"/>
<path d="M57.772 19.0746C57.772 19.0746 57.0294 23.3448 56.2868 23.7161C55.5441 24.0874 54.9872 25.387 53.3162 23.5305C51.6453 21.6739 50.16 17.9607 50.16 17.9607L44.4046 25.0157L43.8477 44.5099C43.8477 44.5099 50.3457 42.8389 52.388 44.5099C54.4302 46.1808 58.886 45.9951 58.886 45.9951L57.9577 42.282L58.7003 35.9696L58.5147 30.2142L58.329 26.1297L57.772 19.0746Z" fill="#6C63FF"/>
<path d="M57.118 15.9487C57.118 15.9487 59.6286 17.2171 59.8143 17.9598C60 18.7024 63.3418 20.1877 63.3418 20.1877C63.3418 20.1877 64.6414 21.4873 64.6414 22.2299C64.6414 22.9726 60.1856 31.5129 60.1856 31.5129C60.1856 31.5129 59.2573 37.2683 59.6286 38.3822C59.9999 39.4962 58.886 43.7663 58.886 43.7663L61.1139 46.3655H59.0716C59.0716 46.3655 56.8438 45.2516 56.8438 44.6946C56.8438 44.1376 57.2151 40.2388 57.4007 38.5679C57.5864 36.8969 57.5864 30.9559 57.2151 28.9136C56.8438 26.8714 57.0294 21.4873 57.0294 20.1877C57.0294 18.8881 57.118 15.9487 57.118 15.9487Z" fill="#3F3D56"/>
<path d="M51.3658 13.1304C51.3658 13.1304 50.5304 13.3191 48.1168 14.0617C45.7032 14.8044 41.9901 15.9183 40.6904 17.4036C39.7782 18.502 38.9702 19.6829 38.2769 20.9311L39.0195 34.2985C39.0195 34.2985 37.5343 37.0834 37.7199 38.5687C37.9056 40.0539 39.3908 40.2396 38.2769 43.3958C37.1629 46.552 34.935 49.3369 36.9773 49.7082C39.0195 50.0795 44.4036 48.7799 46.8172 49.5225C49.2308 50.2651 52.0156 46.7376 52.0156 46.7376C52.0156 46.7376 48.3025 47.109 48.8594 45.6237C49.4164 44.1384 55.5431 27.4291 54.2435 23.716C52.9439 20.0028 51.3658 13.1304 51.3658 13.1304Z" fill="#3F3D56"/>
<path d="M63.7112 21.302L64.6395 22.0446C64.6395 22.0446 67.2387 31.3276 66.4961 32.2559C65.7535 33.1842 59.8124 35.2264 59.4411 33.9268C59.0697 32.6272 63.7112 21.302 63.7112 21.302Z" fill="#3F3D56"/>
<path d="M36.2321 27.8005C36.2321 27.8005 33.4473 35.7839 33.4473 38.0118C33.4473 40.2397 33.8186 53.2358 33.8186 53.2358C33.8186 53.2358 35.6752 61.0367 39.574 58.8088C43.4729 56.5808 37.9031 52.8644 37.9031 52.8644C37.9031 52.8644 38.0887 38.1974 39.574 36.1552C41.0593 34.1129 41.6162 31.1424 41.6162 31.1424L36.2321 27.8005Z" fill="#9F616A"/>
<path d="M66.6804 85.5405C66.6804 85.5405 69.4652 84.0552 70.0222 85.1692C70.5792 86.2831 73.5497 92.4099 73.1784 93.1525C72.8071 93.8951 70.7648 96.8657 68.3513 96.123C65.9377 95.3804 65.7521 91.4816 65.7521 91.4816L65.5664 87.0258L66.6804 85.5405Z" fill="#2F2E41"/>
<path d="M59.1203 7.98472C58.711 8.17736 58.2255 8.29246 57.9684 8.66456C57.7778 8.94028 57.7589 9.29859 57.6198 9.60355C57.4681 9.90551 57.2069 10.1382 56.8895 10.2543C56.5721 10.3704 56.2224 10.3611 55.9116 10.2282C55.8357 9.85841 55.6207 9.53185 55.3109 9.31598C55.1545 9.21308 54.9691 9.16308 54.7822 9.17335C54.5952 9.18361 54.4164 9.2536 54.2722 9.373C53.8895 9.73783 54.025 10.374 53.8464 10.8716C53.6788 11.2217 53.4481 11.538 53.166 11.8046C52.7597 12.2734 52.4359 12.8233 51.9466 13.2048C51.4572 13.5862 50.7151 13.7515 50.2289 13.366C49.8201 13.0419 49.7354 12.4439 49.8346 11.9317C49.9339 11.4195 50.1801 10.9478 50.319 10.4449C50.7702 8.81083 50.0508 7.06623 50.2734 5.38566C50.5586 3.23225 52.3888 1.53129 54.4318 0.793099C55.2819 0.446905 56.2126 0.348291 57.1165 0.508655C58.0507 0.717268 58.8489 1.31207 59.7437 1.65225C60.7005 2.01604 61.7411 2.07956 62.7424 2.29224C63.7438 2.50491 64.7743 2.91611 65.3554 3.7589C65.7607 4.34673 65.9 5.07676 66.2359 5.70683C66.6225 6.42601 67.2488 6.9871 68.006 7.2927L66.9475 7.23236C67.1249 7.70486 67.4143 8.12726 67.7909 8.46332C67.2945 8.56456 66.7785 8.49635 66.3255 8.26962C66.3337 8.48719 66.3864 8.70078 66.4804 8.89718C66.5743 9.09359 66.7076 9.26865 66.8718 9.41155C66.0573 9.38701 65.1983 9.34947 64.51 8.91315C64.1729 8.69943 63.898 8.40176 63.5807 8.15951C62.9045 7.64314 62.0656 7.39804 61.2477 7.16332C60.8183 7.04007 60.3014 6.86869 59.913 7.14488C59.5896 7.37488 59.5385 7.78785 59.1203 7.98472Z" fill="#2F2E41"/>
<path d="M41.0606 18.7026L38.2757 20.9305L34.5625 29.4708C34.5625 29.4708 39.7609 33.5553 41.0606 32.9984C42.3602 32.4414 44.5881 22.6015 44.5881 22.6015L41.0606 18.7026Z" fill="#3F3D56"/>
</g>
<defs>
<linearGradient id="paint0_linear" x1="92.2043" y1="55.4821" x2="10.03" y2="58.2258" gradientUnits="userSpaceOnUse">
<stop stop-color="#732CA4"/>
<stop offset="1" stop-color="#8C62A9"/>
</linearGradient>
<clipPath id="clip0">
<rect width="104" height="104" fill="white"/>
</clipPath>
</defs>
</svg>
