<svg width="24" height="24" viewBox="0 0 24 24" fill="none" xmlns="http://www.w3.org/2000/svg">
<path d="M13.998 6C13.998 4.9 13.098 4 11.998 4C10.898 4 9.99805 4.9 9.99805 6C9.99805 7.1 10.898 8 11.998 8C13.098 8 13.998 7.1 13.998 6ZM13.998 18C13.998 16.9 13.098 16 11.998 16C10.898 16 9.99805 16.9 9.99805 18C9.99805 19.1 10.898 20 11.998 20C13.098 20 13.998 19.1 13.998 18ZM13.998 12C13.998 10.9 13.098 10 11.998 10C10.898 10 9.99805 10.9 9.99805 12C9.99805 13.1 10.898 14 11.998 14C13.098 14 13.998 13.1 13.998 12Z" fill="#B0A8B6"/>
</svg>
