<svg width="32" height="32" viewBox="0 0 32 32" fill="none" xmlns="http://www.w3.org/2000/svg">
<path d="M23.8494 20.8528L21.9802 22.752C21.9265 22.8148 21.857 22.8624 21.779 22.8899L17.0772 24.4486H19.9703C20.3006 24.4486 20.5684 24.7164 20.5684 25.0467C20.5684 25.377 20.3006 25.6449 19.9703 25.6449H4.04447C3.71415 25.6449 3.44633 25.377 3.44633 25.0467C3.44633 24.7164 3.71415 24.4486 4.04447 24.4486H16.4843C16.4335 24.4486 16.3862 24.3934 16.3441 24.3513C16.1841 24.1939 16.128 23.9585 16.1998 23.7459L16.5602 22.6542H4.04447C3.71415 22.6542 3.44633 22.3864 3.44633 22.0561C3.44633 21.7258 3.71415 21.4579 4.04447 21.4579H16.9601L17.8035 18.9235C17.8245 18.8408 17.866 18.7649 17.9244 18.703L23.8494 12.7585V6.55607C23.8494 6.27993 23.6255 6.05607 23.3494 6.05607H18.4595C18.1292 6.05607 17.8681 5.82214 17.8681 5.49153V0.5C17.8681 0.223858 17.6442 0 17.3681 0H0.648438C0.372295 0 0.148438 0.223858 0.148438 0.5V31.5C0.148438 31.7761 0.372295 32 0.648437 32H23.3494C23.6255 32 23.8494 31.7761 23.8494 31.5V20.8528ZM4.04447 18.4673H12.4936C12.824 18.4673 13.0918 18.7351 13.0918 19.0654C13.0918 19.3957 12.824 19.6636 12.4936 19.6636H4.04447C3.71415 19.6636 3.44633 19.3957 3.44633 19.0654C3.44633 18.7351 3.71415 18.4673 4.04447 18.4673ZM19.9703 28.6355H4.04447C3.71415 28.6355 3.44633 28.3677 3.44633 28.0374C3.44633 27.7071 3.71415 27.4393 4.04447 27.4393H19.9703C20.3006 27.4393 20.5684 27.7071 20.5684 28.0374C20.5684 28.3677 20.3006 28.6355 19.9703 28.6355Z" fill="url(#paint0_linear)"/>
<path d="M19.4054 1.22144C19.2792 1.09611 19.0645 1.18549 19.0645 1.36334V4.65974C19.0645 4.7702 19.154 4.85974 19.2645 4.85974H22.5834C22.7619 4.85974 22.851 4.64363 22.7243 4.51784L19.4054 1.22144Z" fill="url(#paint1_linear)"/>
<path d="M17.7148 23.0013L20.4832 22.0758L18.6404 20.2329L17.7148 23.0013Z" fill="url(#paint2_linear)"/>
<path d="M21.5915 21.4898L29.1646 13.9001L26.8182 11.5537L19.2285 19.1267L21.5915 21.4898Z" fill="url(#paint3_linear)"/>
<path d="M31.4678 11.5908C31.6627 11.3955 31.6625 11.0792 31.4674 10.8841L29.8332 9.25008C29.6381 9.055 29.3219 9.05483 29.1265 9.24971L27.6641 10.7089L30.0087 13.0532L31.4678 11.5908Z" fill="url(#paint4_linear)"/>
<defs>
<linearGradient id="paint0_linear" x1="23.8494" y1="-2.35319e-05" x2="-0.495634" y2="0.365351" gradientUnits="userSpaceOnUse">
<stop stop-color="#732CA4"/>
<stop offset="1" stop-color="#8C62A9"/>
</linearGradient>
<linearGradient id="paint1_linear" x1="23.0685" y1="0.88281" x2="18.9564" y2="0.966704" gradientUnits="userSpaceOnUse">
<stop stop-color="#732CA4"/>
<stop offset="1" stop-color="#8C62A9"/>
</linearGradient>
<linearGradient id="paint2_linear" x1="20.4832" y1="20.2329" x2="17.6401" y2="20.2905" gradientUnits="userSpaceOnUse">
<stop stop-color="#732CA4"/>
<stop offset="1" stop-color="#8C62A9"/>
</linearGradient>
<linearGradient id="paint3_linear" x1="29.1646" y1="11.5537" x2="18.9604" y2="11.7605" gradientUnits="userSpaceOnUse">
<stop stop-color="#732CA4"/>
<stop offset="1" stop-color="#8C62A9"/>
</linearGradient>
<linearGradient id="paint4_linear" x1="31.8206" y1="8.89697" x2="27.5519" y2="8.98347" gradientUnits="userSpaceOnUse">
<stop stop-color="#732CA4"/>
<stop offset="1" stop-color="#8C62A9"/>
</linearGradient>
</defs>
</svg>
