<svg width="24" height="24" viewBox="0 0 24 24" fill="none" xmlns="http://www.w3.org/2000/svg">
<path d="M21.1637 18.0639L20.9565 17.881C20.3685 17.3572 19.8539 16.7565 19.4266 16.0952C18.9598 15.1824 18.6801 14.1857 18.6037 13.1634V10.1523C18.6077 8.54662 18.0253 6.9947 16.9658 5.78815C15.9063 4.5816 14.4426 3.80348 12.8498 3.59999V2.81371C12.8498 2.5979 12.7641 2.39093 12.6115 2.23833C12.4589 2.08573 12.2519 2 12.0361 2C11.8203 2 11.6134 2.08573 11.4608 2.23833C11.3082 2.39093 11.2224 2.5979 11.2224 2.81371V3.61218C9.64393 3.83034 8.19797 4.61317 7.15237 5.81566C6.10678 7.01815 5.53239 8.55883 5.5356 10.1523V13.1634C5.45926 14.1857 5.17951 15.1824 4.71275 16.0952C4.29272 16.7549 3.7864 17.3555 3.20724 17.881L3 18.0639V19.7827H21.1637V18.0639Z" fill="#62526D" fill-opacity="0.5"/>
<path d="M10.4785 20.4227C10.532 20.8091 10.7234 21.1631 11.0175 21.4193C11.3116 21.6755 11.6885 21.8166 12.0785 21.8166C12.4685 21.8166 12.8454 21.6755 13.1395 21.4193C13.4336 21.1631 13.625 20.8091 13.6785 20.4227H10.4785Z" fill="#62526D" fill-opacity="0.5"/>
</svg>