<svg width="24" height="24" viewBox="0 0 24 24" fill="none" xmlns="http://www.w3.org/2000/svg">
<path d="M7.41906 4.42095C7.28622 4.55351 7.18083 4.71098 7.10892 4.88433C7.03701 5.05768 7 5.2435 7 5.43118C7 5.61885 7.03701 5.80468 7.10892 5.97802C7.18083 6.15137 7.28622 6.30884 7.41906 6.4414L12.9789 12.0012L7.41906 17.5611C7.15113 17.829 7.00061 18.1924 7.00061 18.5713C7.00061 18.9502 7.15113 19.3136 7.41906 19.5816C7.68699 19.8495 8.05038 20 8.42929 20C8.8082 20 9.17159 19.8495 9.43952 19.5816L16.0168 13.0043C16.1496 12.8717 16.255 12.7143 16.3269 12.5409C16.3988 12.3676 16.4358 12.1818 16.4358 11.9941C16.4358 11.8064 16.3988 11.6206 16.3269 11.4472C16.255 11.2739 16.1496 11.1164 16.0168 10.9839L9.43952 4.40662C8.895 3.8621 7.97791 3.8621 7.41906 4.42095Z" fill="#A7A7A7"/>
</svg>
