<svg width="16" height="16" viewBox="0 0 16 16" fill="none" xmlns="http://www.w3.org/2000/svg">
<path d="M4.94539 2.94713C4.85683 3.03551 4.78657 3.14049 4.73863 3.25606C4.69069 3.37162 4.66602 3.49551 4.66602 3.62062C4.66602 3.74574 4.69069 3.86962 4.73863 3.98519C4.78657 4.10075 4.85683 4.20573 4.94539 4.29411L8.65195 8.00067L4.94539 11.7072C4.76677 11.8859 4.66642 12.1281 4.66642 12.3807C4.66642 12.6333 4.76677 12.8756 4.94539 13.0542C5.12401 13.2328 5.36627 13.3332 5.61887 13.3332C5.87148 13.3332 6.11374 13.2328 6.29236 13.0542L10.6772 8.66938C10.7657 8.581 10.836 8.47602 10.8839 8.36046C10.9319 8.24489 10.9566 8.12101 10.9566 7.99589C10.9566 7.87078 10.9319 7.74689 10.8839 7.63133C10.836 7.51576 10.7657 7.41079 10.6772 7.32241L6.29236 2.93758C5.92935 2.57457 5.31795 2.57457 4.94539 2.94713Z" fill="white"/>
</svg>
