<svg width="112" height="16" viewBox="0 0 112 16" fill="none" xmlns="http://www.w3.org/2000/svg">
<path d="M14.632 6.11934C14.5901 5.99592 14.513 5.88747 14.4101 5.80738C14.3073 5.72729 14.1833 5.67908 14.0533 5.66868L10.2527 5.36668L8.608 1.72601C8.55562 1.60875 8.47043 1.50916 8.3627 1.43925C8.25497 1.36934 8.12931 1.3321 8.00089 1.33203C7.87246 1.33196 7.74676 1.36906 7.63895 1.43885C7.53115 1.50864 7.44584 1.60814 7.39334 1.72534L5.74867 5.36668L1.948 5.66868C1.82031 5.67879 1.69823 5.72548 1.59637 5.80316C1.49452 5.88084 1.4172 5.98622 1.37366 6.1067C1.33013 6.22717 1.32223 6.35763 1.3509 6.48248C1.37957 6.60733 1.4436 6.72127 1.53534 6.81068L4.344 9.54868L3.35067 13.85C3.32051 13.9802 3.33017 14.1165 3.37842 14.2411C3.42666 14.3657 3.51124 14.473 3.6212 14.549C3.73116 14.6249 3.86141 14.6661 3.99506 14.6671C4.1287 14.6681 4.25957 14.629 4.37067 14.5547L8.00067 12.1347L11.6307 14.5547C11.7442 14.6301 11.8781 14.6689 12.0144 14.6659C12.1507 14.6629 12.2828 14.6183 12.3929 14.538C12.5031 14.4577 12.586 14.3456 12.6305 14.2167C12.675 14.0879 12.6791 13.9485 12.642 13.8173L11.4227 9.55068L14.4467 6.82934C14.6447 6.65068 14.7173 6.37201 14.632 6.11934Z" fill="#732CA4"/>
<path d="M38.632 6.11934C38.5901 5.99592 38.513 5.88747 38.4101 5.80738C38.3073 5.72729 38.1833 5.67908 38.0533 5.66868L34.2527 5.36668L32.608 1.72601C32.5556 1.60875 32.4704 1.50916 32.3627 1.43925C32.255 1.36934 32.1293 1.3321 32.0009 1.33203C31.8725 1.33196 31.7468 1.36906 31.639 1.43885C31.5311 1.50864 31.4458 1.60814 31.3933 1.72534L29.7487 5.36668L25.948 5.66868C25.8203 5.67879 25.6982 5.72548 25.5964 5.80316C25.4945 5.88084 25.4172 5.98622 25.3737 6.1067C25.3301 6.22717 25.3222 6.35763 25.3509 6.48248C25.3796 6.60733 25.4436 6.72127 25.5353 6.81068L28.344 9.54868L27.3507 13.85C27.3205 13.9802 27.3302 14.1165 27.3784 14.2411C27.4267 14.3657 27.5112 14.473 27.6212 14.549C27.7312 14.6249 27.8614 14.6661 27.9951 14.6671C28.1287 14.6681 28.2596 14.629 28.3707 14.5547L32.0007 12.1347L35.6307 14.5547C35.7442 14.6301 35.8781 14.6689 36.0144 14.6659C36.1507 14.6629 36.2828 14.6183 36.3929 14.538C36.5031 14.4577 36.586 14.3456 36.6305 14.2167C36.675 14.0879 36.6791 13.9485 36.642 13.8173L35.4227 9.55068L38.4467 6.82934C38.6447 6.65068 38.7173 6.37201 38.632 6.11934Z" fill="#732CA4"/>
<path d="M62.632 6.11934C62.5901 5.99592 62.513 5.88747 62.4101 5.80738C62.3073 5.72729 62.1833 5.67908 62.0533 5.66868L58.2527 5.36668L56.608 1.72601C56.5556 1.60875 56.4704 1.50916 56.3627 1.43925C56.255 1.36934 56.1293 1.3321 56.0009 1.33203C55.8725 1.33196 55.7468 1.36906 55.639 1.43885C55.5311 1.50864 55.4458 1.60814 55.3933 1.72534L53.7487 5.36668L49.948 5.66868C49.8203 5.67879 49.6982 5.72548 49.5964 5.80316C49.4945 5.88084 49.4172 5.98622 49.3737 6.1067C49.3301 6.22717 49.3222 6.35763 49.3509 6.48248C49.3796 6.60733 49.4436 6.72127 49.5353 6.81068L52.344 9.54868L51.3507 13.85C51.3205 13.9802 51.3302 14.1165 51.3784 14.2411C51.4267 14.3657 51.5112 14.473 51.6212 14.549C51.7312 14.6249 51.8614 14.6661 51.9951 14.6671C52.1287 14.6681 52.2596 14.629 52.3707 14.5547L56.0007 12.1347L59.6307 14.5547C59.7442 14.6301 59.8781 14.6689 60.0144 14.6659C60.1507 14.6629 60.2828 14.6183 60.3929 14.538C60.5031 14.4577 60.586 14.3456 60.6305 14.2167C60.675 14.0879 60.6791 13.9485 60.642 13.8173L59.4227 9.55068L62.4467 6.82934C62.6447 6.65068 62.7173 6.37201 62.632 6.11934Z" fill="#732CA4"/>
<path d="M86.632 6.11934C86.5901 5.99592 86.513 5.88747 86.4101 5.80738C86.3073 5.72729 86.1833 5.67908 86.0533 5.66868L82.2527 5.36668L80.608 1.72601C80.5556 1.60875 80.4704 1.50916 80.3627 1.43925C80.255 1.36934 80.1293 1.3321 80.0009 1.33203C79.8725 1.33196 79.7468 1.36906 79.639 1.43885C79.5311 1.50864 79.4458 1.60814 79.3933 1.72534L77.7487 5.36668L73.948 5.66868C73.8203 5.67879 73.6982 5.72548 73.5964 5.80316C73.4945 5.88084 73.4172 5.98622 73.3737 6.1067C73.3301 6.22717 73.3222 6.35763 73.3509 6.48248C73.3796 6.60733 73.4436 6.72127 73.5353 6.81068L76.344 9.54868L75.3507 13.85C75.3205 13.9802 75.3302 14.1165 75.3784 14.2411C75.4267 14.3657 75.5112 14.473 75.6212 14.549C75.7312 14.6249 75.8614 14.6661 75.9951 14.6671C76.1287 14.6681 76.2596 14.629 76.3707 14.5547L80.0007 12.1347L83.6307 14.5547C83.7442 14.6301 83.8781 14.6689 84.0144 14.6659C84.1507 14.6629 84.2828 14.6183 84.3929 14.538C84.5031 14.4577 84.586 14.3456 84.6305 14.2167C84.675 14.0879 84.6791 13.9485 84.642 13.8173L83.4227 9.55068L86.4467 6.82934C86.6447 6.65068 86.7173 6.37201 86.632 6.11934Z" fill="#732CA4"/>
<path d="M110.632 6.11934C110.59 5.99592 110.513 5.88747 110.41 5.80738C110.307 5.72729 110.183 5.67908 110.053 5.66868L106.253 5.36668L104.608 1.72601C104.556 1.60875 104.47 1.50916 104.363 1.43925C104.255 1.36934 104.129 1.3321 104.001 1.33203C103.872 1.33196 103.747 1.36906 103.639 1.43885C103.531 1.50864 103.446 1.60814 103.393 1.72534L101.749 5.36668L97.948 5.66868C97.8203 5.67879 97.6982 5.72548 97.5964 5.80316C97.4945 5.88084 97.4172 5.98622 97.3737 6.1067C97.3301 6.22717 97.3222 6.35763 97.3509 6.48248C97.3796 6.60733 97.4436 6.72127 97.5353 6.81068L100.344 9.54868L99.3507 13.85C99.3205 13.9802 99.3302 14.1165 99.3784 14.2411C99.4267 14.3657 99.5112 14.473 99.6212 14.549C99.7312 14.6249 99.8614 14.6661 99.9951 14.6671C100.129 14.6681 100.26 14.629 100.371 14.5547L104.001 12.1347L107.631 14.5547C107.744 14.6301 107.878 14.6689 108.014 14.6659C108.151 14.6629 108.283 14.6183 108.393 14.538C108.503 14.4577 108.586 14.3456 108.631 14.2167C108.675 14.0879 108.679 13.9485 108.642 13.8173L107.423 9.55068L110.447 6.82934C110.645 6.65068 110.717 6.37201 110.632 6.11934Z" fill="#62526D" fill-opacity="0.5"/>
</svg>
