<svg width="24" height="24" viewBox="0 0 24 24" fill="none" xmlns="http://www.w3.org/2000/svg">
<path d="M11.775 0C6.3815 0 2 4.3815 2 9.775C2 15.1685 6.3815 19.55 11.775 19.55H12.35V23C17.939 20.309 21.55 14.95 21.55 9.775C21.55 4.3815 17.1685 0 11.775 0ZM12.925 16.675H10.625V14.375H12.925V16.675ZM12.925 12.65H10.625C10.625 8.9125 14.075 9.2 14.075 6.9C14.075 5.635 13.04 4.6 11.775 4.6C10.51 4.6 9.475 5.635 9.475 6.9H7.175C7.175 4.3585 9.2335 2.3 11.775 2.3C14.3165 2.3 16.375 4.3585 16.375 6.9C16.375 9.775 12.925 10.0625 12.925 12.65Z" fill="#2CA487" fill-opacity="0.8"/>
</svg>
