<svg width="24" height="24" viewBox="0 0 24 24" fill="none" xmlns="http://www.w3.org/2000/svg">
<path d="M12 0C5.38331 0 0 5.38331 0 12C0 18.6167 5.38331 24 12 24C18.6167 24 24 18.6167 24 12C24 5.38331 18.6167 0 12 0ZM12 3.50002C15.1704 3.50002 17.75 6.07959 17.75 9.25003C17.75 12.4205 15.1704 15 12 15C8.82961 15 6.24998 12.4204 6.24998 9.24998C6.24998 6.07955 8.82961 3.50002 12 3.50002ZM12 22C8.73248 22 5.835 20.4177 4.00908 17.9868C6.00952 17.0243 8.86631 16 12 16C15.1339 16 17.991 17.0244 19.991 17.9867C18.165 20.4177 15.2676 22 12 22Z" fill="#62526D" fill-opacity="0.8"/>
</svg>
