<svg width="24" height="24" viewBox="0 0 24 24" fill="none" xmlns="http://www.w3.org/2000/svg">
<path d="M20.6748 21.2566C20.6285 18.2938 19.7054 15.5997 18.0643 13.6491C16.4327 11.7105 14.2215 10.6428 11.8373 10.6428C9.45308 10.6428 7.24185 11.7105 5.61025 13.6491C3.97066 15.5976 3.04821 18.288 3 21.2472C3.92712 21.7116 7.76367 23.5 11.8373 23.5C16.2423 23.5 19.815 21.7221 20.6748 21.2566Z" fill="#732CA4"/>
<path d="M11.8376 9.83929C14.2785 9.83929 16.2573 7.86054 16.2573 5.41964C16.2573 2.97874 14.2785 1 11.8376 1C9.39671 1 7.41797 2.97874 7.41797 5.41964C7.41797 7.86054 9.39671 9.83929 11.8376 9.83929Z" fill="#732CA4" />
</svg>
