<svg width="24" height="24" viewBox="0 0 24 24" fill="none" xmlns="http://www.w3.org/2000/svg">
<path d="M11.6875 1C5.79441 1 1 5.79441 1 11.6875C1 17.5806 5.79441 22.375 11.6875 22.375C17.5806 22.375 22.375 17.5806 22.375 11.6875C22.375 5.79441 17.5806 1 11.6875 1ZM11.6875 5.38188C11.9623 5.38188 12.2309 5.46336 12.4594 5.61603C12.6879 5.76869 12.866 5.98568 12.9711 6.23956C13.0763 6.49343 13.1038 6.77279 13.0502 7.0423C12.9966 7.31182 12.8642 7.55938 12.6699 7.75369C12.4756 7.94799 12.2281 8.08032 11.9586 8.13393C11.689 8.18754 11.4097 8.16002 11.1558 8.05487C10.9019 7.94971 10.6849 7.77163 10.5323 7.54315C10.3796 7.31466 10.2981 7.04604 10.2981 6.77125C10.2981 6.40276 10.4445 6.04937 10.7051 5.78881C10.9656 5.52825 11.319 5.38188 11.6875 5.38188ZM14.2525 17.4587H9.55C9.32324 17.4587 9.10577 17.3687 8.94542 17.2083C8.78508 17.048 8.695 16.8305 8.695 16.6038C8.695 16.377 8.78508 16.1595 8.94542 15.9992C9.10577 15.8388 9.32324 15.7488 9.55 15.7488H11.0463V11.0463H10.1912C9.96449 11.0463 9.74702 10.9562 9.58667 10.7958C9.42633 10.6355 9.33625 10.418 9.33625 10.1912C9.33625 9.96449 9.42633 9.74702 9.58667 9.58667C9.74702 9.42633 9.96449 9.33625 10.1912 9.33625H11.9012C12.128 9.33625 12.3455 9.42633 12.5058 9.58667C12.6662 9.74702 12.7563 9.96449 12.7563 10.1912V15.7488H14.2525C14.4793 15.7488 14.6967 15.8388 14.8571 15.9992C15.0174 16.1595 15.1075 16.377 15.1075 16.6038C15.1075 16.8305 15.0174 17.048 14.8571 17.2083C14.6967 17.3687 14.4793 17.4587 14.2525 17.4587Z" fill="#A47B2C" fill-opacity="0.8"/>
</svg>
