<svg width="24" height="24" viewBox="0 0 24 24" fill="none" xmlns="http://www.w3.org/2000/svg">
<path d="M13.2616 6.28718C13.0676 6.15007 12.805 6.17266 12.6372 6.34094L6.00354 12.9936C5.85275 13.1449 5.80822 13.3699 5.89011 13.5671C5.97195 13.7643 6.16278 13.8917 6.37629 13.8917H8.29737L5.9322 18.887C5.83076 19.1012 5.89779 19.3557 6.09148 19.4922C6.28423 19.6282 6.54678 19.6067 6.71497 19.4386L11.2913 14.8623C11.4285 14.725 11.4285 14.5026 11.2913 14.3653C11.1541 14.2282 10.9317 14.2282 10.7944 14.3653L7.10267 18.0571L9.03964 13.9662C9.11989 13.7966 9.10789 13.6007 9.00753 13.4422C8.90722 13.2836 8.73528 13.1891 8.54764 13.1891H6.80112L12.2364 7.73805L10.293 11.7985C10.2118 11.9681 10.2231 12.1644 10.3234 12.3236C10.4236 12.4827 10.5957 12.5778 10.7839 12.5778H12.5819L11.8875 13.2721C11.7503 13.4094 11.7503 13.6318 11.8875 13.769C12.0248 13.9062 12.2472 13.9062 12.3844 13.769L13.3798 12.7737C13.5309 12.6226 13.5757 12.3974 13.4939 12.2C13.4121 12.0026 13.2212 11.875 13.0076 11.875H11.0354L13.4195 6.89374C13.5222 6.67943 13.4557 6.42434 13.2616 6.28718Z" fill="#00A735"/>
<path d="M23.9999 5.73899C23.9999 4.49943 23.5178 3.33351 22.6423 2.45596C22.5052 2.31857 22.2828 2.31834 22.1454 2.45535C22.008 2.59241 22.0077 2.81488 22.1448 2.95223C22.8879 3.69712 23.2972 4.68679 23.2972 5.73895C23.2972 7.91451 21.5272 9.68441 19.3518 9.68441C17.1762 9.68441 15.4063 7.91446 15.4063 5.73895C15.4063 3.56343 17.1763 1.79352 19.3518 1.79352C19.8846 1.79352 20.4012 1.89777 20.8874 2.10337C21.0661 2.17888 21.2722 2.09535 21.3478 1.91666C21.4234 1.73793 21.3398 1.53177 21.1611 1.45621C20.5878 1.21373 19.9791 1.09082 19.3517 1.09082C17.2562 1.09082 15.4805 2.48474 14.9022 4.39396C13.5427 3.6058 12.0022 3.14896 10.4216 3.06993C5.89945 2.84371 1.79948 5.70046 0.451261 10.0169C0.393418 10.2022 0.496683 10.3992 0.681886 10.4571C0.710949 10.4661 0.740293 10.4713 0.769308 10.4728C0.925496 10.4806 1.07325 10.3827 1.122 10.2265C2.37473 6.21585 6.1844 3.5616 10.3866 3.77179C11.9317 3.84909 13.4354 4.31502 14.745 5.11879C14.7179 5.32176 14.7036 5.52871 14.7036 5.73899C14.7036 8.10407 16.4791 10.0622 18.7673 10.3506C19.0652 11.3508 19.19 12.3911 19.1373 13.444C18.8833 18.5232 14.5443 22.4488 9.46504 22.1947C4.38581 21.9407 0.460308 17.6017 0.714371 12.5225C0.726418 12.2819 0.747933 12.0395 0.778308 11.802C0.802964 11.6096 0.666886 11.4336 0.474371 11.4089C0.281668 11.3839 0.105933 11.5204 0.081277 11.7129C0.0486051 11.9682 0.0254957 12.2288 0.0125582 12.4874C-0.260864 17.9536 3.96379 22.6232 9.42998 22.8966C14.8962 23.17 19.5658 18.9454 19.8392 13.4791C19.8917 12.4282 19.7798 11.3888 19.5074 10.3844C21.9986 10.3019 23.9999 8.2499 23.9999 5.73899Z" fill="#00A735"/>
<path d="M19.353 3.15112C19.1589 3.15112 19.0016 3.30839 19.0016 3.5025V4.25339C18.3286 4.41258 17.8262 5.01797 17.8262 5.7389C17.8262 6.58078 18.5111 7.26572 19.353 7.26572C20.0739 7.26572 20.6794 6.76326 20.8385 6.09028H22.0926C22.2867 6.09028 22.444 5.93301 22.444 5.7389C22.444 5.54479 22.2867 5.38753 22.0926 5.38753H20.8385C20.7061 4.82742 20.2645 4.38586 19.7044 4.25339V3.5025C19.7044 3.30844 19.547 3.15112 19.353 3.15112ZM20.1771 5.7389C20.1771 6.19331 19.8074 6.56301 19.353 6.56301C18.8986 6.56301 18.5289 6.19331 18.5289 5.7389C18.5289 5.2845 18.8986 4.91484 19.353 4.91484C19.8074 4.91484 20.1771 5.2845 20.1771 5.7389Z" fill="#00A735"/>
</svg>
