<svg width="106" height="24" viewBox="0 0 106 24" fill="none" xmlns="http://www.w3.org/2000/svg">
<path d="M35.654 11.394L35.096 13.194H38.642L38.084 11.394C37.868 10.734 37.664 10.08 37.472 9.432C37.28 8.772 37.088 8.1 36.896 7.416H36.824C36.644 8.1 36.458 8.772 36.266 9.432C36.074 10.08 35.87 10.734 35.654 11.394ZM32.054 18L36.05 6.192H37.742L41.738 18H40.136L39.02 14.4H34.718L33.584 18H32.054ZM46.255 18.216C45.151 18.216 44.269 17.82 43.609 17.028C42.961 16.236 42.637 15.108 42.637 13.644C42.637 12.936 42.739 12.3 42.943 11.736C43.159 11.16 43.441 10.674 43.789 10.278C44.137 9.882 44.539 9.576 44.995 9.36C45.451 9.144 45.931 9.036 46.435 9.036C46.939 9.036 47.377 9.126 47.749 9.306C48.121 9.486 48.499 9.732 48.883 10.044L48.811 8.55V5.184H50.305V18H49.081L48.955 16.974H48.901C48.553 17.31 48.151 17.604 47.695 17.856C47.251 18.096 46.771 18.216 46.255 18.216ZM46.579 16.974C46.987 16.974 47.371 16.878 47.731 16.686C48.091 16.482 48.451 16.176 48.811 15.768V11.196C48.439 10.86 48.079 10.626 47.731 10.494C47.395 10.35 47.047 10.278 46.687 10.278C46.339 10.278 46.009 10.362 45.697 10.53C45.397 10.686 45.133 10.914 44.905 11.214C44.677 11.502 44.497 11.85 44.365 12.258C44.233 12.666 44.167 13.122 44.167 13.626C44.167 14.682 44.377 15.504 44.797 16.092C45.217 16.68 45.811 16.974 46.579 16.974ZM56.2394 18.216C55.1354 18.216 54.2534 17.82 53.5934 17.028C52.9454 16.236 52.6214 15.108 52.6214 13.644C52.6214 12.936 52.7234 12.3 52.9274 11.736C53.1434 11.16 53.4254 10.674 53.7734 10.278C54.1214 9.882 54.5234 9.576 54.9794 9.36C55.4354 9.144 55.9154 9.036 56.4194 9.036C56.9234 9.036 57.3614 9.126 57.7334 9.306C58.1054 9.486 58.4834 9.732 58.8674 10.044L58.7954 8.55V5.184H60.2894V18H59.0654L58.9394 16.974H58.8854C58.5374 17.31 58.1354 17.604 57.6794 17.856C57.2354 18.096 56.7554 18.216 56.2394 18.216ZM56.5634 16.974C56.9714 16.974 57.3554 16.878 57.7154 16.686C58.0754 16.482 58.4354 16.176 58.7954 15.768V11.196C58.4234 10.86 58.0634 10.626 57.7154 10.494C57.3794 10.35 57.0314 10.278 56.6714 10.278C56.3234 10.278 55.9934 10.362 55.6814 10.53C55.3814 10.686 55.1174 10.914 54.8894 11.214C54.6614 11.502 54.4814 11.85 54.3494 12.258C54.2174 12.666 54.1514 13.122 54.1514 13.626C54.1514 14.682 54.3614 15.504 54.7814 16.092C55.2014 16.68 55.7954 16.974 56.5634 16.974ZM66.8393 18V9.252H68.0633L68.1893 10.512H68.2433C68.6273 10.092 69.0413 9.744 69.4853 9.468C69.9413 9.18 70.4333 9.036 70.9613 9.036C71.6333 9.036 72.1553 9.186 72.5273 9.486C72.9113 9.774 73.1933 10.182 73.3733 10.71C73.8293 10.206 74.2853 9.804 74.7413 9.504C75.2093 9.192 75.7133 9.036 76.2533 9.036C77.1533 9.036 77.8193 9.324 78.2513 9.9C78.6953 10.476 78.9173 11.328 78.9173 12.456V18H77.4413V12.654C77.4413 11.826 77.3093 11.232 77.0453 10.872C76.7813 10.5 76.3733 10.314 75.8213 10.314C75.1613 10.314 74.4293 10.764 73.6253 11.664V18H72.1493V12.654C72.1493 11.826 72.0173 11.232 71.7533 10.872C71.4893 10.5 71.0753 10.314 70.5113 10.314C69.8513 10.314 69.1193 10.764 68.3153 11.664V18H66.8393ZM85.1651 18.216C84.6251 18.216 84.1091 18.114 83.6171 17.91C83.1371 17.706 82.7111 17.412 82.3391 17.028C81.9671 16.632 81.6671 16.152 81.4391 15.588C81.2231 15.012 81.1151 14.364 81.1151 13.644C81.1151 12.912 81.2231 12.264 81.4391 11.7C81.6671 11.124 81.9671 10.638 82.3391 10.242C82.7111 9.846 83.1371 9.546 83.6171 9.342C84.1091 9.138 84.6251 9.036 85.1651 9.036C85.7051 9.036 86.2151 9.138 86.6951 9.342C87.1871 9.546 87.6191 9.846 87.9911 10.242C88.3631 10.638 88.6571 11.124 88.8731 11.7C89.1011 12.264 89.2151 12.912 89.2151 13.644C89.2151 14.364 89.1011 15.012 88.8731 15.588C88.6571 16.152 88.3631 16.632 87.9911 17.028C87.6191 17.412 87.1871 17.706 86.6951 17.91C86.2151 18.114 85.7051 18.216 85.1651 18.216ZM85.1651 16.992C85.5371 16.992 85.8791 16.914 86.1911 16.758C86.5031 16.59 86.7671 16.362 86.9831 16.074C87.2111 15.774 87.3851 15.42 87.5051 15.012C87.6251 14.604 87.6851 14.148 87.6851 13.644C87.6851 13.14 87.6251 12.684 87.5051 12.276C87.3851 11.856 87.2111 11.496 86.9831 11.196C86.7671 10.896 86.5031 10.668 86.1911 10.512C85.8791 10.344 85.5371 10.26 85.1651 10.26C84.7931 10.26 84.4511 10.344 84.1391 10.512C83.8271 10.668 83.5571 10.896 83.3291 11.196C83.1131 11.496 82.9451 11.856 82.8251 12.276C82.7051 12.684 82.6451 13.14 82.6451 13.644C82.6451 14.148 82.7051 14.604 82.8251 15.012C82.9451 15.42 83.1131 15.774 83.3291 16.074C83.5571 16.362 83.8271 16.59 84.1391 16.758C84.4511 16.914 84.7931 16.992 85.1651 16.992ZM91.519 18V9.252H92.743L92.869 10.836H92.923C93.223 10.284 93.583 9.846 94.003 9.522C94.435 9.198 94.903 9.036 95.407 9.036C95.755 9.036 96.067 9.096 96.343 9.216L96.055 10.512C95.911 10.464 95.779 10.428 95.659 10.404C95.539 10.38 95.389 10.368 95.209 10.368C94.837 10.368 94.447 10.518 94.039 10.818C93.643 11.118 93.295 11.64 92.995 12.384V18H91.519ZM101.129 18.216C100.541 18.216 99.9894 18.114 99.4734 17.91C98.9694 17.694 98.5254 17.394 98.1414 17.01C97.7694 16.614 97.4754 16.134 97.2594 15.57C97.0434 15.006 96.9354 14.364 96.9354 13.644C96.9354 12.924 97.0434 12.282 97.2594 11.718C97.4874 11.142 97.7814 10.656 98.1414 10.26C98.5134 9.864 98.9334 9.564 99.4014 9.36C99.8694 9.144 100.355 9.036 100.859 9.036C101.411 9.036 101.903 9.132 102.335 9.324C102.779 9.516 103.145 9.792 103.433 10.152C103.733 10.512 103.961 10.944 104.117 11.448C104.273 11.952 104.351 12.516 104.351 13.14C104.351 13.296 104.345 13.452 104.333 13.608C104.333 13.752 104.321 13.878 104.297 13.986H98.3934C98.4534 14.922 98.7414 15.666 99.2574 16.218C99.7854 16.758 100.469 17.028 101.309 17.028C101.729 17.028 102.113 16.968 102.461 16.848C102.821 16.716 103.163 16.548 103.487 16.344L104.009 17.316C103.625 17.556 103.199 17.766 102.731 17.946C102.263 18.126 101.729 18.216 101.129 18.216ZM98.3754 12.924H103.055C103.055 12.036 102.863 11.364 102.479 10.908C102.107 10.44 101.579 10.206 100.895 10.206C100.583 10.206 100.283 10.266 99.9954 10.386C99.7194 10.506 99.4674 10.686 99.2394 10.926C99.0114 11.154 98.8194 11.436 98.6634 11.772C98.5194 12.108 98.4234 12.492 98.3754 12.924Z" fill="#62526D"/>
<path d="M12 2C6.48 2 2 6.48 2 12C2 17.52 6.48 22 12 22C17.52 22 22 17.52 22 12C22 6.48 17.52 2 12 2ZM16 13H13V16C13 16.55 12.55 17 12 17C11.45 17 11 16.55 11 16V13H8C7.45 13 7 12.55 7 12C7 11.45 7.45 11 8 11H11V8C11 7.45 11.45 7 12 7C12.55 7 13 7.45 13 8V11H16C16.55 11 17 11.45 17 12C17 12.55 16.55 13 16 13Z" fill="#732CA4"/>
</svg>
