<svg width="240" height="240" viewBox="0 0 240 240" fill="none" xmlns="http://www.w3.org/2000/svg">
<g clip-path="url(#clip0)">
<path d="M212.78 128.036V213.748C212.781 220.188 210.452 226.412 206.223 231.27C201.994 236.127 196.151 239.291 189.772 240.177H51.0032C44.6249 239.29 38.7829 236.125 34.5551 231.268C30.3273 226.41 27.9991 220.188 28 213.748V128.036H212.78Z" fill="#8987A7"/>
<path d="M151.73 73.15V89.0024L143.59 98.4282C143.59 98.4282 140.162 97.1428 140.162 88.574L138.877 76.1491L151.73 73.15Z" fill="#9F616A"/>
<path d="M178.908 55.9651L171.058 52.5359C170.765 52.4078 170.433 52.4014 170.135 52.5182C169.837 52.6349 169.598 52.8652 169.47 53.1584L160.743 73.1359C160.586 73.494 160.578 73.8996 160.721 74.2635C160.864 74.6273 161.145 74.9196 161.503 75.076L168.864 78.2914C169.222 78.4479 169.627 78.4556 169.991 78.313C170.355 78.1704 170.647 77.8891 170.804 77.531L179.531 57.5535C179.594 57.4084 179.628 57.2521 179.631 57.0937C179.634 56.9353 179.606 56.7779 179.548 56.6304C179.491 56.4829 179.404 56.3482 179.294 56.2341C179.185 56.1199 179.053 56.0286 178.908 55.9651Z" fill="#2F2E41"/>
<path opacity="0.1" d="M178.908 55.9651L171.058 52.5359C170.765 52.4078 170.433 52.4014 170.135 52.5182C169.837 52.6349 169.598 52.8652 169.47 53.1584L160.743 73.1359C160.586 73.494 160.578 73.8996 160.721 74.2635C160.864 74.6273 161.145 74.9196 161.503 75.076L168.864 78.2914C169.222 78.4479 169.627 78.4556 169.991 78.313C170.355 78.1704 170.647 77.8891 170.804 77.531L179.531 57.5535C179.594 57.4084 179.628 57.2521 179.631 57.0937C179.634 56.9353 179.606 56.7779 179.548 56.6304C179.491 56.4829 179.404 56.3482 179.294 56.2341C179.185 56.1199 179.053 56.0286 178.908 55.9651Z" fill="black"/>
<path d="M178.461 56.9848L171.617 53.995C171.324 53.8669 170.992 53.8606 170.694 53.9773C170.396 54.0941 170.157 54.3244 170.029 54.6176L161.747 73.5754C161.59 73.9335 161.583 74.3391 161.725 74.7029C161.868 75.0668 162.149 75.3591 162.507 75.5155L168.862 78.2914C169.22 78.4478 169.625 78.4556 169.989 78.313C170.353 78.1704 170.645 77.8891 170.802 77.531L179.083 58.5732C179.212 58.28 179.218 57.9479 179.101 57.6501C178.984 57.3522 178.754 57.1129 178.461 56.9848Z" fill="#2F2E41"/>
<path d="M172.165 65.0716C171.054 64.5861 170.552 63.2795 171.044 62.1532C171.536 61.0268 172.835 60.5073 173.947 60.9928C175.058 61.4783 175.56 62.7849 175.068 63.9112C174.576 65.0375 173.276 65.557 172.165 65.0716Z" fill="#F2F2F2"/>
<path d="M143.59 89.0024C143.59 89.0024 156.872 80.0051 157.301 77.006C157.729 74.0069 170.039 60.5066 173.581 68.8656C176.924 76.7546 163.4 83.5169 163.4 83.5169C163.4 83.5169 153.873 100.999 147.446 100.57C141.02 100.142 141.02 92.0015 143.59 89.0024Z" fill="#9F616A"/>
<path d="M135.881 185.402L134.596 193.114L141.451 191.4V185.402H135.881Z" fill="#9F616A"/>
<path d="M137.165 189.686C137.165 189.686 145.088 184.992 145.41 187.125C145.733 189.258 149.161 197.398 150.875 198.255C152.588 199.112 154.731 208.538 150.875 208.109C147.888 207.778 136.934 202.049 132.146 199.482C131.557 199.164 131.112 198.633 130.903 197.997C130.693 197.361 130.736 196.668 131.021 196.063C131.302 195.543 131.496 194.981 131.595 194.399C131.595 193.542 137.165 189.686 137.165 189.686Z" fill="#2F2E41"/>
<path d="M133.31 102.713C133.31 102.713 164.586 117.28 161.587 128.419C158.588 139.559 147.449 186.687 147.449 186.687C147.449 186.687 135.024 189.686 134.167 186.687C133.31 183.688 142.307 136.988 141.451 135.274C140.594 133.56 124.741 122.421 124.741 122.421L92.1797 108.711L105.89 95.8575L133.31 102.713Z" fill="#2F2E41"/>
<path d="M156.873 187.973L160.73 197.827L153.874 200.826L149.59 193.114L156.873 187.973Z" fill="#9F616A"/>
<path d="M133.737 32.4478C133.737 32.4478 129.881 37.5891 132.88 40.1598C135.879 42.7305 133.737 52.1562 133.737 52.1562L129.881 62.8673L114.457 59.8682V42.3021L115.314 33.7332C115.314 33.7332 123.026 26.4497 123.883 20.8799C124.74 15.3102 133.737 32.4478 133.737 32.4478Z" fill="#9F616A"/>
<path d="M108.033 99.285C108.033 99.285 128.17 121.564 128.17 122.421C128.17 123.278 138.881 140.844 138.881 140.844L159.875 187.544C159.875 187.544 151.734 198.684 148.307 197.827C144.879 196.97 120.458 147.271 120.458 147.271C120.458 147.271 116.174 136.131 104.606 133.56C93.0377 130.99 84.0404 121.993 88.3248 111.71C92.6092 101.427 108.033 99.285 108.033 99.285Z" fill="#2F2E41"/>
<path d="M133.738 35.447C141.309 35.447 147.448 29.3088 147.448 21.7369C147.448 14.1649 141.309 8.02667 133.738 8.02667C126.166 8.02667 120.027 14.1649 120.027 21.7369C120.027 29.3088 126.166 35.447 133.738 35.447Z" fill="#9F616A"/>
<path d="M133.309 44.0158C133.309 44.0158 131.595 53.87 129.881 54.7269C128.168 55.5838 126.882 58.5829 123.026 54.2985C119.17 50.014 115.743 41.4452 115.743 41.4452L102.461 57.726L101.176 102.712C101.176 102.712 116.171 98.8565 120.884 102.712C125.597 106.568 135.88 106.14 135.88 106.14L133.737 97.5712L135.451 83.0042L135.023 69.7224L134.594 60.2967L133.309 44.0158Z" fill="#6C63FF"/>
<path d="M131.803 36.8043C131.803 36.8043 137.597 39.7314 138.025 41.4451C138.453 43.1589 146.165 46.5865 146.165 46.5865C146.165 46.5865 149.165 49.5855 149.165 51.2993C149.165 53.0131 138.882 72.7215 138.882 72.7215C138.882 72.7215 136.74 86.0032 137.597 88.5739C138.453 91.1445 135.883 100.999 135.883 100.999L141.024 106.997H136.311C136.311 106.997 131.17 104.426 131.17 103.141C131.17 101.856 132.027 92.8583 132.455 89.0023C132.884 85.1463 132.884 71.4361 132.027 66.7232C131.17 62.0104 131.598 49.5855 131.598 46.5864C131.598 43.5873 131.803 36.8043 131.803 36.8043Z" fill="#3F3D56"/>
<path d="M118.528 30.2987C118.528 30.2987 116.6 30.7342 111.03 32.448C105.46 34.1618 96.8914 36.7324 93.8923 40.16C91.7872 42.6948 89.9226 45.42 88.3226 48.3004L90.0363 79.1483C90.0363 79.1483 86.6088 85.5749 87.0373 89.0025C87.4657 92.43 90.8932 92.8585 88.3226 100.142C85.7519 107.426 80.6106 113.852 85.3235 114.709C90.0364 115.566 102.461 112.567 108.031 114.281C113.601 115.994 120.027 107.854 120.027 107.854C120.027 107.854 111.459 108.711 112.744 105.283C114.029 101.856 128.168 63.2959 125.169 54.727C122.17 46.1582 118.528 30.2987 118.528 30.2987Z" fill="#3F3D56"/>
<path d="M147.016 49.1572L149.159 50.871C149.159 50.871 155.157 72.2931 153.443 74.4354C151.729 76.5776 138.019 81.2904 137.162 78.2913C136.305 75.2922 147.016 49.1572 147.016 49.1572Z" fill="#3F3D56"/>
<path d="M83.6102 64.1527C83.6102 64.1527 77.1836 82.5758 77.1836 87.7171C77.1836 92.8584 78.0405 122.849 78.0405 122.849C78.0405 122.849 82.3249 140.851 91.3222 135.71C100.32 130.569 87.4662 121.992 87.4662 121.992C87.4662 121.992 87.8947 88.1455 91.3222 83.4326C94.7498 78.7198 96.0351 71.8647 96.0351 71.8647L83.6102 64.1527Z" fill="#9F616A"/>
<path d="M153.873 197.398C153.873 197.398 160.3 193.971 161.585 196.542C162.871 199.112 169.726 213.251 168.869 214.965C168.012 216.678 163.299 223.533 157.729 221.82C152.16 220.106 151.731 211.109 151.731 211.109L151.303 200.826L153.873 197.398Z" fill="#2F2E41"/>
<path d="M136.424 18.4251C135.479 18.8697 134.359 19.1353 133.765 19.994C133.326 20.6303 133.282 21.4571 132.961 22.1609C132.611 22.8577 132.008 23.3948 131.276 23.6626C130.543 23.9305 129.736 23.909 129.019 23.6025C128.844 22.749 128.348 21.9954 127.633 21.4972C127.272 21.2598 126.844 21.1444 126.413 21.1681C125.981 21.1918 125.569 21.3533 125.236 21.6288C124.353 22.4708 124.665 23.9389 124.253 25.0873C123.866 25.8952 123.334 26.625 122.683 27.2402C121.745 28.3222 120.998 29.5911 119.869 30.4713C118.74 31.3515 117.027 31.733 115.905 30.8434C114.962 30.0954 114.766 28.7154 114.995 27.5335C115.224 26.3515 115.793 25.2631 116.113 24.1025C117.154 20.3315 115.494 16.3055 116.008 12.4273C116.666 7.45788 120.89 3.53258 125.604 1.82906C127.566 1.03015 129.714 0.802585 131.8 1.17265C133.956 1.65407 135.797 3.02669 137.862 3.81173C140.071 4.65124 142.472 4.79783 144.783 5.28861C147.093 5.7794 149.471 6.72832 150.812 8.67323C151.748 10.0298 152.069 11.7144 152.844 13.1684C153.737 14.8281 155.182 16.1229 156.929 16.8281L154.486 16.6889C154.896 17.7793 155.564 18.754 156.433 19.5296C155.287 19.7632 154.097 19.6058 153.051 19.0826C153.07 19.5847 153.192 20.0776 153.409 20.5308C153.625 20.984 153.933 21.388 154.312 21.7178C152.432 21.6612 150.45 21.5745 148.862 20.5676C148.084 20.0744 147.449 19.3875 146.717 18.8285C145.157 17.6369 143.221 17.0712 141.333 16.5296C140.342 16.2452 139.149 15.8497 138.253 16.487C137.507 17.0178 137.389 17.9708 136.424 18.4251Z" fill="#2F2E41"/>
<path d="M94.7514 43.1589L88.3247 48.3002L79.7559 68.0086C79.7559 68.0086 91.7523 77.4344 94.7514 76.1491C97.7505 74.8637 102.892 52.1563 102.892 52.1563L94.7514 43.1589Z" fill="#3F3D56"/>
<path d="M193.399 116.685C205.462 116.685 215.241 106.905 215.241 94.8423C215.241 82.7791 205.462 73 193.399 73C181.336 73 171.557 82.7791 171.557 94.8423C171.557 106.905 181.336 116.685 193.399 116.685Z" fill="#3F3D56"/>
<path opacity="0.1" d="M193.392 113.627C203.766 113.627 212.176 105.217 212.176 94.8423C212.176 84.468 203.766 76.058 193.392 76.058C183.017 76.058 174.607 84.468 174.607 94.8423C174.607 105.217 183.017 113.627 193.392 113.627Z" fill="black"/>
<path d="M204.309 96.3083H201.059V92.7288H204.309C204.797 92.7288 205.193 92.2756 205.193 91.7159C205.193 91.1561 204.797 90.7026 204.309 90.7026H201.059V85.7359C201.059 85.0109 200.934 84.4787 200.687 84.1546C200.453 83.8462 200.145 83.7027 199.719 83.7027C199.312 83.7027 199.015 83.8452 198.786 84.1517C198.542 84.4761 198.418 85.0093 198.418 85.7362V90.7032H192.305L189.706 86.1956C189.483 85.7933 189.274 85.4165 189.071 85.0547C188.888 84.729 188.71 84.4638 188.541 84.2657C188.392 84.0904 188.222 83.9547 188.023 83.8504C187.836 83.7523 187.597 83.703 187.315 83.703C186.955 83.703 186.629 83.816 186.316 84.0481C186.006 84.2777 185.792 84.5616 185.662 84.916C185.547 85.2528 185.486 85.7689 185.486 86.4351V90.7029H182.269C181.78 90.7029 181.385 91.1564 181.385 91.7162C181.385 92.2759 181.78 92.7291 182.269 92.7291H185.486V96.309H182.269C181.78 96.309 181.385 96.7623 181.385 97.3222C181.385 97.8818 181.78 98.3348 182.269 98.3348H185.486V104.006C185.486 104.709 185.615 105.236 185.871 105.571C186.114 105.89 186.422 106.038 186.84 106.038C187.244 106.038 187.55 105.889 187.803 105.569C188.063 105.242 188.194 104.715 188.194 104.006V98.3348H193.726L196.72 103.595C196.928 103.943 197.143 104.294 197.357 104.638C197.55 104.947 197.761 105.22 197.984 105.447C198.184 105.653 198.399 105.804 198.623 105.896C198.853 105.99 199.122 106.039 199.42 106.039C200.229 106.039 201.059 105.755 201.059 103.648V98.3348H204.309C204.797 98.3348 205.193 97.8812 205.193 97.3216C205.193 96.762 204.797 96.3083 204.309 96.3083ZM198.418 92.7288V96.3083H195.538L193.474 92.7288H198.418ZM188.194 88.6158L189.382 90.7026H188.194V88.6158ZM188.194 96.3083V92.7288H190.535L192.573 96.3083H188.194ZM198.418 101.304L196.707 98.3348H198.418V101.304Z" fill="#FCFCFC"/>
</g>
<defs>
<clipPath id="clip0">
<rect width="240" height="240" fill="white"/>
</clipPath>
</defs>
</svg>
