<svg width="240" height="240" viewBox="0 0 240 240" fill="none" xmlns="http://www.w3.org/2000/svg">
<path d="M142.505 59.3072L142.493 59.3891L142.459 59.6258L139.011 84.3684L117.899 92.1148L117.568 91.9566L105.748 86.343L99.6356 62.8917L99.2168 61.2818L99.3443 61.2329L125.493 51.4089L142.489 59.2978L142.505 59.3072Z" fill="#6C63FF"/>
<path d="M117.568 91.9567L105.748 86.3431L99.2168 61.2819L99.3443 61.233L116.38 68.4203L117.568 91.9567Z" fill="#6C63FF"/>
<path opacity="0.2" d="M117.865 91.6706L108.874 74.4405L110.029 69.5558L104.59 63.1516L104.127 63.545L109.366 69.7148L105.453 86.273L106.044 86.4132L108.66 75.3445L117.326 91.9515L117.865 91.6706Z" fill="black"/>
<path d="M142.505 59.6108L142.459 59.6258L116.38 68.7242L99.6356 62.8917L99.2168 61.2818L99.3443 61.2329L125.493 51.4089L142.489 59.2978L142.493 59.3891L142.505 59.6108Z" fill="#3F3D56"/>
<path d="M116.834 69.1797L111.518 65.079L112.733 60.5223L127.921 55.0541L138.25 55.6616L142.351 59.1553L142.655 60.0663L116.834 69.1797Z" fill="#6C63FF"/>
<path d="M99.5195 61.282L111.519 60.826L118.019 58.6199L128.153 55.0542L130.049 52.3206L125.32 51.474L99.5195 61.282Z" fill="#6C63FF"/>
<path d="M123.426 56.3935L117.17 58.5891L117.371 59.1623L123.628 56.9667L123.426 56.3935Z" fill="#CCCCCC"/>
<path d="M41.0172 20.8678L38.084 35.5327L51.7715 45.7986L58.1268 26.7337L41.0172 20.8678Z" fill="#9F616A"/>
<path d="M52.0151 34.3109C59.3046 34.3109 65.2139 28.4016 65.2139 21.1122C65.2139 13.8227 59.3046 7.91345 52.0151 7.91345C44.7257 7.91345 38.8164 13.8227 38.8164 21.1122C38.8164 28.4016 44.7257 34.3109 52.0151 34.3109Z" fill="#9F616A"/>
<path d="M23.4199 121.117C23.4803 125.375 42.0265 172.767 39.4515 178.938C35.3923 183.088 26.6611 205.172 22.9308 211.064C22.4423 211.064 19.998 218.396 19.998 218.396C19.998 218.396 25.8642 227.684 32.2191 223.773C40.2098 204.98 60.2218 194.498 60.5754 170.003C61.5413 177.74 64.3926 227.409 64.3926 227.409C64.3926 227.409 63.8457 227.641 76.1573 228.821C78.0687 199.994 85.8798 150.95 68.3927 120.139C63.0161 117.695 23.4199 121.117 23.4199 121.117Z" fill="#2F2E41"/>
<path d="M64.3929 226.442C63.8214 227.541 59.7229 237.686 63.4525 238.703C67.7537 239.876 71.9231 238.232 71.9231 238.232C71.9231 238.232 79.4525 240.585 84.0605 237.595C86.2111 235.444 85.7223 233.489 84.6959 232.072C84.1744 231.374 83.5068 230.798 82.7396 230.384C81.9724 229.971 81.1242 229.729 80.2542 229.678C77.9158 229.511 77.1732 229.078 76.9054 228.006C76.5144 226.442 64.3929 226.442 64.3929 226.442Z" fill="#2F2E41"/>
<path d="M24.169 217.583C24.169 217.583 13.6624 220.901 15.8743 224.772C17.3108 227.171 19.4084 229.105 21.9158 230.343C21.9158 230.343 24.1071 239.377 30.1898 239.377C33.2312 239.377 34.268 237.649 34.5445 235.921C34.6696 235.058 34.6048 234.179 34.3547 233.344C34.1046 232.509 33.6753 231.739 33.0967 231.087C31.5612 229.316 31.3425 228.484 31.9107 227.537C32.7402 226.155 24.169 217.583 24.169 217.583Z" fill="#2F2E41"/>
<path d="M70.8392 122.548C70.8392 122.548 68.8816 126.458 61.0604 124.99C53.2392 123.527 22.4439 124.99 22.4439 124.99C22.4439 124.99 24.1522 90.0396 20.2416 69.0184C16.331 47.9973 31.7287 36.0208 31.7287 36.0208L36.6181 31.1314C41.5075 30.6467 51.8322 45.8184 51.8322 45.8184C55.2298 46.3878 58.4016 60.8302 61.1075 74.4961C61.2675 75.2773 61.4181 76.049 61.5687 76.8208C62.8157 83.1925 64.5522 90.2843 65.5922 96.6514C65.6675 97.1031 65.7381 97.5502 65.804 97.9973C67.0402 106.265 68.7211 114.461 70.8392 122.548Z" fill="#E6E6E6"/>
<path d="M36.5753 12.8938C36.5753 12.8938 34.1076 7.46483 40.5237 4.99711C40.5237 4.99711 45.9526 -3.88665 56.8105 2.03587C56.8105 2.03587 64.2137 4.99711 64.2137 12.8938C64.2137 20.7905 66.6814 22.2711 66.6814 22.2711C66.6814 22.2711 63.0065 18.501 62.0195 15.5398C61.0324 12.5785 53.3558 11.9067 50.3945 14.868C47.4333 17.8292 40.0301 17.3357 40.0301 17.3357L40.5237 28.1936C40.5237 28.1936 38.056 21.7775 37.0689 21.7775C36.0818 21.7775 35.0947 12.8938 36.5753 12.8938Z" fill="#2F2E41"/>
<path opacity="0.2" d="M65.5937 96.6513C53.9326 90.3125 35.0431 76.4113 28.949 68.8913C20.9161 58.9854 29.6784 51.456 29.6784 51.456C39.6126 45.1878 51.4902 66.6937 51.4902 66.6937L61.109 74.496C61.269 75.2772 61.4196 76.049 61.5702 76.8207C62.8173 83.1925 64.5537 90.2843 65.5937 96.6513Z" fill="black"/>
<path d="M100.402 89.3465C100.402 89.3465 117.739 96.3844 120.592 88.4729C123.446 80.5613 106.905 80.6971 106.905 80.6971L100.411 81.6172L100.402 89.3465Z" fill="#9F616A"/>
<path d="M27.4544 48.2366C27.4544 48.2366 18.6963 55.7704 26.7235 65.673C34.7507 75.5756 71.6416 96.7339 71.6416 96.7339L95.6715 90.2377L102.472 91.4822L103.754 78.7149L93.7358 79.6928L68.3046 74.2779L52.0881 61.1197C52.0881 61.1197 37.3859 41.9718 27.4544 48.2366Z" fill="#E6E6E6"/>
<path opacity="0.2" d="M59.3627 138.994L60.8949 174.797L57.0098 138.994H59.3627Z" fill="black"/>
<path d="M170.603 113.383L156.694 116.606C155.617 116.855 154.487 116.675 153.541 116.104C152.596 115.533 151.91 114.616 151.631 113.547C151.468 112.927 151.448 112.279 151.572 111.651C151.696 111.022 151.961 110.43 152.346 109.918C152.732 109.407 153.228 108.989 153.798 108.697C154.368 108.404 154.997 108.245 155.637 108.23L169.073 107.917L170.603 113.383Z" fill="#FFB9B9"/>
<path d="M169.124 115.424L166.035 106.156L184.555 99.8305L179.64 56.5431C188.49 58.1522 192.702 65.1114 192.307 74.0978L194.703 103.636L169.124 115.424Z" fill="#3F3D56"/>
<path d="M181.924 46.9994H212.182V31.9521C212.192 27.8882 210.6 23.9841 207.75 21.0869C206.358 19.6596 204.694 18.5259 202.857 17.7527C201.019 16.9795 199.045 16.5826 197.052 16.5855C193.07 16.5928 189.252 18.1668 186.422 20.9671C183.592 23.7675 181.978 27.5692 181.928 31.5502C181.926 31.688 181.924 31.8189 181.924 31.9521L181.924 46.9994Z" fill="#2F2E41"/>
<path d="M224.831 223.826L215.159 222.716L203.584 144.545L179.641 223.033L169.176 223.35L181.068 126.786L179.324 104.746L208.975 95.3907C229.976 110.051 229.541 161.832 224.831 223.826Z" fill="#2F2E41"/>
<path d="M194.387 44.0167C200.692 44.0167 205.804 38.9054 205.804 32.6002C205.804 26.2951 200.692 21.1838 194.387 21.1838C188.082 21.1838 182.971 26.2951 182.971 32.6002C182.971 38.9054 188.082 44.0167 194.387 44.0167Z" fill="#FFB9B9"/>
<path d="M205.804 53.2133L186.459 58.2872C189.718 52.0194 190.761 46.1684 188.996 40.8454L202.632 38.6255C201.756 43.7154 202.893 48.9466 205.804 53.2133Z" fill="#FFB9B9"/>
<path d="M212.302 99.6719C201.452 106.572 188.813 114.499 179.48 106.807L175.04 85.2428C171.511 82.0998 173.076 72.4013 177.846 58.5772C178.149 57.6997 178.648 56.9027 179.305 56.2467C179.962 55.5906 180.759 55.0927 181.637 54.7906L188.993 52.2619C192.253 55.0036 197.598 53.3684 203.898 49.7249L211.192 51.6277L214.363 75.412C209.785 82.2707 210.585 91.4032 212.302 99.6719Z" fill="#3F3D56"/>
<path d="M203.265 108.943L189.356 112.166C188.28 112.415 187.149 112.235 186.203 111.664C185.258 111.093 184.573 110.176 184.293 109.107C184.13 108.488 184.111 107.839 184.235 107.211C184.359 106.582 184.623 105.99 185.009 105.479C185.394 104.967 185.89 104.549 186.46 104.257C187.03 103.964 187.659 103.805 188.299 103.79L201.735 103.477L203.265 108.943Z" fill="#FFB9B9"/>
<path d="M223.151 238.771C221.527 239.513 220.166 234.918 218.796 236.264C214.963 240.031 205.768 239.186 205.768 239.186C205.459 239.087 205.174 238.926 204.929 238.714C204.685 238.501 204.486 238.241 204.345 237.949C204.203 237.657 204.123 237.339 204.108 237.015C204.093 236.691 204.144 236.368 204.258 236.064C204.394 235.701 204.617 235.376 204.906 235.118C205.196 234.859 205.544 234.675 205.92 234.581L209.996 233.562L216.397 222.306L223.372 221.424L223.548 221.712C224.896 223.885 225.766 226.321 226.098 228.857C226.431 231.393 226.218 233.97 225.475 236.418C224.895 238.276 224.106 238.336 223.151 238.771Z" fill="#2F2E41"/>
<path d="M177.165 238.771C175.54 239.513 174.18 234.918 172.809 236.264C168.977 240.031 159.782 239.186 159.782 239.186C159.473 239.087 159.188 238.926 158.943 238.714C158.698 238.501 158.499 238.241 158.358 237.949C158.217 237.657 158.137 237.339 158.122 237.015C158.107 236.691 158.158 236.368 158.272 236.064C158.408 235.701 158.63 235.376 158.92 235.118C159.21 234.859 159.557 234.675 159.934 234.581L164.01 233.562L170.41 222.306L177.386 221.424L177.562 221.712C178.91 223.885 179.78 226.321 180.112 228.857C180.444 231.393 180.232 233.97 179.489 236.418C178.909 238.276 178.119 238.336 177.165 238.771Z" fill="#2F2E41"/>
<path d="M207.77 23.078L204.895 32.226L180.035 31.7842C180.12 28.5835 181.203 25.4893 183.132 22.9338C185.061 20.3783 187.74 18.4891 190.794 17.5302C193.849 16.5712 197.127 16.5904 200.171 17.585C203.214 18.5797 205.871 20.5001 207.77 23.078H207.77Z" fill="#2F2E41"/>
<path d="M201.79 110.984L198.701 101.717L217.221 95.3907L210.216 51.1653C214.495 51.9434 218.348 54.2453 221.061 57.6452C223.774 61.045 225.164 65.3126 224.973 69.6581L227.369 99.1962L201.79 110.984Z" fill="#3F3D56"/>
</svg>
