<svg width="24" height="24" viewBox="0 0 24 24" fill="none" xmlns="http://www.w3.org/2000/svg">
<path d="M18.0909 5.45455H17.3636V4.72727C17.3636 4.32727 17.0364 4 16.6364 4C16.2364 4 15.9091 4.32727 15.9091 4.72727V5.45455H8.63636V4.72727C8.63636 4.32727 8.30909 4 7.90909 4C7.50909 4 7.18182 4.32727 7.18182 4.72727V5.45455H6.45455C5.65455 5.45455 5 6.10909 5 6.90909V18.5455C5 19.3455 5.65455 20 6.45455 20H18.0909C18.8909 20 19.5455 19.3455 19.5455 18.5455V6.90909C19.5455 6.10909 18.8909 5.45455 18.0909 5.45455ZM17.3636 18.5455H7.18182C6.78182 18.5455 6.45455 18.2182 6.45455 17.8182V9.09091H18.0909V17.8182C18.0909 18.2182 17.7636 18.5455 17.3636 18.5455Z" fill="#B0A8B6"/>
</svg>
