<svg width="72" height="68" viewBox="0 0 72 68" fill="none" xmlns="http://www.w3.org/2000/svg">
<g clip-path="url(#clip0)">
<path d="M71.7146 28.2861V29.9935C71.7146 39.5537 55.66 47.3032 35.8569 47.3032C24.9258 47.3032 15.1435 44.9393 8.56641 41.2156C10.7841 49.8284 25.8554 56.9572 44.1318 56.9572C63.9349 56.9572 79.9895 48.5885 79.9895 39.0283C79.9895 34.8247 76.8782 31.1203 71.7146 28.2861Z" fill="#FCC62D"/>
<path d="M44.1331 56.9572C24.33 56.9572 8.27539 48.5885 8.27539 39.0283V50.6793C8.27539 60.2396 24.33 67.9903 44.1331 67.9903C63.9363 67.9903 79.9909 60.2396 79.9909 50.6793V39.0283C79.9909 48.5885 63.9363 56.9572 44.1331 56.9572Z" fill="#E4AF18"/>
<path d="M12.4141 58.8187C13.2278 59.562 14.1504 60.2737 15.1724 60.9494V49.515C14.1504 48.8116 13.2278 48.0738 12.4141 47.3042V58.8187Z" fill="#CE9912"/>
<path d="M17.9297 62.5561C18.8013 63.0071 19.7226 63.4333 20.688 63.8373V52.538C19.7226 52.1133 18.8013 51.665 17.9297 51.1934V62.5561Z" fill="#CE9912"/>
<path d="M67.5801 63.8369C68.5455 63.4342 69.4667 63.0066 70.3384 62.5556V51.1929C69.4667 51.6645 68.5455 52.1141 67.5801 52.5375V63.8369Z" fill="#CE9912"/>
<path d="M23.4512 64.8806C24.3421 65.1853 25.262 65.4695 26.2095 65.7342V54.5439C25.262 54.2625 24.3421 53.9605 23.4512 53.6392V64.8806Z" fill="#CE9912"/>
<path d="M62.0625 65.7342C63.01 65.4695 63.9299 65.1853 64.8208 64.8806V53.6392C63.9299 53.9605 63.01 54.2625 62.0625 54.5439V65.7342Z" fill="#CE9912"/>
<path d="M30.3438 66.727C31.2443 66.9091 32.1656 67.0718 33.102 67.2166V56.1228C32.1656 55.967 31.2443 55.7932 30.3438 55.6001V66.727Z" fill="#CE9912"/>
<path d="M55.1699 67.2161C56.1064 67.0699 57.0276 66.9071 57.9282 66.7265V55.5981C57.0276 55.7912 56.1064 55.965 55.1699 56.1222V67.2161Z" fill="#CE9912"/>
<path d="M38.6172 67.8515C39.5247 67.9191 40.4459 67.966 41.3755 67.9991V56.9618C40.4459 56.926 39.5247 56.8763 38.6172 56.8032V67.8515Z" fill="#CE9912"/>
<path d="M46.8945 68.0005C47.8241 67.966 48.7453 67.9205 49.6528 67.8529V56.8032C48.7453 56.8763 47.8241 56.926 46.8945 56.9632V68.0005Z" fill="#CE9912"/>
<path d="M35.8597 36.2604C16.0566 36.2604 0.00195312 27.8918 0.00195312 18.3315V29.9825C0.00195312 39.5428 16.0566 47.2936 35.8597 47.2936C55.6628 47.2936 71.7174 39.5428 71.7174 29.9825V18.3315C71.7174 27.8918 55.6628 36.2604 35.8597 36.2604Z" fill="#E4AF18"/>
<path d="M4.14062 38.121C4.95432 38.8644 5.87697 39.576 6.89891 40.2518V28.8173C5.87697 28.1139 4.95432 27.3761 4.14062 26.6079V38.121Z" fill="#CE9912"/>
<path d="M64.8242 28.8172V40.2517C65.8462 39.5773 66.7688 38.8643 67.5825 38.1209V26.6064C66.7702 27.376 65.8475 28.1139 64.8242 28.8172Z" fill="#CE9912"/>
<path d="M9.65234 41.8598C10.524 42.3108 11.4452 42.737 12.4106 43.1411V31.8417C11.4452 31.417 10.524 30.9687 9.65234 30.4971V41.8598Z" fill="#CE9912"/>
<path d="M59.3066 43.1391C60.272 42.7364 61.1933 42.3102 62.0649 41.8579V30.4951C61.1933 30.9668 60.272 31.4164 59.3066 31.8398V43.1391Z" fill="#CE9912"/>
<path d="M15.1758 44.1833C16.0667 44.4881 16.9866 44.7722 17.9341 45.037V33.8466C16.9866 33.5653 16.0667 33.2632 15.1758 32.9419V44.1833Z" fill="#CE9912"/>
<path d="M53.7891 45.037C54.7365 44.7722 55.6564 44.4881 56.5474 44.1833V32.9419C55.6564 33.2632 54.7365 33.5653 53.7891 33.8466V45.037Z" fill="#CE9912"/>
<path d="M22.0703 46.0307C22.9709 46.2128 23.8922 46.3755 24.8286 46.5203V35.4265C23.8922 35.2707 22.9709 35.0969 22.0703 34.9038V46.0307Z" fill="#CE9912"/>
<path d="M46.8945 46.5217C47.831 46.3755 48.7522 46.2128 49.6528 46.0321V34.9038C48.7522 35.0969 47.831 35.2707 46.8945 35.4279V46.5217Z" fill="#CE9912"/>
<path d="M30.3438 47.1557C31.2512 47.2233 32.1725 47.2702 33.102 47.3033V36.266C32.1725 36.2302 31.2512 36.1805 30.3438 36.1074V47.1557Z" fill="#CE9912"/>
<path d="M38.6172 47.3032C39.5467 47.2687 40.468 47.2232 41.3755 47.1557V36.106C40.468 36.1791 39.5467 36.2287 38.6172 36.2659V47.3032Z" fill="#CE9912"/>
<path d="M70.7722 33.9282C67.0803 41.5907 52.8558 47.3032 35.8565 47.3032C29.5069 47.3032 23.5462 46.5033 18.373 45.1062C23.3766 48.503 32.2817 51.3937 44.1313 51.3937C63.0008 51.3937 74.4725 44.0691 74.4725 39.0283C74.4725 37.3457 73.1775 35.5611 70.7722 33.9282Z" fill="#FFD949"/>
<path d="M42.7554 33.5112C22.9523 33.5112 6.89767 25.7604 6.89767 16.2002V8.40527C2.56578 11.1208 0.00195312 14.5259 0.00195312 18.3406C0.00195312 27.9009 16.0566 36.2695 35.8597 36.2695C45.3951 36.2695 54.0534 34.3263 60.476 31.2467C55.2477 32.6851 49.2029 33.5112 42.7554 33.5112Z" fill="#FFD949"/>
<path d="M42.7562 22.4694C22.9531 22.4694 6.89844 14.1008 6.89844 4.54053V16.1915C6.89844 25.7518 22.9531 33.5025 42.7562 33.5025C62.5593 33.5025 78.6139 25.7518 78.6139 16.1915V4.54053C78.6139 14.1008 62.5593 22.4694 42.7562 22.4694Z" fill="#E4AF18"/>
<path d="M11.0293 24.33C11.843 25.0733 12.7656 25.785 13.7876 26.4608V15.0263C12.7656 14.3229 11.843 13.5851 11.0293 12.8169V24.33Z" fill="#CE9912"/>
<path d="M71.7188 15.0252V26.4597C72.7407 25.7853 73.6633 25.0723 74.477 24.3289V12.8145C73.6647 13.584 72.7421 14.3219 71.7188 15.0252Z" fill="#CE9912"/>
<path d="M16.5527 28.0683C17.4244 28.5193 18.3456 28.9455 19.311 29.3496V18.0502C18.3456 17.6255 17.4244 17.1772 16.5527 16.7056V28.0683Z" fill="#CE9912"/>
<path d="M66.2012 29.3476C67.1666 28.9449 68.0878 28.5187 68.9595 28.0664V16.7036C68.0878 17.1753 67.1666 17.6249 66.2012 18.0483V29.3476Z" fill="#CE9912"/>
<path d="M22.0703 30.3918C22.9612 30.6966 23.8811 30.9807 24.8286 31.2455V20.0551C23.8811 19.7738 22.9612 19.4717 22.0703 19.1504V30.3918Z" fill="#CE9912"/>
<path d="M60.6855 31.2455C61.633 30.9807 62.5529 30.6966 63.4438 30.3918V19.1504C62.5529 19.4717 61.633 19.7738 60.6855 20.0551V31.2455Z" fill="#CE9912"/>
<path d="M28.9648 32.2392C29.8654 32.4213 30.7867 32.584 31.7231 32.7288V21.635C30.7867 21.4792 29.8654 21.3054 28.9648 21.1123V32.2392Z" fill="#CE9912"/>
<path d="M53.7891 32.7302C54.7255 32.584 55.6468 32.4213 56.5474 32.2406V21.1123C55.6468 21.3054 54.7255 21.4792 53.7891 21.6364V32.7302Z" fill="#CE9912"/>
<path d="M37.2402 33.3642C38.1477 33.4318 39.069 33.4787 39.9985 33.5118V22.4745C39.069 22.4387 38.1477 22.389 37.2402 22.3159V33.3642Z" fill="#CE9912"/>
<path d="M45.5117 33.5117C46.4413 33.4772 47.3625 33.4317 48.27 33.3642V22.3145C47.3625 22.3875 46.4413 22.4372 45.5117 22.4744V33.5117Z" fill="#CE9912"/>
<path d="M78.6139 4.54973C78.6139 14.11 62.5593 22.4786 42.7562 22.4786C22.9531 22.4786 6.89844 14.11 6.89844 4.54973C6.89844 -5.0105 22.9531 -12 42.7562 -12C62.5593 -12 78.6139 -5.0105 78.6139 4.54973Z" fill="#FCC62D"/>
<path d="M42.7552 16.9154C23.8858 16.9154 12.4141 9.59214 12.4141 4.54999C12.4141 -0.490781 23.8858 -7.8623 42.7552 -7.8623C61.6247 -7.8623 73.0964 -0.490781 73.0964 4.54999C73.0964 9.59214 61.6247 16.9154 42.7552 16.9154Z" fill="#FFD949"/>
<path d="M69.9961 -5.11035L41.1978 11.6519L39.5932 4.54431L28.658 8.98419L24.7188 10.5785L13.9961 13.9806L28.658 6.17671L47.5628 -4.01785L49.0609 3.05165L54.1103 1.08896L57.6083 -0.283019L69.9961 -5.11035Z" fill="#F7B044"/>
<path d="M10.5241 4.54852C10.5241 6.51394 11.6169 8.36774 13.1528 9.93193C14.7219 11.53 16.9499 13.0354 19.7034 14.332C25.2214 16.9302 33.0894 18.8039 42.7552 18.8039C52.4211 18.8039 60.289 16.9302 65.807 14.332C68.5606 13.0354 70.7886 11.53 72.3577 9.93193C73.8935 8.36774 74.9864 6.51394 74.9864 4.54852C74.9864 2.58445 73.8945 0.728377 72.3597 -0.839533C70.7914 -2.44181 68.5639 -3.95339 65.8102 -5.25633C60.2919 -7.86733 52.4229 -9.75377 42.7552 -9.75377C33.0876 -9.75377 25.2186 -7.86733 19.7003 -5.25633C16.9465 -3.95339 14.7191 -2.44181 13.1507 -0.839533C11.616 0.728377 10.5241 2.58445 10.5241 4.54852Z" stroke="#FCC62D" stroke-width="3.78"/>
</g>
<defs>
<clipPath id="clip0">
<rect width="80" height="80" fill="white" transform="translate(0 -12)"/>
</clipPath>
</defs>
</svg>
