<svg width="40" height="40" viewBox="0 0 40 40" fill="none" xmlns="http://www.w3.org/2000/svg">
<g clip-path="url(#clip0)">
<path d="M35.8593 20.1431V20.9968C35.8593 25.7769 27.832 29.6516 17.9304 29.6516C12.4649 29.6516 7.57372 28.4696 4.28516 26.6078C5.39399 30.9142 12.9296 34.4786 22.0678 34.4786C31.9694 34.4786 39.9967 30.2943 39.9967 25.5141C39.9967 23.4123 38.441 21.5601 35.8593 20.1431Z" fill="#FCC62D"/>
<path d="M22.0675 34.4786C12.166 34.4786 4.13867 30.2943 4.13867 25.5142V31.3397C4.13867 36.1198 12.166 39.9952 22.0675 39.9952C31.9691 39.9952 39.9964 36.1198 39.9964 31.3397V25.5142C39.9964 30.2943 31.9691 34.4786 22.0675 34.4786Z" fill="#E4AF18"/>
<path d="M6.20703 35.4088C6.61388 35.7805 7.0752 36.1363 7.58618 36.4742V30.757C7.0752 30.4053 6.61388 30.0364 6.20703 29.6516V35.4088Z" fill="#CE9912"/>
<path d="M36.5508 30.757V36.4742C37.0618 36.137 37.5231 35.7805 37.9299 35.4088V29.6516C37.5238 30.0364 37.0624 30.4053 36.5508 30.757Z" fill="#CE9912"/>
<path d="M8.96484 37.2783C9.40065 37.5038 9.86129 37.7169 10.344 37.9189V32.2693C9.86129 32.0569 9.40065 31.8328 8.96484 31.5969V37.2783Z" fill="#CE9912"/>
<path d="M33.791 37.9182C34.2737 37.7168 34.7344 37.5031 35.1702 37.2776V31.5962C34.7344 31.832 34.2737 32.0568 33.791 32.2685V37.9182Z" fill="#CE9912"/>
<path d="M11.7266 38.4403C12.172 38.5927 12.632 38.7347 13.1057 38.8671V33.2719C12.632 33.1313 12.172 32.9803 11.7266 32.8196V38.4403Z" fill="#CE9912"/>
<path d="M31.0312 38.8671C31.505 38.7347 31.9649 38.5927 32.4104 38.4403V32.8196C31.9649 32.9803 31.505 33.1313 31.0312 33.2719V38.8671Z" fill="#CE9912"/>
<path d="M15.1719 39.3638C15.6222 39.4548 16.0828 39.5362 16.551 39.6086V34.0616C16.0828 33.9837 15.6222 33.8968 15.1719 33.8003V39.3638Z" fill="#CE9912"/>
<path d="M27.5859 39.6083C28.0542 39.5352 28.5148 39.4538 28.9651 39.3635V33.7993C28.5148 33.8959 28.0542 33.9827 27.5859 34.0614V39.6083Z" fill="#CE9912"/>
<path d="M19.3105 39.9255C19.7643 39.9593 20.2249 39.9828 20.6897 39.9993V34.4807C20.2249 34.4627 19.7643 34.4379 19.3105 34.4014V39.9255Z" fill="#CE9912"/>
<path d="M23.4473 40C23.912 39.9828 24.3727 39.96 24.8264 39.9262V34.4014C24.3727 34.4379 23.912 34.4627 23.4473 34.4814V40Z" fill="#CE9912"/>
<path d="M17.9308 24.1302C8.02926 24.1302 0.00195312 19.9459 0.00195312 15.1658V20.9913C0.00195312 25.7714 8.02926 29.6468 17.9308 29.6468C27.8324 29.6468 35.8597 25.7714 35.8597 20.9913V15.1658C35.8597 19.9459 27.8324 24.1302 17.9308 24.1302Z" fill="#E4AF18"/>
<path d="M2.07031 25.0605C2.47716 25.4322 2.93848 25.788 3.44946 26.1259V20.4087C2.93848 20.057 2.47716 19.688 2.07031 19.304V25.0605Z" fill="#CE9912"/>
<path d="M32.4121 20.4086V26.1258C32.9231 25.7886 33.3844 25.4321 33.7913 25.0605V19.3032C33.3851 19.688 32.9238 20.0569 32.4121 20.4086Z" fill="#CE9912"/>
<path d="M4.82812 26.9297C5.26393 27.1552 5.72457 27.3682 6.20727 27.5703V21.9206C5.72457 21.7082 5.26393 21.4841 4.82812 21.2483V26.9297Z" fill="#CE9912"/>
<path d="M29.6543 27.5698C30.137 27.3684 30.5976 27.1554 31.0334 26.9292V21.2478C30.5976 21.4836 30.137 21.7084 29.6543 21.9201V27.5698Z" fill="#CE9912"/>
<path d="M7.58789 28.0916C8.03335 28.244 8.4933 28.3861 8.96703 28.5185V22.9233C8.4933 22.7826 8.03335 22.6316 7.58789 22.4709V28.0916Z" fill="#CE9912"/>
<path d="M26.8945 28.5185C27.3683 28.3861 27.8282 28.244 28.2737 28.0916V22.4709C27.8282 22.6316 27.3683 22.7826 26.8945 22.9233V28.5185Z" fill="#CE9912"/>
<path d="M11.0352 29.0151C11.4854 29.1062 11.9461 29.1875 12.4143 29.2599V23.713C11.9461 23.6351 11.4854 23.5482 11.0352 23.4517V29.0151Z" fill="#CE9912"/>
<path d="M23.4473 29.2606C23.9155 29.1875 24.3761 29.1062 24.8264 29.0158V23.4517C24.3761 23.5482 23.9155 23.6351 23.4473 23.7137V29.2606Z" fill="#CE9912"/>
<path d="M15.1719 29.5779C15.6256 29.6117 16.0862 29.6351 16.551 29.6517V24.133C16.0862 24.1151 15.6256 24.0903 15.1719 24.0537V29.5779Z" fill="#CE9912"/>
<path d="M19.3105 29.6516C19.7753 29.6344 20.236 29.6116 20.6897 29.5778V24.053C20.236 24.0895 19.7753 24.1144 19.3105 24.133V29.6516Z" fill="#CE9912"/>
<path d="M35.389 22.9641C33.5431 26.7954 26.4308 29.6516 17.9312 29.6516C14.7564 29.6516 11.776 29.2516 9.18945 28.5531C11.6912 30.2515 16.1438 31.6969 22.0686 31.6969C31.5033 31.6969 37.2392 28.0345 37.2392 25.5141C37.2392 24.6729 36.5917 23.7806 35.389 22.9641Z" fill="#FFD949"/>
<path d="M21.3787 22.7558C11.4771 22.7558 3.44981 18.8805 3.44981 14.1003V10.2029C1.28387 11.5606 0.00195312 13.2632 0.00195312 15.1706C0.00195312 19.9507 8.02926 24.135 17.9308 24.135C22.6985 24.135 27.0277 23.1634 30.239 21.6236C27.6248 22.3428 24.6024 22.7558 21.3787 22.7558Z" fill="#FFD949"/>
<path d="M21.38 17.2345C11.4785 17.2345 3.45117 13.0501 3.45117 8.27002V14.0955C3.45117 18.8756 11.4785 22.751 21.38 22.751C31.2816 22.751 39.3089 18.8756 39.3089 14.0955V8.27002C39.3089 13.0501 31.2816 17.2345 21.38 17.2345Z" fill="#E4AF18"/>
<path d="M5.51758 18.1647C5.92443 18.5364 6.38575 18.8922 6.89672 19.2301V13.5129C6.38575 13.1612 5.92443 12.7923 5.51758 12.4082V18.1647Z" fill="#CE9912"/>
<path d="M35.8594 13.5129V19.2301C36.3703 18.8929 36.8317 18.5364 37.2385 18.1647V12.4075C36.8324 12.7923 36.371 13.1612 35.8594 13.5129Z" fill="#CE9912"/>
<path d="M8.27734 20.0342C8.71315 20.2597 9.17379 20.4727 9.65649 20.6748V15.0251C9.17379 14.8127 8.71315 14.5886 8.27734 14.3528V20.0342Z" fill="#CE9912"/>
<path d="M33.1016 20.674C33.5843 20.4727 34.0449 20.2596 34.4807 20.0334V14.3521C34.0449 14.5879 33.5843 14.8127 33.1016 15.0244V20.674Z" fill="#CE9912"/>
<path d="M11.0352 21.1959C11.4806 21.3483 11.9406 21.4903 12.4143 21.6227V16.0276C11.9406 15.8869 11.4806 15.7359 11.0352 15.5752V21.1959Z" fill="#CE9912"/>
<path d="M30.3438 21.6227C30.8175 21.4903 31.2774 21.3483 31.7229 21.1959V15.5752C31.2774 15.7359 30.8175 15.8869 30.3438 16.0276V21.6227Z" fill="#CE9912"/>
<path d="M14.4824 22.1194C14.9327 22.2104 15.3933 22.2918 15.8616 22.3642V16.8173C15.3933 16.7393 14.9327 16.6524 14.4824 16.5559V22.1194Z" fill="#CE9912"/>
<path d="M26.8945 22.3649C27.3628 22.2918 27.8234 22.2104 28.2737 22.1201V16.5559C27.8234 16.6524 27.3628 16.7393 26.8945 16.8179V22.3649Z" fill="#CE9912"/>
<path d="M18.6211 22.6821C19.0748 22.7159 19.5355 22.7394 20.0002 22.7559V17.2373C19.5355 17.2193 19.0748 17.1945 18.6211 17.158V22.6821Z" fill="#CE9912"/>
<path d="M22.7578 22.7559C23.2226 22.7386 23.6832 22.7159 24.137 22.6821V17.1572C23.6832 17.1938 23.2226 17.2186 22.7578 17.2372V22.7559Z" fill="#CE9912"/>
<path d="M39.3089 8.27486C39.3089 13.055 31.2816 17.2393 21.38 17.2393C11.4785 17.2393 3.45117 13.055 3.45117 8.27486C3.45117 3.49475 11.4785 0 21.38 0C31.2816 0 39.3089 3.49475 39.3089 8.27486Z" fill="#FCC62D"/>
<path d="M21.3776 14.4575C11.9429 14.4575 6.20703 10.7958 6.20703 8.27475C6.20703 5.75437 11.9429 2.0686 21.3776 2.0686C30.8123 2.0686 36.5482 5.75437 36.5482 8.27475C36.5482 10.7958 30.8123 14.4575 21.3776 14.4575Z" fill="#FFD949"/>
<path d="M35 3.44482L20.6008 11.826L19.7986 8.27215L14.3309 10.4921L12.3614 11.2892L7 12.9903L14.3309 9.08836L23.7833 3.99107L24.5324 7.52583L27.0571 6.54448L28.8061 5.85849L35 3.44482Z" fill="#F7B044"/>
<path d="M5.26203 8.27475C5.26203 9.25746 5.80846 10.1844 6.57638 10.9665C7.36093 11.7655 8.47495 12.5182 9.85172 13.1665C12.6107 14.4656 16.5447 15.4025 21.3776 15.4025C26.2105 15.4025 30.1445 14.4656 32.9035 13.1665C34.2803 12.5182 35.3943 11.7655 36.1788 10.9665C36.9468 10.1844 37.4932 9.25746 37.4932 8.27475C37.4932 7.29271 36.9472 6.36468 36.1799 5.58072C35.3957 4.77958 34.282 4.02379 32.9051 3.37232C30.1459 2.06682 26.2114 1.1236 21.3776 1.1236C16.5438 1.1236 12.6093 2.06682 9.85013 3.37232C8.47326 4.02379 7.35953 4.77958 6.57535 5.58072C5.80799 6.36468 5.26203 7.29271 5.26203 8.27475Z" stroke="#FCC62D" stroke-width="1.89"/>
</g>
<defs>
<clipPath id="clip0">
<rect width="40" height="40" fill="white"/>
</clipPath>
</defs>
</svg>
