<svg width="26" height="24" viewBox="0 0 26 24" fill="none" xmlns="http://www.w3.org/2000/svg">
<path d="M19.3398 2.10459C19.3398 3.26851 18.3967 4.20918 17.2353 4.20918C16.0713 4.20918 15.1307 3.266 15.1307 2.10459C15.1307 0.940669 16.0738 0 17.2353 0C18.3967 0 19.3398 0.943178 19.3398 2.10459Z" fill="#62526D" fill-opacity="0.5"/>
<path d="M23.7407 4.22002C23.8761 4.14477 25.5116 3.69074 25.2683 5.42659C25.025 7.16243 21.2122 9.36736 20.9864 9.39747C20.7606 9.42757 20.1084 9.30716 19.5992 8.96852C19.5992 8.96852 17.314 7.93002 16.8951 7.50108L14.9385 12.3324C14.9385 12.3324 18.3074 13.0071 18.7413 16.3434L18.6661 21.2624C18.6661 21.2624 19.7297 21.1922 20.2966 22.6747C20.866 24.1572 18.5908 24.0819 18.0365 23.7985C17.4821 23.515 17.2588 23.6931 15.7914 22.4966L15.8817 16.3584C15.8817 16.3584 15.0113 15.0866 12.7461 14.9361C12.7461 14.9361 13.1124 18.4304 10.195 18.5684C7.2752 18.7088 5.79521 18.5684 5.79521 18.5684L5.03264 19.4112C5.03264 19.4112 4.74919 21.2624 3.6254 21.2047C2.50162 21.1471 2.89293 20.3243 2.89293 20.3243L2.90799 18.3928C2.90799 18.3928 2.80263 16.7899 5.49671 16.3409C8.18828 15.8944 10.5387 17.1536 10.5989 13.7697C10.6591 10.3858 11.3464 8.17083 12.7461 5.98597C12.7461 5.98597 10.8523 5.83546 9.58047 6.18163C8.30868 6.5278 8.44163 7.46847 7.47086 10.5965L7.02185 9.98194L6.16897 9.86153L5.81026 9.19428L4.85204 8.73774C4.85204 8.73774 7.10463 5.81289 7.32286 5.36889C7.44327 5.12056 7.74679 4.66402 8.34882 4.32036C8.53444 4.215 9.02108 3.99426 9.95924 3.87135C11.4668 3.67318 13.6316 3.58789 13.7621 3.58789C13.9728 3.58789 16.5464 3.87135 19.3459 6.23682C20.1937 6.97932 20.9086 7.10725 21.5157 6.56542C21.8869 6.23682 22.1578 5.89567 22.4513 5.59214C23.2064 4.81452 23.6077 4.29277 23.7407 4.22002Z" fill="#62526D" fill-opacity="0.5"/>
<path d="M7.45312 11.3617L3.90617 9.30225L1.84673 12.8492L5.39369 14.9086L7.45312 11.3617Z" fill="#62526D" fill-opacity="0.5"/>
<path d="M3.36328 8.98609L2.74119 8.62488L0.711848 12.1192L1.33394 12.4804L3.36328 8.98609Z" fill="#62526D" fill-opacity="0.5"/>
<path d="M8.61719 12.039L7.99509 11.6777L5.96576 15.172L6.58785 15.5332L8.61719 12.039Z" fill="#62526D" fill-opacity="0.5"/>
</svg>


