<svg width="16" height="16" viewBox="0 0 16 16" fill="none" xmlns="http://www.w3.org/2000/svg">
<path d="M10.3377 10.9497L11.5437 9.74368C11.7062 9.58326 11.9117 9.47345 12.1353 9.42757C12.359 9.3817 12.5911 9.40174 12.8036 9.48525L14.2734 10.0721C14.4881 10.1593 14.6722 10.308 14.8026 10.4997C14.9329 10.6913 15.0035 10.9172 15.0056 11.1489V13.8409C15.0044 13.9986 14.9713 14.1543 14.9082 14.2988C14.8452 14.4433 14.7536 14.5735 14.6389 14.6817C14.5242 14.7898 14.3888 14.8737 14.2409 14.9281C14.0929 14.9825 13.9355 15.0065 13.7781 14.9985C3.47844 14.3578 1.4002 5.63567 1.00717 2.29757C0.988925 2.13365 1.0056 1.96772 1.05608 1.8107C1.10657 1.65368 1.18973 1.50913 1.3001 1.38656C1.41046 1.26399 1.54553 1.16618 1.69641 1.09955C1.84729 1.03293 2.01057 0.99901 2.1755 1.00002H4.77599C5.00805 1.00071 5.23459 1.0708 5.42649 1.20129C5.61838 1.33178 5.76685 1.51669 5.8528 1.73225L6.43965 3.20209C6.52594 3.41372 6.54795 3.64608 6.50294 3.87015C6.45794 4.09421 6.34791 4.30005 6.18661 4.46195L4.98058 5.66797C4.98058 5.66797 5.67512 10.3682 10.3377 10.9497Z" fill="#732CA4"/>
</svg>
