<svg class="" width="21" height="16" viewBox="0 0 21 16" fill="none" xmlns="http://www.w3.org/2000/svg">
                        <path d="M20.8007 13.4V2.59999C20.8007 1.60399 19.9967 0.799988 19.0007 0.799988H2.18867C1.19267 0.799988 0.388672 1.60399 0.388672 2.59999V13.4C0.388672 14.396 1.19267 15.2 2.18867 15.2H19.0007C19.9967 15.2 20.8007 14.396 20.8007 13.4ZM19.2287 2.46799C19.6247 2.86399 19.4087 3.27199 19.1927 3.47599L14.3207 7.93999L19.0007 12.812C19.1447 12.98 19.2407 13.244 19.0727 13.424C18.9167 13.616 18.5567 13.604 18.4007 13.484L13.1567 9.00799L10.5887 11.348L8.03267 9.00799L2.78867 13.484C2.63267 13.604 2.27267 13.616 2.11667 13.424C1.94867 13.244 2.04467 12.98 2.18867 12.812L6.86867 7.93999L1.99667 3.47599C1.78067 3.27199 1.56467 2.86399 1.96067 2.46799C2.35667 2.07199 2.76467 2.26399 3.10067 2.55199L10.5887 8.59999L18.0887 2.55199C18.4247 2.26399 18.8327 2.07199 19.2287 2.46799Z" fill="#62526D" fill-opacity="0.8"/>
                    </svg>