<svg width="24" height="24" viewBox="0 0 24 24" fill="none" xmlns="http://www.w3.org/2000/svg">
<path fill-rule="evenodd" clip-rule="evenodd" d="M17.6391 6.43059C17.9163 6.15576 18.2906 6.00108 18.681 6.00001C19.0713 5.99893 19.4465 6.15153 19.7252 6.42483C20.004 6.69813 20.164 7.07015 20.1706 7.46048C20.1773 7.8508 20.0301 8.22807 19.7608 8.5107L11.8524 18.3962C11.7164 18.5426 11.5524 18.6601 11.37 18.7417C11.1877 18.8232 10.9907 18.8671 10.791 18.8708C10.5913 18.8745 10.3929 18.8379 10.2076 18.7632C10.0223 18.6884 9.85406 18.5771 9.71282 18.4358L4.4729 13.1939C4.32692 13.0579 4.20983 12.8939 4.12863 12.7116C4.04742 12.5294 4.00375 12.3326 4.00023 12.1331C3.99671 11.9336 4.03341 11.7355 4.10814 11.5505C4.18287 11.3654 4.29409 11.1974 4.43518 11.0563C4.57627 10.9152 4.74433 10.804 4.92934 10.7293C5.11435 10.6545 5.31251 10.6178 5.51201 10.6213C5.71151 10.6249 5.90826 10.6685 6.09051 10.7497C6.27277 10.831 6.4368 10.948 6.57283 11.094L10.7212 15.2404L17.6014 6.47417C17.6137 6.45882 17.6269 6.44427 17.641 6.43059H17.6391Z" fill="#62526D"/>
</svg>
