<svg width="10" height="12" viewBox="0 0 10 12" fill="none" xmlns="http://www.w3.org/2000/svg">
<path d="M2.736 2.532L2.97 4.8H3.456L2.808 2.532H2.736ZM6.696 10.038H6.768L6.534 7.752H6.048L6.696 10.038ZM1.314 12V7.752H0.054V6.816L1.314 6.708V5.844H0.054V4.908L1.314 4.8V0.569999H3.762L5.202 4.8H6.282V0.569999H8.19V4.8H9.432V5.844H8.19V6.708H9.432V7.752H8.19V12H5.742L4.302 7.752H3.222V12H1.314ZM6.426 6.708L6.354 5.844H5.508L5.76 6.708H6.426ZM3.996 6.708L3.744 5.844H3.078L3.15 6.708H3.996Z" fill="#62526D"/>
</svg>
