<svg width="80" height="80" viewBox="0 0 80 80" fill="none" xmlns="http://www.w3.org/2000/svg">
<g clip-path="url(#clip0)">
<path d="M47.9029 52.8517C46.0164 54.7419 43.503 55.7819 40.8327 55.7819C38.1631 55.7819 35.6497 54.7419 33.7631 52.8517L19.5964 38.6855C17.7067 36.7984 16.6667 34.2856 16.6667 31.6153C16.6667 28.945 17.7067 26.4323 19.5964 24.5457C21.4829 22.6554 23.9963 21.6154 26.6666 21.6154C29.3362 21.6154 31.8496 22.6554 33.7362 24.5457L40.8327 31.6385L60.423 12.0489C54.0229 6.59237 45.7362 3.28247 36.6665 3.28247C16.4165 3.28247 0 19.6989 0 39.9484C0 60.1984 16.4165 76.6148 36.6665 76.6148C56.9159 76.6148 73.3324 60.1984 73.3324 39.9484C73.3324 36.1587 72.7562 32.5052 71.6893 29.0653L47.9029 52.8517Z" fill="#F8A220"/>
<path d="M40.8344 49.1148C39.9811 49.1148 39.1279 48.7883 38.4779 48.1383L24.3118 33.9715C23.0081 32.6685 23.0081 30.5615 24.3118 29.2585C25.6148 27.9548 27.7211 27.9548 29.0248 29.2585L40.8344 41.068L74.3112 7.59182C75.6143 6.28873 77.7206 6.28873 79.0243 7.59182C80.3274 8.89551 80.3274 11.0018 79.0243 12.3055L43.191 48.1383C42.5415 48.7883 41.6877 49.1148 40.8344 49.1148Z" fill="#732CA4"/>
</g>
<defs>
<clipPath id="clip0">
<rect width="80" height="80" fill="white"/>
</clipPath>
</defs>
</svg>
