<svg width="56" height="64" viewBox="0 0 56 64" fill="none"
    xmlns="http://www.w3.org/2000/svg">
    <path d="M47.799 8.546C42.5106 3.25759 35.4791 0.345093 28 0.345093C20.5209 0.345093 13.4894 3.25759 8.20103 8.546C2.9125 13.8347 0 20.866 0 28.3451C0 41.5397 9.22439 52.931 22.0391 55.7069L28 63.6548L33.961 55.7068C46.7756 52.9308 56 41.5397 56 28.3451C56 20.866 53.0875 13.8347 47.799 8.546ZM28 7.65483C39.3404 7.65483 48.5664 16.881 48.5664 28.2212C48.5664 39.5614 39.3404 48.7876 28 48.7876C16.6596 48.7876 7.43363 39.5614 7.43363 28.2212C7.43363 16.881 16.6596 7.65483 28 7.65483Z" fill="#62526D"/>
</svg>  