<svg width="212" height="262" viewBox="0 0 212 262" fill="none" xmlns="http://www.w3.org/2000/svg">
<g opacity="0.1">
<path d="M141.56 236.02H106.28L77 212.98C64.5995 224.094 49.2501 231.387 32.8004 233.979C16.3508 236.57 -0.497353 234.351 -15.7147 227.588C-30.932 220.825 -43.8694 209.806 -52.9685 195.859C-62.0677 181.912 -66.9405 165.632 -67 148.98V52.6598C-66.5136 30.0406 -57.1865 8.51189 -41.0176 -7.31305C-24.8487 -23.138 -3.12437 -32 19.5 -32C42.1244 -32 63.8487 -23.138 80.0177 -7.31305C96.1866 8.51189 105.514 30.0406 106 52.6598V65.2998L87.6 73.8998V53.8998C87.1729 36.4295 79.9329 19.8184 67.4257 7.61332C54.9186 -4.5918 38.1355 -11.4237 20.66 -11.4237C3.18448 -11.4237 -13.5986 -4.5918 -26.1057 7.61332C-38.6128 19.8184 -45.8529 36.4295 -46.28 53.8998V148.98C-45.8529 166.45 -38.6128 183.061 -26.1057 195.266C-13.5986 207.471 3.18448 214.303 20.66 214.303C38.1355 214.303 54.9186 207.471 67.4257 195.266C79.9329 183.061 87.1729 166.45 87.6 148.98V131.74L106 123.26V148.46C106.048 165.758 100.876 182.668 91.16 196.98L141.56 236.02Z" fill="url(#paint0_linear)"/>
<path d="M171.277 34.8999L19.7972 140.46L11.3572 95.6999L-46.1628 123.66L-66.8828 133.7V119.34L-46.1628 105.98L53.2772 41.7799L61.1572 86.2999L87.7172 73.9399L106.117 65.2999L171.277 34.8999Z" fill="#F7B044"/>
</g>
<defs>
<linearGradient id="paint0_linear" x1="-66.88" y1="101.1" x2="141.4" y2="101.1" gradientUnits="userSpaceOnUse">
<stop offset="0.42" stop-color="#2D0044"/>
<stop offset="0.43" stop-color="#36094D"/>
<stop offset="0.44" stop-color="#4C2166"/>
<stop offset="0.45" stop-color="#5C3278"/>
<stop offset="0.46" stop-color="#663C83"/>
<stop offset="0.47" stop-color="#693F86"/>
</linearGradient>
</defs>
</svg>
