<svg width="14" height="14" viewBox="0 0 14 14" fill="none" xmlns="http://www.w3.org/2000/svg">
<path d="M13.632 5.11934C13.5901 4.99592 13.513 4.88747 13.4101 4.80738C13.3073 4.72729 13.1833 4.67908 13.0533 4.66868L9.25267 4.36668L7.608 0.72601C7.55562 0.608751 7.47043 0.509157 7.3627 0.439248C7.25497 0.369339 7.12931 0.332102 7.00089 0.332031C6.87246 0.331961 6.74676 0.36906 6.63895 0.438851C6.53115 0.508642 6.44584 0.608142 6.39334 0.725343L4.74867 4.36668L0.948002 4.66868C0.820305 4.67879 0.698227 4.72548 0.596372 4.80316C0.494517 4.88084 0.417197 4.98622 0.373664 5.1067C0.330131 5.22717 0.322227 5.35763 0.350899 5.48248C0.37957 5.60733 0.443602 5.72127 0.535335 5.81068L3.344 8.54868L2.35067 12.85C2.32051 12.9802 2.33017 13.1165 2.37842 13.2411C2.42666 13.3657 2.51124 13.473 2.6212 13.549C2.73116 13.6249 2.86141 13.6661 2.99506 13.6671C3.1287 13.6681 3.25957 13.629 3.37067 13.5547L7.00067 11.1347L10.6307 13.5547C10.7442 13.6301 10.8781 13.6689 11.0144 13.6659C11.1507 13.6629 11.2828 13.6183 11.3929 13.538C11.5031 13.4577 11.586 13.3456 11.6305 13.2167C11.675 13.0879 11.6791 12.9485 11.642 12.8173L10.4227 8.55068L13.4467 5.82934C13.6447 5.65068 13.7173 5.37201 13.632 5.11934Z" fill="#732CA4" fill-opacity="0.8"/>
</svg>
