<svg width="32" height="32" viewBox="0 0 32 32" fill="none" xmlns="http://www.w3.org/2000/svg">
<g clip-path="url(#clip0)">
<path d="M19.1612 21.1407C18.4065 21.8968 17.4012 22.3128 16.3331 22.3128C15.2652 22.3128 14.2599 21.8968 13.5052 21.1407L7.83854 15.4742C7.08269 14.7193 6.66668 13.7142 6.66668 12.6461C6.66668 11.578 7.08269 10.5729 7.83854 9.81827C8.59317 9.06218 9.59853 8.64616 10.6666 8.64616C11.7345 8.64616 12.7399 9.06218 13.4945 9.81827L16.3331 12.6554L24.1692 4.81954C21.6091 2.63695 18.2945 1.31299 14.6666 1.31299C6.56658 1.31299 0 7.87957 0 15.9793C0 24.0794 6.56658 30.6459 14.6666 30.6459C22.7664 30.6459 29.3329 24.0794 29.3329 15.9793C29.3329 14.4635 29.1025 13.0021 28.6757 11.6261L19.1612 21.1407Z" fill="#F8A220"/>
<path d="M16.3322 19.6456C15.9909 19.6456 15.6496 19.515 15.3896 19.255L9.72314 13.5883C9.20166 13.0671 9.20166 12.2243 9.72314 11.7031C10.2444 11.1816 11.0869 11.1816 11.6084 11.7031L16.3322 16.4269L29.7229 3.03643C30.2442 2.5152 31.0867 2.5152 31.6082 3.03643C32.1294 3.55791 32.1294 4.40043 31.6082 4.92191L17.2748 19.255C17.0151 19.515 16.6735 19.6456 16.3322 19.6456Z" fill="#732CA4"/>
</g>
<defs>
<clipPath id="clip0">
<rect width="32" height="32" fill="white"/>
</clipPath>
</defs>
</svg>
