<svg width="24" height="24" viewBox="0 0 24 24" fill="none" xmlns="http://www.w3.org/2000/svg">
<path d="M12.7812 7.39062V11.6764L15.6254 14.5205C15.9305 14.8256 15.9305 15.3203 15.6254 15.6254C15.3202 15.9305 14.8256 15.9304 14.5205 15.6254L11.4476 12.5524C11.3011 12.4059 11.2188 12.2072 11.2188 12V7.39062C11.2188 6.95914 11.5685 6.60938 12 6.60938C12.4315 6.60938 12.7812 6.95914 12.7812 7.39062ZM15.0729 2H8.92707C7.29074 2 5.67641 2.57508 4.38473 3.69836V2.78125C4.38473 2.34977 4.03496 2 3.60348 2C3.17199 2 2.82223 2.34977 2.82223 2.78125V5.85418C2.82223 6.28566 3.175 6.63543 3.60348 6.63543H6.67641C7.10789 6.63543 7.45766 6.28566 7.45766 5.85418C7.45766 5.4227 7.10789 5.07293 6.67641 5.07293H5.19855C6.18738 4.11961 7.52219 3.5625 8.92707 3.5625H15.0729C18.031 3.5625 20.4375 5.96902 20.4375 8.92707V15.0729C20.4375 18.031 18.031 20.4375 15.0729 20.4375H8.92707C5.96902 20.4375 3.5625 18.031 3.5625 15.0729V12C3.5625 11.5685 3.21273 11.2188 2.78125 11.2188C2.34977 11.2188 2 11.5685 2 12V15.0729C2 18.8925 5.10746 22 8.92707 22H15.0729C18.8925 22 22 18.8925 22 15.0729V8.92707C22 5.10746 18.8925 2 15.0729 2V2Z" fill="#B0A8B6"/>
</svg>
