<svg width="375" height="812" viewBox="0 0 375 812" fill="none" xmlns="http://www.w3.org/2000/svg">
<g clip-path="url(#clip0)">
<rect width="375" height="812" fill="white"/>
<g opacity="0.1">
<path d="M141.56 236.02H106.28L77 212.98C64.5995 224.094 49.2501 231.387 32.8004 233.979C16.3508 236.57 -0.497353 234.351 -15.7147 227.588C-30.932 220.825 -43.8694 209.806 -52.9685 195.859C-62.0677 181.912 -66.9405 165.632 -67 148.98V52.6598C-66.5136 30.0406 -57.1865 8.51189 -41.0176 -7.31305C-24.8487 -23.138 -3.12437 -32 19.5 -32C42.1244 -32 63.8487 -23.138 80.0177 -7.31305C96.1866 8.51189 105.514 30.0406 106 52.6598V65.2998L87.6 73.8998V53.8998C87.1729 36.4295 79.9329 19.8184 67.4257 7.61332C54.9186 -4.5918 38.1355 -11.4237 20.66 -11.4237C3.18448 -11.4237 -13.5986 -4.5918 -26.1057 7.61332C-38.6128 19.8184 -45.8529 36.4295 -46.28 53.8998V148.98C-45.8529 166.45 -38.6128 183.061 -26.1057 195.266C-13.5986 207.471 3.18448 214.303 20.66 214.303C38.1355 214.303 54.9186 207.471 67.4257 195.266C79.9329 183.061 87.1729 166.45 87.6 148.98V131.74L106 123.26V148.46C106.048 165.758 100.876 182.668 91.16 196.98L141.56 236.02Z" fill="url(#paint0_linear)"/>
<path d="M171.277 34.8999L19.7972 140.46L11.3572 95.6999L-46.1628 123.66L-66.8828 133.7V119.34L-46.1628 105.98L53.2772 41.7799L61.1572 86.2999L87.7172 73.9399L106.117 65.2999L171.277 34.8999Z" fill="#F7B044"/>
</g>
<path d="M30.92 142.48C29.1867 142.48 27.5867 142.173 26.12 141.56C24.68 140.947 23.44 140.067 22.4 138.92C21.36 137.747 20.5467 136.32 19.96 134.64C19.3733 132.933 19.08 131.013 19.08 128.88C19.08 126.773 19.3733 124.88 19.96 123.2C20.5733 121.52 21.4133 120.093 22.48 118.92C23.5467 117.747 24.8133 116.853 26.28 116.24C27.7733 115.6 29.3867 115.28 31.12 115.28C32.0267 115.28 32.8533 115.373 33.6 115.56C34.3733 115.747 35.0667 116 35.68 116.32C36.32 116.613 36.88 116.96 37.36 117.36C37.8667 117.733 38.3067 118.12 38.68 118.52L36.84 120.68C36.1733 119.987 35.4 119.4 34.52 118.92C33.64 118.44 32.5333 118.2 31.2 118.2C29.8667 118.2 28.6667 118.453 27.6 118.96C26.5333 119.44 25.6267 120.147 24.88 121.08C24.1333 121.987 23.5467 123.093 23.12 124.4C22.72 125.707 22.52 127.173 22.52 128.8C22.52 130.453 22.7067 131.947 23.08 133.28C23.48 134.587 24.04 135.707 24.76 136.64C25.5067 137.573 26.4133 138.293 27.48 138.8C28.5733 139.307 29.8267 139.56 31.24 139.56C32.1733 139.56 33.0533 139.427 33.88 139.16C34.7333 138.867 35.4267 138.48 35.96 138V131.16H30.4V128.4H39V139.44C38.1467 140.32 37.0267 141.053 35.64 141.64C34.2533 142.2 32.68 142.48 30.92 142.48ZM52.8475 142.48C51.5408 142.48 50.3142 142.253 49.1675 141.8C48.0475 141.32 47.0608 140.653 46.2075 139.8C45.3808 138.92 44.7275 137.853 44.2475 136.6C43.7675 135.347 43.5275 133.92 43.5275 132.32C43.5275 130.72 43.7675 129.293 44.2475 128.04C44.7542 126.76 45.4075 125.68 46.2075 124.8C47.0342 123.92 47.9675 123.253 49.0075 122.8C50.0475 122.32 51.1275 122.08 52.2475 122.08C53.4742 122.08 54.5675 122.293 55.5275 122.72C56.5142 123.147 57.3275 123.76 57.9675 124.56C58.6342 125.36 59.1408 126.32 59.4875 127.44C59.8342 128.56 60.0075 129.813 60.0075 131.2C60.0075 131.547 59.9942 131.893 59.9675 132.24C59.9675 132.56 59.9408 132.84 59.8875 133.08H46.7675C46.9008 135.16 47.5408 136.813 48.6875 138.04C49.8608 139.24 51.3808 139.84 53.2475 139.84C54.1808 139.84 55.0342 139.707 55.8075 139.44C56.6075 139.147 57.3675 138.773 58.0875 138.32L59.2475 140.48C58.3942 141.013 57.4475 141.48 56.4075 141.88C55.3675 142.28 54.1808 142.48 52.8475 142.48ZM46.7275 130.72H57.1275C57.1275 128.747 56.7008 127.253 55.8475 126.24C55.0208 125.2 53.8475 124.68 52.3275 124.68C51.6342 124.68 50.9675 124.813 50.3275 125.08C49.7142 125.347 49.1542 125.747 48.6475 126.28C48.1408 126.787 47.7142 127.413 47.3675 128.16C47.0475 128.907 46.8342 129.76 46.7275 130.72ZM70.5406 142.48C69.5006 142.48 68.6206 142.32 67.9006 142C67.2073 141.68 66.634 141.24 66.1806 140.68C65.754 140.12 65.4473 139.44 65.2606 138.64C65.074 137.84 64.9806 136.96 64.9806 136V125.24H62.1006V122.76L65.1406 122.56L65.5406 117.12H68.3006V122.56H73.5406V125.24H68.3006V136.04C68.3006 137.24 68.514 138.173 68.9406 138.84C69.394 139.48 70.1806 139.8 71.3006 139.8C71.6473 139.8 72.0206 139.747 72.4206 139.64C72.8206 139.533 73.1806 139.413 73.5006 139.28L74.1406 141.76C73.6073 141.947 73.0206 142.107 72.3806 142.24C71.7673 142.4 71.154 142.48 70.5406 142.48Z" fill="#62526D"/>
<path d="M30.96 198.48C29.3067 198.48 27.7467 198.2 26.28 197.64C24.8133 197.053 23.52 196.2 22.4 195.08C21.3067 193.96 20.44 192.573 19.8 190.92C19.16 189.24 18.84 187.307 18.84 185.12C18.84 182.96 19.1733 181.04 19.84 179.36C20.5067 177.653 21.4 176.213 22.52 175.04C23.64 173.867 24.9467 172.973 26.44 172.36C27.9333 171.747 29.5067 171.44 31.16 171.44C32.84 171.44 34.3467 171.787 35.68 172.48C37.0133 173.147 38.12 173.933 39 174.84L35.88 178.6C35.2133 177.987 34.5067 177.493 33.76 177.12C33.04 176.72 32.2133 176.52 31.28 176.52C30.4 176.52 29.56 176.72 28.76 177.12C27.9867 177.493 27.3067 178.04 26.72 178.76C26.16 179.48 25.7067 180.36 25.36 181.4C25.04 182.44 24.88 183.613 24.88 184.92C24.88 187.613 25.4533 189.707 26.6 191.2C27.7467 192.667 29.28 193.4 31.2 193.4C32.2667 193.4 33.2133 193.173 34.04 192.72C34.8933 192.24 35.64 191.653 36.28 190.96L39.4 194.64C37.2133 197.2 34.4 198.48 30.96 198.48ZM51.4013 198.48C50.1479 198.48 48.9346 198.253 47.7613 197.8C46.5879 197.32 45.5479 196.64 44.6413 195.76C43.7613 194.88 43.0546 193.8 42.5213 192.52C41.9879 191.213 41.7213 189.733 41.7213 188.08C41.7213 186.427 41.9879 184.96 42.5213 183.68C43.0546 182.373 43.7613 181.28 44.6413 180.4C45.5479 179.52 46.5879 178.853 47.7613 178.4C48.9346 177.92 50.1479 177.68 51.4013 177.68C52.6546 177.68 53.8546 177.92 55.0013 178.4C56.1746 178.853 57.2013 179.52 58.0813 180.4C58.9879 181.28 59.7079 182.373 60.2413 183.68C60.7746 184.96 61.0413 186.427 61.0413 188.08C61.0413 189.733 60.7746 191.213 60.2413 192.52C59.7079 193.8 58.9879 194.88 58.0813 195.76C57.2013 196.64 56.1746 197.32 55.0013 197.8C53.8546 198.253 52.6546 198.48 51.4013 198.48ZM51.4013 193.72C52.6013 193.72 53.5079 193.213 54.1213 192.2C54.7346 191.187 55.0413 189.813 55.0413 188.08C55.0413 186.347 54.7346 184.973 54.1213 183.96C53.5079 182.947 52.6013 182.44 51.4013 182.44C50.1746 182.44 49.2546 182.947 48.6413 183.96C48.0546 184.973 47.7613 186.347 47.7613 188.08C47.7613 189.813 48.0546 191.187 48.6413 192.2C49.2546 193.213 50.1746 193.72 51.4013 193.72ZM65.0688 198V178.16H69.8688L70.2688 180.68H70.4288C71.2821 179.88 72.2154 179.187 73.2288 178.6C74.2421 177.987 75.4288 177.68 76.7888 177.68C78.9488 177.68 80.5088 178.387 81.4688 179.8C82.4554 181.213 82.9488 183.173 82.9488 185.68V198H77.0688V186.44C77.0688 185 76.8688 184.013 76.4688 183.48C76.0954 182.947 75.4821 182.68 74.6288 182.68C73.8821 182.68 73.2421 182.853 72.7088 183.2C72.1754 183.52 71.5888 183.987 70.9488 184.6V198H65.0688ZM87.9594 198V178.16H92.7594L93.1594 180.68H93.3194C94.1727 179.88 95.106 179.187 96.1194 178.6C97.1327 177.987 98.3194 177.68 99.6794 177.68C101.839 177.68 103.399 178.387 104.359 179.8C105.346 181.213 105.839 183.173 105.839 185.68V198H99.9594V186.44C99.9594 185 99.7594 184.013 99.3594 183.48C98.986 182.947 98.3727 182.68 97.5194 182.68C96.7727 182.68 96.1327 182.853 95.5994 183.2C95.066 183.52 94.4794 183.987 93.8394 184.6V198H87.9594ZM119.73 198.48C118.317 198.48 116.997 198.253 115.77 197.8C114.543 197.32 113.477 196.64 112.57 195.76C111.663 194.853 110.957 193.76 110.45 192.48C109.943 191.2 109.69 189.733 109.69 188.08C109.69 186.48 109.957 185.04 110.49 183.76C111.023 182.453 111.717 181.36 112.57 180.48C113.45 179.573 114.45 178.88 115.57 178.4C116.69 177.92 117.85 177.68 119.05 177.68C120.463 177.68 121.69 177.92 122.73 178.4C123.797 178.88 124.677 179.547 125.37 180.4C126.09 181.253 126.623 182.267 126.97 183.44C127.317 184.587 127.49 185.84 127.49 187.2C127.49 187.733 127.463 188.24 127.41 188.72C127.357 189.2 127.303 189.56 127.25 189.8H115.37C115.637 191.24 116.223 192.307 117.13 193C118.063 193.667 119.197 194 120.53 194C121.943 194 123.37 193.56 124.81 192.68L126.77 196.24C125.757 196.933 124.623 197.48 123.37 197.88C122.143 198.28 120.93 198.48 119.73 198.48ZM115.33 185.92H122.49C122.49 184.8 122.237 183.893 121.73 183.2C121.223 182.507 120.37 182.16 119.17 182.16C118.237 182.16 117.41 182.467 116.69 183.08C115.997 183.693 115.543 184.64 115.33 185.92ZM140.193 198.48C138.806 198.48 137.513 198.253 136.313 197.8C135.14 197.32 134.113 196.64 133.233 195.76C132.353 194.88 131.66 193.8 131.153 192.52C130.646 191.213 130.393 189.733 130.393 188.08C130.393 186.427 130.673 184.96 131.233 183.68C131.793 182.373 132.54 181.28 133.473 180.4C134.433 179.52 135.54 178.853 136.793 178.4C138.046 177.92 139.353 177.68 140.713 177.68C141.94 177.68 143.02 177.88 143.953 178.28C144.913 178.68 145.766 179.187 146.513 179.8L143.753 183.6C142.82 182.827 141.926 182.44 141.073 182.44C139.633 182.44 138.5 182.947 137.673 183.96C136.846 184.973 136.433 186.347 136.433 188.08C136.433 189.813 136.846 191.187 137.673 192.2C138.526 193.213 139.593 193.72 140.873 193.72C141.513 193.72 142.126 193.587 142.713 193.32C143.326 193.027 143.9 192.68 144.433 192.28L146.753 196.12C145.766 196.973 144.7 197.587 143.553 197.96C142.406 198.307 141.286 198.48 140.193 198.48ZM157.474 198.48C156.248 198.48 155.194 198.293 154.314 197.92C153.461 197.547 152.754 197.027 152.194 196.36C151.661 195.693 151.261 194.893 150.994 193.96C150.754 193 150.634 191.947 150.634 190.8V182.76H147.914V178.4L150.954 178.16L151.634 172.88H156.514V178.16H161.274V182.76H156.514V190.72C156.514 191.84 156.741 192.653 157.194 193.16C157.674 193.64 158.301 193.88 159.074 193.88C159.394 193.88 159.714 193.84 160.034 193.76C160.381 193.68 160.688 193.587 160.954 193.48L161.874 197.76C161.341 197.92 160.714 198.08 159.994 198.24C159.274 198.4 158.434 198.48 157.474 198.48ZM173.324 198.48C171.91 198.48 170.59 198.253 169.364 197.8C168.137 197.32 167.07 196.64 166.164 195.76C165.257 194.853 164.55 193.76 164.044 192.48C163.537 191.2 163.284 189.733 163.284 188.08C163.284 186.48 163.55 185.04 164.084 183.76C164.617 182.453 165.31 181.36 166.164 180.48C167.044 179.573 168.044 178.88 169.164 178.4C170.284 177.92 171.444 177.68 172.644 177.68C174.057 177.68 175.284 177.92 176.324 178.4C177.39 178.88 178.27 179.547 178.964 180.4C179.684 181.253 180.217 182.267 180.564 183.44C180.91 184.587 181.084 185.84 181.084 187.2C181.084 187.733 181.057 188.24 181.004 188.72C180.95 189.2 180.897 189.56 180.844 189.8H168.964C169.23 191.24 169.817 192.307 170.724 193C171.657 193.667 172.79 194 174.124 194C175.537 194 176.964 193.56 178.404 192.68L180.364 196.24C179.35 196.933 178.217 197.48 176.964 197.88C175.737 198.28 174.524 198.48 173.324 198.48ZM168.924 185.92H176.084C176.084 184.8 175.83 183.893 175.324 183.2C174.817 182.507 173.964 182.16 172.764 182.16C171.83 182.16 171.004 182.467 170.284 183.08C169.59 183.693 169.137 184.64 168.924 185.92ZM192.227 198.48C191 198.48 189.88 198.24 188.867 197.76C187.88 197.28 187.027 196.6 186.307 195.72C185.614 194.813 185.067 193.72 184.667 192.44C184.294 191.16 184.107 189.707 184.107 188.08C184.107 186.453 184.334 185 184.787 183.72C185.267 182.44 185.88 181.36 186.627 180.48C187.4 179.573 188.28 178.88 189.267 178.4C190.28 177.92 191.307 177.68 192.347 177.68C193.467 177.68 194.387 177.867 195.107 178.24C195.827 178.613 196.534 179.12 197.227 179.76L196.987 176.72V169.96H202.867V198H198.067L197.667 196.04H197.507C196.814 196.733 196 197.32 195.067 197.8C194.134 198.253 193.187 198.48 192.227 198.48ZM193.747 193.68C194.387 193.68 194.96 193.547 195.467 193.28C196 193.013 196.507 192.547 196.987 191.88V183.76C196.454 183.28 195.907 182.947 195.347 182.76C194.787 182.573 194.24 182.48 193.707 182.48C192.774 182.48 191.947 182.933 191.227 183.84C190.507 184.72 190.147 186.107 190.147 188C190.147 189.973 190.454 191.413 191.067 192.32C191.707 193.227 192.6 193.68 193.747 193.68Z" fill="#62526D"/>
<g clip-path="url(#clip1)">
<path d="M189.294 511.641C219.825 511.641 244.575 508.429 244.575 504.467C244.575 500.505 219.825 497.293 189.294 497.293C158.764 497.293 134.014 500.505 134.014 504.467C134.014 508.429 158.764 511.641 189.294 511.641Z" fill="#E6E6E6"/>
<path d="M192.344 479.489C192.344 479.489 195.314 489.72 197.295 492.361C199.275 495.001 200.925 499.292 199.935 499.952C198.945 500.612 196.964 508.533 199.605 508.863C202.245 509.193 208.186 500.282 208.516 497.312C208.846 494.341 210.167 483.78 210.167 483.78C210.167 483.78 212.477 474.538 208.846 473.878C205.216 473.218 199.605 472.888 199.605 472.888L192.344 479.489Z" fill="#2F2E41"/>
<path d="M178.484 490.381C178.484 490.381 174.193 501.602 173.203 502.262C172.213 502.923 168.582 508.863 175.843 508.863C183.104 508.863 187.065 506.883 187.065 506.883L189.375 504.243C189.375 504.243 189.375 497.312 188.715 496.321C188.055 495.331 188.715 490.381 188.715 490.381H178.484Z" fill="#2F2E41"/>
<path d="M149.108 387.735C149.108 387.735 143.827 423.38 148.448 434.932C153.069 446.484 157.69 449.784 157.69 449.784L192.675 482.459C192.675 482.459 203.567 476.848 202.577 473.218C202.577 473.218 200.266 471.898 199.936 470.907C199.606 469.917 195.315 469.587 195.315 469.587C195.315 469.587 193.335 467.277 193.335 465.957C193.335 464.637 176.173 441.203 170.562 439.553C170.562 439.553 167.591 435.922 167.921 435.262C168.251 434.602 166.931 432.291 166.931 432.291L170.232 419.419L191.025 416.119C191.025 416.119 199.606 385.754 192.345 383.444C185.084 381.134 149.108 387.735 149.108 387.735Z" fill="#2F2E41"/>
<path d="M190.365 410.838L191.025 416.119C191.025 416.119 191.025 429.981 190.365 431.301C189.705 432.622 189.375 434.602 190.365 435.922C191.355 437.242 193.006 440.543 192.345 441.863C191.685 443.183 193.666 480.479 191.025 483.119C188.385 485.76 189.375 489.06 189.705 489.39C190.035 489.72 189.375 491.041 189.375 491.041C189.375 491.041 175.843 493.351 176.833 491.041C177.823 488.73 177.823 487.41 178.483 486.75C179.143 486.09 178.483 485.1 178.483 485.1C178.483 485.1 179.474 474.538 178.483 473.878C177.493 473.218 174.523 441.533 174.523 441.203C174.523 440.873 173.533 440.213 173.533 438.893C173.533 437.572 173.533 433.282 171.882 432.622C170.232 431.961 170.562 415.789 170.562 415.789L190.365 410.838Z" fill="#2F2E41"/>
<path d="M166.93 293.01C166.93 293.01 168.251 302.911 172.211 304.892C176.172 306.872 178.812 307.862 178.812 307.862L175.512 319.414L174.191 329.316H159.009L150.758 322.715L153.398 311.823L154.718 309.843C154.718 309.843 156.369 302.581 155.048 300.271C153.728 297.961 166.93 293.01 166.93 293.01Z" fill="#D697A0"/>
<path d="M160.328 317.104L162.639 321.394C162.639 321.394 164.289 315.453 166.599 314.463C168.91 313.473 174.521 311.823 174.521 310.503C174.521 309.182 174.191 305.882 175.511 305.882C176.831 305.882 189.703 309.843 191.683 311.163C193.664 312.483 193.994 313.803 193.994 313.803L190.363 351.759C190.363 351.759 195.644 369.582 193.994 376.513C192.343 383.444 191.023 384.434 187.063 385.424C183.102 386.414 185.412 383.114 173.861 386.414C162.309 389.715 155.048 388.725 152.407 388.725C149.767 388.725 148.117 390.045 147.456 390.375C146.796 390.705 147.126 388.725 149.437 385.754C151.747 382.784 150.757 377.833 150.757 377.833C150.757 377.833 148.117 369.252 149.767 365.951C151.417 362.651 153.727 358.36 151.747 357.04C149.767 355.72 147.126 345.818 147.126 345.818L139.865 320.074L154.718 309.843C154.718 309.843 154.057 314.463 156.368 315.453C158.678 316.444 160.328 317.104 160.328 317.104Z" fill="#575A89"/>
<path d="M141.847 319.744H139.867C139.867 319.744 136.566 325.355 136.566 329.315C136.566 333.276 138.217 355.72 138.217 355.72L147.788 365.621L150.099 358.03L150.759 341.197L141.847 319.744Z" fill="#575A89"/>
<path d="M147.128 354.729C147.128 354.729 136.236 351.759 136.566 356.38C136.896 361 138.546 366.611 143.827 367.931C149.108 369.252 150.758 361.991 150.758 361.991C150.758 361.991 151.418 355.39 147.128 354.729Z" fill="#575A89"/>
<path d="M188.054 369.912C188.054 369.912 187.394 385.094 183.434 386.744L193.005 389.055C193.005 389.055 197.626 373.212 196.966 372.552C196.306 371.892 188.054 369.912 188.054 369.912Z" fill="#D697A0"/>
<path d="M131.443 339.008L137.111 336.532C137.323 336.439 137.562 336.435 137.777 336.519C137.993 336.603 138.165 336.77 138.258 336.981L144.559 351.406C144.672 351.665 144.678 351.958 144.575 352.22C144.472 352.483 144.269 352.694 144.01 352.807L138.696 355.129C138.437 355.242 138.144 355.247 137.881 355.144C137.619 355.041 137.408 354.838 137.295 354.58L130.993 340.155C130.947 340.05 130.923 339.937 130.921 339.823C130.918 339.708 130.939 339.595 130.98 339.488C131.022 339.382 131.085 339.285 131.164 339.202C131.243 339.12 131.338 339.054 131.443 339.008Z" fill="#2F2E41"/>
<path opacity="0.1" d="M131.443 339.008L137.111 336.532C137.323 336.439 137.562 336.435 137.777 336.519C137.993 336.603 138.165 336.77 138.258 336.981L144.559 351.406C144.672 351.665 144.678 351.958 144.575 352.22C144.472 352.483 144.269 352.694 144.01 352.807L138.696 355.129C138.437 355.242 138.144 355.247 137.881 355.144C137.619 355.041 137.408 354.838 137.295 354.58L130.993 340.155C130.947 340.05 130.923 339.937 130.921 339.823C130.918 339.708 130.939 339.595 130.98 339.488C131.022 339.382 131.085 339.285 131.164 339.202C131.243 339.12 131.338 339.054 131.443 339.008Z" fill="black"/>
<path d="M131.765 339.744L136.707 337.585C136.918 337.493 137.158 337.488 137.373 337.573C137.588 337.657 137.761 337.823 137.854 338.035L143.833 351.724C143.946 351.982 143.952 352.275 143.849 352.538C143.746 352.8 143.543 353.011 143.284 353.124L138.696 355.129C138.438 355.242 138.145 355.247 137.882 355.144C137.619 355.041 137.408 354.838 137.295 354.58L131.315 340.891C131.223 340.679 131.218 340.44 131.303 340.225C131.387 340.01 131.553 339.837 131.765 339.744Z" fill="#2F2E41"/>
<path d="M136.31 345.583C137.112 345.233 137.475 344.289 137.119 343.476C136.764 342.663 135.826 342.288 135.023 342.638C134.221 342.989 133.858 343.932 134.214 344.745C134.569 345.559 135.507 345.934 136.31 345.583Z" fill="#F2F2F2"/>
<path opacity="0.1" d="M190.528 318.259L192.673 315.123C192.673 315.123 200.594 327.335 199.934 335.587C199.274 343.838 198.614 344.168 198.614 345.488C198.614 346.808 196.964 346.808 198.614 348.459C200.264 350.109 202.574 352.419 201.254 353.739C199.934 355.06 198.944 355.06 199.274 356.71C199.485 357.909 199.595 359.123 199.604 360.34C199.604 360.34 196.799 365.786 195.808 365.786C194.818 365.786 185.412 374.533 185.412 373.542C185.412 372.552 186.402 365.621 186.402 364.631C186.402 363.641 186.732 360.34 187.392 359.35C188.052 358.36 188.052 358.69 187.392 357.7C186.732 356.71 186.732 357.7 186.732 356.71C186.732 355.72 187.062 354.399 186.072 354.069C185.082 353.739 184.092 354.069 184.752 352.419C185.412 350.769 184.752 349.449 184.422 349.449C184.092 349.449 182.441 349.119 183.431 348.128C184.422 347.138 181.451 327.995 181.451 327.995C181.451 327.995 181.946 323.21 190.528 318.259Z" fill="black"/>
<path d="M188.715 311.163L194.326 313.803C194.326 313.803 202.247 326.015 201.587 334.266C200.927 342.517 200.267 342.848 200.267 344.168C200.267 345.488 198.617 345.488 200.267 347.138C201.917 348.788 204.228 351.099 202.908 352.419C201.587 353.739 200.597 353.739 200.927 355.389C201.138 356.588 201.249 357.803 201.257 359.02C201.257 359.02 198.287 374.862 197.297 374.862C196.307 374.862 187.065 373.212 187.065 372.222C187.065 371.232 188.055 364.301 188.055 363.311C188.055 362.321 188.385 359.02 189.045 358.03C189.706 357.04 189.706 357.37 189.045 356.38C188.385 355.389 188.385 356.38 188.385 355.389C188.385 354.399 188.715 353.079 187.725 352.749C186.735 352.419 185.745 352.749 186.405 351.099C187.065 349.449 186.405 348.128 186.075 348.128C185.745 348.128 184.095 347.798 185.085 346.808C186.075 345.818 183.105 326.675 183.105 326.675C183.105 326.675 180.134 316.113 188.715 311.163Z" fill="#575A89"/>
<path d="M138.631 357.087C138.324 357.168 137.998 357.141 137.708 357.01C137.418 356.879 137.182 356.653 137.04 356.369C135.523 353.336 131.414 344.441 135.245 344.168C138.779 343.915 141.927 350.807 143.212 354.062C143.294 354.269 143.331 354.49 143.32 354.712C143.31 354.935 143.253 355.152 143.153 355.35C143.052 355.549 142.911 355.723 142.738 355.863C142.565 356.003 142.364 356.104 142.149 356.161L138.631 357.087Z" fill="#D697A0"/>
<path d="M157.688 302.251C164.433 302.251 169.9 296.784 169.9 290.039C169.9 283.295 164.433 277.828 157.688 277.828C150.944 277.828 145.477 283.295 145.477 290.039C145.477 296.784 150.944 302.251 157.688 302.251Z" fill="#D697A0"/>
<path d="M153.203 283.006C151.679 283.532 150.106 283.903 148.508 284.115C147.306 284.302 145.898 284.398 145.053 283.522C144.223 282.663 144.358 281.229 144.923 280.177C145.489 279.125 146.396 278.3 147.076 277.318C148.145 275.773 148.776 273.725 150.486 272.947C151.195 272.676 151.947 272.535 152.706 272.532C157.143 272.249 161.762 271.994 165.872 273.693C167.416 274.281 168.784 275.254 169.846 276.52C170.541 277.452 171.078 278.493 171.434 279.6C172.532 282.858 172.776 286.343 172.143 289.722C171.51 293.102 170.021 296.262 167.818 298.901C166.32 297.552 166.971 294.434 165.076 293.747C164.455 293.521 163.752 293.678 163.115 293.499C161.114 292.938 161.214 289.845 159.548 288.603C159.184 288.407 158.862 288.142 158.599 287.823C158.453 287.517 158.389 287.178 158.415 286.84C158.402 285.681 158.947 282.738 157.841 281.943C156.716 281.135 154.284 282.616 153.203 283.006Z" fill="#2F2E41"/>
<path d="M146.555 483.016C146.555 483.016 145.657 463.707 127.254 465.952L146.555 483.016Z" fill="#E6E6E6"/>
<path d="M224.152 437.799C224.152 437.799 225.05 418.49 243.454 420.735L224.152 437.799Z" fill="#E6E6E6"/>
<path d="M223.773 499.398C223.75 499.194 221.564 478.947 230.415 468.231C233.682 464.276 238.059 462.061 243.425 461.649L243.484 462.412C238.334 462.808 234.135 464.93 231.006 468.717C222.362 479.18 224.511 499.111 224.533 499.311L223.773 499.398Z" fill="#E6E6E6"/>
<path d="M146.639 460.545H145.873V502.65H146.639V460.545Z" fill="#E6E6E6"/>
<path d="M223.957 418.057H223.191V502.65H223.957V418.057Z" fill="#E6E6E6"/>
<path d="M146.556 461.912C150.026 461.912 152.84 459.098 152.84 455.628C152.84 452.157 150.026 449.344 146.556 449.344C143.085 449.344 140.271 452.157 140.271 455.628C140.271 459.098 143.085 461.912 146.556 461.912Z" fill="#6C63FF"/>
<path d="M224.153 418.49C227.624 418.49 230.437 415.677 230.437 412.206C230.437 408.736 227.624 405.922 224.153 405.922C220.683 405.922 217.869 408.736 217.869 412.206C217.869 415.677 220.683 418.49 224.153 418.49Z" fill="#6C63FF"/>
<path d="M243.454 468.314C246.925 468.314 249.738 465.501 249.738 462.03C249.738 458.56 246.925 455.746 243.454 455.746C239.983 455.746 237.17 458.56 237.17 462.03C237.17 465.501 239.983 468.314 243.454 468.314Z" fill="#E6E6E6"/>
</g>
<path d="M18.62 564V552.192H21.572C23.396 552.192 24.782 552.696 25.73 553.704C26.678 554.712 27.152 556.158 27.152 558.042C27.152 558.978 27.032 559.818 26.792 560.562C26.552 561.294 26.198 561.918 25.73 562.434C25.262 562.938 24.686 563.328 24.002 563.604C23.318 563.868 22.532 564 21.644 564H18.62ZM20.114 562.776H21.464C22.844 562.776 23.876 562.362 24.56 561.534C25.256 560.706 25.604 559.542 25.604 558.042C25.604 556.542 25.256 555.396 24.56 554.604C23.876 553.812 22.844 553.416 21.464 553.416H20.114V562.776ZM29.5502 564V555.252H31.0262V564H29.5502ZM30.3062 553.452C30.0182 553.452 29.7722 553.362 29.5682 553.182C29.3762 553.002 29.2802 552.774 29.2802 552.498C29.2802 552.21 29.3762 551.982 29.5682 551.814C29.7722 551.634 30.0182 551.544 30.3062 551.544C30.5942 551.544 30.8342 551.634 31.0262 551.814C31.2302 551.982 31.3322 552.21 31.3322 552.498C31.3322 552.774 31.2302 553.002 31.0262 553.182C30.8342 553.362 30.5942 553.452 30.3062 553.452ZM36.2659 564.216C35.6419 564.216 35.0479 564.102 34.4839 563.874C33.9199 563.646 33.4279 563.358 33.0079 563.01L33.7459 562.02C34.1299 562.332 34.5199 562.584 34.9159 562.776C35.3239 562.968 35.7919 563.064 36.3199 563.064C36.8959 563.064 37.3279 562.932 37.6159 562.668C37.9039 562.404 38.0479 562.08 38.0479 561.696C38.0479 561.468 37.9879 561.27 37.8679 561.102C37.7479 560.934 37.5919 560.79 37.3999 560.67C37.2199 560.538 37.0099 560.424 36.7699 560.328C36.5299 560.232 36.2899 560.136 36.0499 560.04C35.7379 559.932 35.4259 559.812 35.1139 559.68C34.8019 559.536 34.5199 559.368 34.2679 559.176C34.0279 558.972 33.8299 558.738 33.6739 558.474C33.5179 558.21 33.4399 557.892 33.4399 557.52C33.4399 557.172 33.5059 556.848 33.6379 556.548C33.7819 556.236 33.9799 555.972 34.2319 555.756C34.4959 555.528 34.8139 555.354 35.1859 555.234C35.5579 555.102 35.9779 555.036 36.4459 555.036C36.9979 555.036 37.5019 555.132 37.9579 555.324C38.4259 555.516 38.8279 555.75 39.1639 556.026L38.4619 556.962C38.1619 556.734 37.8499 556.548 37.5259 556.404C37.2019 556.26 36.8479 556.188 36.4639 556.188C35.9119 556.188 35.5039 556.314 35.2399 556.566C34.9879 556.818 34.8619 557.112 34.8619 557.448C34.8619 557.652 34.9159 557.832 35.0239 557.988C35.1319 558.132 35.2759 558.264 35.4559 558.384C35.6359 558.492 35.8399 558.594 36.0679 558.69C36.3079 558.774 36.5539 558.864 36.8059 558.96C37.1179 559.08 37.4299 559.206 37.7419 559.338C38.0659 559.47 38.3539 559.638 38.6059 559.842C38.8579 560.034 39.0619 560.274 39.2179 560.562C39.3859 560.85 39.4699 561.198 39.4699 561.606C39.4699 561.966 39.3979 562.302 39.2539 562.614C39.1219 562.926 38.9179 563.202 38.6419 563.442C38.3779 563.682 38.0419 563.868 37.6339 564C37.2379 564.144 36.7819 564.216 36.2659 564.216ZM44.9769 564.216C44.4009 564.216 43.8609 564.114 43.3569 563.91C42.8529 563.706 42.4149 563.412 42.0429 563.028C41.6829 562.632 41.3949 562.152 41.1789 561.588C40.9749 561.012 40.8729 560.364 40.8729 559.644C40.8729 558.912 40.9869 558.264 41.2149 557.7C41.4429 557.124 41.7489 556.638 42.1329 556.242C42.5169 555.846 42.9609 555.546 43.4649 555.342C43.9809 555.138 44.5209 555.036 45.0849 555.036C45.6609 555.036 46.1529 555.138 46.5609 555.342C46.9689 555.546 47.3289 555.786 47.6409 556.062L46.8849 557.034C46.6329 556.806 46.3629 556.62 46.0749 556.476C45.7989 556.332 45.4869 556.26 45.1389 556.26C44.7429 556.26 44.3769 556.344 44.0409 556.512C43.7049 556.668 43.4169 556.896 43.1769 557.196C42.9369 557.496 42.7449 557.856 42.6009 558.276C42.4689 558.684 42.4029 559.14 42.4029 559.644C42.4029 560.148 42.4689 560.604 42.6009 561.012C42.7329 561.42 42.9129 561.774 43.1409 562.074C43.3809 562.362 43.6689 562.59 44.0049 562.758C44.3409 562.914 44.7069 562.992 45.1029 562.992C45.5109 562.992 45.8829 562.908 46.2189 562.74C46.5669 562.56 46.8789 562.35 47.1549 562.11L47.8029 563.1C47.4069 563.448 46.9689 563.724 46.4889 563.928C46.0089 564.12 45.5049 564.216 44.9769 564.216ZM52.7452 564.216C52.2052 564.216 51.6892 564.114 51.1972 563.91C50.7172 563.706 50.2912 563.412 49.9192 563.028C49.5472 562.632 49.2472 562.152 49.0192 561.588C48.8032 561.012 48.6952 560.364 48.6952 559.644C48.6952 558.912 48.8032 558.264 49.0192 557.7C49.2472 557.124 49.5472 556.638 49.9192 556.242C50.2912 555.846 50.7172 555.546 51.1972 555.342C51.6892 555.138 52.2052 555.036 52.7452 555.036C53.2852 555.036 53.7952 555.138 54.2752 555.342C54.7672 555.546 55.1992 555.846 55.5712 556.242C55.9432 556.638 56.2372 557.124 56.4532 557.7C56.6812 558.264 56.7952 558.912 56.7952 559.644C56.7952 560.364 56.6812 561.012 56.4532 561.588C56.2372 562.152 55.9432 562.632 55.5712 563.028C55.1992 563.412 54.7672 563.706 54.2752 563.91C53.7952 564.114 53.2852 564.216 52.7452 564.216ZM52.7452 562.992C53.1172 562.992 53.4592 562.914 53.7712 562.758C54.0832 562.59 54.3472 562.362 54.5632 562.074C54.7912 561.774 54.9652 561.42 55.0852 561.012C55.2052 560.604 55.2652 560.148 55.2652 559.644C55.2652 559.14 55.2052 558.684 55.0852 558.276C54.9652 557.856 54.7912 557.496 54.5632 557.196C54.3472 556.896 54.0832 556.668 53.7712 556.512C53.4592 556.344 53.1172 556.26 52.7452 556.26C52.3732 556.26 52.0312 556.344 51.7192 556.512C51.4072 556.668 51.1372 556.896 50.9092 557.196C50.6932 557.496 50.5252 557.856 50.4052 558.276C50.2852 558.684 50.2252 559.14 50.2252 559.644C50.2252 560.148 50.2852 560.604 50.4052 561.012C50.5252 561.42 50.6932 561.774 50.9092 562.074C51.1372 562.362 51.4072 562.59 51.7192 562.758C52.0312 562.914 52.3732 562.992 52.7452 562.992ZM60.9187 564L57.7687 555.252H59.2987L60.9547 560.22C61.0867 560.652 61.2187 561.084 61.3507 561.516C61.4947 561.948 61.6327 562.374 61.7647 562.794H61.8367C61.9687 562.374 62.1007 561.948 62.2327 561.516C62.3647 561.084 62.4967 560.652 62.6287 560.22L64.2847 555.252H65.7427L62.6467 564H60.9187ZM70.9068 564.216C70.3188 564.216 69.7668 564.114 69.2508 563.91C68.7468 563.694 68.3028 563.394 67.9188 563.01C67.5468 562.614 67.2528 562.134 67.0368 561.57C66.8208 561.006 66.7128 560.364 66.7128 559.644C66.7128 558.924 66.8208 558.282 67.0368 557.718C67.2648 557.142 67.5588 556.656 67.9188 556.26C68.2908 555.864 68.7108 555.564 69.1788 555.36C69.6468 555.144 70.1328 555.036 70.6368 555.036C71.1888 555.036 71.6808 555.132 72.1128 555.324C72.5568 555.516 72.9228 555.792 73.2108 556.152C73.5108 556.512 73.7388 556.944 73.8948 557.448C74.0508 557.952 74.1288 558.516 74.1288 559.14C74.1288 559.296 74.1228 559.452 74.1108 559.608C74.1108 559.752 74.0988 559.878 74.0748 559.986H68.1708C68.2308 560.922 68.5188 561.666 69.0348 562.218C69.5628 562.758 70.2468 563.028 71.0868 563.028C71.5068 563.028 71.8908 562.968 72.2388 562.848C72.5988 562.716 72.9408 562.548 73.2648 562.344L73.7868 563.316C73.4028 563.556 72.9768 563.766 72.5088 563.946C72.0408 564.126 71.5068 564.216 70.9068 564.216ZM68.1528 558.924H72.8328C72.8328 558.036 72.6408 557.364 72.2568 556.908C71.8848 556.44 71.3568 556.206 70.6728 556.206C70.3608 556.206 70.0608 556.266 69.7728 556.386C69.4968 556.506 69.2448 556.686 69.0168 556.926C68.7888 557.154 68.5968 557.436 68.4408 557.772C68.2968 558.108 68.2008 558.492 68.1528 558.924ZM76.2905 564V555.252H77.5145L77.6405 556.836H77.6945C77.9945 556.284 78.3545 555.846 78.7745 555.522C79.2065 555.198 79.6745 555.036 80.1785 555.036C80.5265 555.036 80.8385 555.096 81.1145 555.216L80.8265 556.512C80.6825 556.464 80.5505 556.428 80.4305 556.404C80.3105 556.38 80.1605 556.368 79.9805 556.368C79.6085 556.368 79.2185 556.518 78.8105 556.818C78.4145 557.118 78.0665 557.64 77.7665 558.384V564H76.2905ZM86.1342 567.69V555.252H87.3582L87.4842 556.26H87.5382C87.9342 555.924 88.3662 555.636 88.8342 555.396C89.3142 555.156 89.8122 555.036 90.3282 555.036C90.8922 555.036 91.3902 555.144 91.8222 555.36C92.2542 555.564 92.6142 555.864 92.9022 556.26C93.1902 556.644 93.4062 557.112 93.5502 557.664C93.7062 558.204 93.7842 558.816 93.7842 559.5C93.7842 560.244 93.6822 560.91 93.4782 561.498C93.2742 562.074 92.9982 562.566 92.6502 562.974C92.3022 563.382 91.9002 563.694 91.4442 563.91C90.9882 564.114 90.5082 564.216 90.0042 564.216C89.5962 564.216 89.1882 564.126 88.7802 563.946C88.3842 563.766 87.9822 563.52 87.5742 563.208L87.6102 564.738V567.69H86.1342ZM89.7522 562.974C90.1122 562.974 90.4422 562.896 90.7422 562.74C91.0542 562.572 91.3182 562.344 91.5342 562.056C91.7622 561.756 91.9362 561.39 92.0562 560.958C92.1882 560.526 92.2542 560.04 92.2542 559.5C92.2542 559.02 92.2122 558.582 92.1282 558.186C92.0442 557.79 91.9062 557.454 91.7142 557.178C91.5342 556.89 91.2942 556.668 90.9942 556.512C90.7062 556.356 90.3582 556.278 89.9502 556.278C89.5782 556.278 89.2002 556.38 88.8162 556.584C88.4442 556.788 88.0422 557.082 87.6102 557.466V562.056C88.0062 562.392 88.3902 562.632 88.7622 562.776C89.1342 562.908 89.4642 562.974 89.7522 562.974ZM99.6646 564.216C99.0766 564.216 98.5246 564.114 98.0086 563.91C97.5046 563.694 97.0606 563.394 96.6766 563.01C96.3046 562.614 96.0106 562.134 95.7946 561.57C95.5786 561.006 95.4706 560.364 95.4706 559.644C95.4706 558.924 95.5786 558.282 95.7946 557.718C96.0226 557.142 96.3166 556.656 96.6766 556.26C97.0486 555.864 97.4686 555.564 97.9366 555.36C98.4046 555.144 98.8906 555.036 99.3946 555.036C99.9466 555.036 100.439 555.132 100.871 555.324C101.315 555.516 101.681 555.792 101.969 556.152C102.269 556.512 102.497 556.944 102.653 557.448C102.809 557.952 102.887 558.516 102.887 559.14C102.887 559.296 102.881 559.452 102.869 559.608C102.869 559.752 102.857 559.878 102.833 559.986H96.9286C96.9886 560.922 97.2766 561.666 97.7926 562.218C98.3206 562.758 99.0046 563.028 99.8446 563.028C100.265 563.028 100.649 562.968 100.997 562.848C101.357 562.716 101.699 562.548 102.023 562.344L102.545 563.316C102.161 563.556 101.735 563.766 101.267 563.946C100.799 564.126 100.265 564.216 99.6646 564.216ZM96.9106 558.924H101.591C101.591 558.036 101.399 557.364 101.015 556.908C100.643 556.44 100.115 556.206 99.4306 556.206C99.1186 556.206 98.8186 556.266 98.5306 556.386C98.2546 556.506 98.0026 556.686 97.7746 556.926C97.5466 557.154 97.3546 557.436 97.1986 557.772C97.0546 558.108 96.9586 558.492 96.9106 558.924ZM108.45 564.216C107.91 564.216 107.394 564.114 106.902 563.91C106.422 563.706 105.996 563.412 105.624 563.028C105.252 562.632 104.952 562.152 104.724 561.588C104.508 561.012 104.4 560.364 104.4 559.644C104.4 558.912 104.508 558.264 104.724 557.7C104.952 557.124 105.252 556.638 105.624 556.242C105.996 555.846 106.422 555.546 106.902 555.342C107.394 555.138 107.91 555.036 108.45 555.036C108.99 555.036 109.5 555.138 109.98 555.342C110.472 555.546 110.904 555.846 111.276 556.242C111.648 556.638 111.942 557.124 112.158 557.7C112.386 558.264 112.5 558.912 112.5 559.644C112.5 560.364 112.386 561.012 112.158 561.588C111.942 562.152 111.648 562.632 111.276 563.028C110.904 563.412 110.472 563.706 109.98 563.91C109.5 564.114 108.99 564.216 108.45 564.216ZM108.45 562.992C108.822 562.992 109.164 562.914 109.476 562.758C109.788 562.59 110.052 562.362 110.268 562.074C110.496 561.774 110.67 561.42 110.79 561.012C110.91 560.604 110.97 560.148 110.97 559.644C110.97 559.14 110.91 558.684 110.79 558.276C110.67 557.856 110.496 557.496 110.268 557.196C110.052 556.896 109.788 556.668 109.476 556.512C109.164 556.344 108.822 556.26 108.45 556.26C108.078 556.26 107.736 556.344 107.424 556.512C107.112 556.668 106.842 556.896 106.614 557.196C106.398 557.496 106.23 557.856 106.11 558.276C105.99 558.684 105.93 559.14 105.93 559.644C105.93 560.148 105.99 560.604 106.11 561.012C106.23 561.42 106.398 561.774 106.614 562.074C106.842 562.362 107.112 562.59 107.424 562.758C107.736 562.914 108.078 562.992 108.45 562.992ZM114.804 567.69V555.252H116.028L116.154 556.26H116.208C116.604 555.924 117.036 555.636 117.504 555.396C117.984 555.156 118.482 555.036 118.998 555.036C119.562 555.036 120.06 555.144 120.492 555.36C120.924 555.564 121.284 555.864 121.572 556.26C121.86 556.644 122.076 557.112 122.22 557.664C122.376 558.204 122.454 558.816 122.454 559.5C122.454 560.244 122.352 560.91 122.148 561.498C121.944 562.074 121.668 562.566 121.32 562.974C120.972 563.382 120.57 563.694 120.114 563.91C119.658 564.114 119.178 564.216 118.674 564.216C118.266 564.216 117.858 564.126 117.45 563.946C117.054 563.766 116.652 563.52 116.244 563.208L116.28 564.738V567.69H114.804ZM118.422 562.974C118.782 562.974 119.112 562.896 119.412 562.74C119.724 562.572 119.988 562.344 120.204 562.056C120.432 561.756 120.606 561.39 120.726 560.958C120.858 560.526 120.924 560.04 120.924 559.5C120.924 559.02 120.882 558.582 120.798 558.186C120.714 557.79 120.576 557.454 120.384 557.178C120.204 556.89 119.964 556.668 119.664 556.512C119.376 556.356 119.028 556.278 118.62 556.278C118.248 556.278 117.87 556.38 117.486 556.584C117.114 556.788 116.712 557.082 116.28 557.466V562.056C116.676 562.392 117.06 562.632 117.432 562.776C117.804 562.908 118.134 562.974 118.422 562.974ZM126.355 564.216C125.791 564.216 125.389 564.048 125.149 563.712C124.909 563.376 124.789 562.884 124.789 562.236V551.184H126.265V562.344C126.265 562.584 126.307 562.752 126.391 562.848C126.475 562.944 126.571 562.992 126.679 562.992C126.727 562.992 126.769 562.992 126.805 562.992C126.853 562.992 126.919 562.98 127.003 562.956L127.201 564.072C127.105 564.12 126.991 564.156 126.859 564.18C126.727 564.204 126.559 564.216 126.355 564.216ZM132.922 564.216C132.334 564.216 131.782 564.114 131.266 563.91C130.762 563.694 130.318 563.394 129.934 563.01C129.562 562.614 129.268 562.134 129.052 561.57C128.836 561.006 128.728 560.364 128.728 559.644C128.728 558.924 128.836 558.282 129.052 557.718C129.28 557.142 129.574 556.656 129.934 556.26C130.306 555.864 130.726 555.564 131.194 555.36C131.662 555.144 132.148 555.036 132.652 555.036C133.204 555.036 133.696 555.132 134.128 555.324C134.572 555.516 134.938 555.792 135.226 556.152C135.526 556.512 135.754 556.944 135.91 557.448C136.066 557.952 136.144 558.516 136.144 559.14C136.144 559.296 136.138 559.452 136.126 559.608C136.126 559.752 136.114 559.878 136.09 559.986H130.186C130.246 560.922 130.534 561.666 131.05 562.218C131.578 562.758 132.262 563.028 133.102 563.028C133.522 563.028 133.906 562.968 134.254 562.848C134.614 562.716 134.956 562.548 135.28 562.344L135.802 563.316C135.418 563.556 134.992 563.766 134.524 563.946C134.056 564.126 133.522 564.216 132.922 564.216ZM130.168 558.924H134.848C134.848 558.036 134.656 557.364 134.272 556.908C133.9 556.44 133.372 556.206 132.688 556.206C132.376 556.206 132.076 556.266 131.788 556.386C131.512 556.506 131.26 556.686 131.032 556.926C130.804 557.154 130.612 557.436 130.456 557.772C130.312 558.108 130.216 558.492 130.168 558.924ZM143.296 564L140.866 555.252H142.378L143.674 560.31C143.77 560.73 143.86 561.138 143.944 561.534C144.028 561.93 144.112 562.332 144.196 562.74H144.268C144.364 562.332 144.46 561.93 144.556 561.534C144.652 561.126 144.754 560.718 144.862 560.31L146.212 555.252H147.652L149.02 560.31C149.128 560.73 149.23 561.138 149.326 561.534C149.434 561.93 149.536 562.332 149.632 562.74H149.704C149.8 562.332 149.89 561.93 149.974 561.534C150.058 561.138 150.148 560.73 150.244 560.31L151.522 555.252H152.926L150.586 564H148.786L147.526 559.302C147.418 558.882 147.316 558.468 147.22 558.06C147.136 557.652 147.04 557.226 146.932 556.782H146.86C146.764 557.226 146.668 557.658 146.572 558.078C146.476 558.486 146.368 558.9 146.248 559.32L145.024 564H143.296ZM154.83 564V551.184H156.306V554.676L156.252 556.476C156.672 556.08 157.11 555.744 157.566 555.468C158.022 555.18 158.556 555.036 159.168 555.036C160.092 555.036 160.764 555.324 161.184 555.9C161.616 556.476 161.832 557.328 161.832 558.456V564H160.356V558.654C160.356 557.826 160.224 557.232 159.96 556.872C159.696 556.5 159.276 556.314 158.7 556.314C158.244 556.314 157.842 556.428 157.494 556.656C157.146 556.884 156.75 557.22 156.306 557.664V564H154.83ZM168.023 564.216C167.483 564.216 166.967 564.114 166.475 563.91C165.995 563.706 165.569 563.412 165.197 563.028C164.825 562.632 164.525 562.152 164.297 561.588C164.081 561.012 163.973 560.364 163.973 559.644C163.973 558.912 164.081 558.264 164.297 557.7C164.525 557.124 164.825 556.638 165.197 556.242C165.569 555.846 165.995 555.546 166.475 555.342C166.967 555.138 167.483 555.036 168.023 555.036C168.563 555.036 169.073 555.138 169.553 555.342C170.045 555.546 170.477 555.846 170.849 556.242C171.221 556.638 171.515 557.124 171.731 557.7C171.959 558.264 172.073 558.912 172.073 559.644C172.073 560.364 171.959 561.012 171.731 561.588C171.515 562.152 171.221 562.632 170.849 563.028C170.477 563.412 170.045 563.706 169.553 563.91C169.073 564.114 168.563 564.216 168.023 564.216ZM168.023 562.992C168.395 562.992 168.737 562.914 169.049 562.758C169.361 562.59 169.625 562.362 169.841 562.074C170.069 561.774 170.243 561.42 170.363 561.012C170.483 560.604 170.543 560.148 170.543 559.644C170.543 559.14 170.483 558.684 170.363 558.276C170.243 557.856 170.069 557.496 169.841 557.196C169.625 556.896 169.361 556.668 169.049 556.512C168.737 556.344 168.395 556.26 168.023 556.26C167.651 556.26 167.309 556.344 166.997 556.512C166.685 556.668 166.415 556.896 166.187 557.196C165.971 557.496 165.803 557.856 165.683 558.276C165.563 558.684 165.503 559.14 165.503 559.644C165.503 560.148 165.563 560.604 165.683 561.012C165.803 561.42 165.971 561.774 166.187 562.074C166.415 562.362 166.685 562.59 166.997 562.758C167.309 562.914 167.651 562.992 168.023 562.992ZM179.996 564.216C179.264 564.216 178.652 564 178.16 563.568C177.68 563.136 177.44 562.524 177.44 561.732C177.44 560.772 177.866 560.04 178.718 559.536C179.57 559.02 180.932 558.66 182.804 558.456C182.804 558.18 182.774 557.91 182.714 557.646C182.666 557.382 182.576 557.148 182.444 556.944C182.312 556.74 182.126 556.578 181.886 556.458C181.658 556.326 181.364 556.26 181.004 556.26C180.5 556.26 180.026 556.356 179.582 556.548C179.138 556.74 178.742 556.956 178.394 557.196L177.818 556.17C178.226 555.906 178.724 555.654 179.312 555.414C179.9 555.162 180.548 555.036 181.256 555.036C182.324 555.036 183.098 555.366 183.578 556.026C184.058 556.674 184.298 557.544 184.298 558.636V564H183.074L182.948 562.956H182.894C182.474 563.304 182.024 563.604 181.544 563.856C181.064 564.096 180.548 564.216 179.996 564.216ZM180.428 563.028C180.848 563.028 181.244 562.932 181.616 562.74C181.988 562.536 182.384 562.242 182.804 561.858V559.428C182.072 559.524 181.454 559.638 180.95 559.77C180.458 559.902 180.056 560.058 179.744 560.238C179.444 560.418 179.222 560.628 179.078 560.868C178.946 561.096 178.88 561.348 178.88 561.624C178.88 562.128 179.03 562.488 179.33 562.704C179.63 562.92 179.996 563.028 180.428 563.028ZM187.05 564V555.252H188.274L188.4 556.836H188.454C188.754 556.284 189.114 555.846 189.534 555.522C189.966 555.198 190.434 555.036 190.938 555.036C191.286 555.036 191.598 555.096 191.874 555.216L191.586 556.512C191.442 556.464 191.31 556.428 191.19 556.404C191.07 556.38 190.92 556.368 190.74 556.368C190.368 556.368 189.978 556.518 189.57 556.818C189.174 557.118 188.826 557.64 188.526 558.384V564H187.05ZM196.661 564.216C196.073 564.216 195.521 564.114 195.005 563.91C194.501 563.694 194.057 563.394 193.673 563.01C193.301 562.614 193.007 562.134 192.791 561.57C192.575 561.006 192.467 560.364 192.467 559.644C192.467 558.924 192.575 558.282 192.791 557.718C193.019 557.142 193.313 556.656 193.673 556.26C194.045 555.864 194.465 555.564 194.933 555.36C195.401 555.144 195.887 555.036 196.391 555.036C196.943 555.036 197.435 555.132 197.867 555.324C198.311 555.516 198.677 555.792 198.965 556.152C199.265 556.512 199.493 556.944 199.649 557.448C199.805 557.952 199.883 558.516 199.883 559.14C199.883 559.296 199.877 559.452 199.865 559.608C199.865 559.752 199.853 559.878 199.829 559.986H193.925C193.985 560.922 194.273 561.666 194.789 562.218C195.317 562.758 196.001 563.028 196.841 563.028C197.261 563.028 197.645 562.968 197.993 562.848C198.353 562.716 198.695 562.548 199.019 562.344L199.541 563.316C199.157 563.556 198.731 563.766 198.263 563.946C197.795 564.126 197.261 564.216 196.661 564.216ZM193.907 558.924H198.587C198.587 558.036 198.395 557.364 198.011 556.908C197.639 556.44 197.111 556.206 196.427 556.206C196.115 556.206 195.815 556.266 195.527 556.386C195.251 556.506 194.999 556.686 194.771 556.926C194.543 557.154 194.351 557.436 194.195 557.772C194.051 558.108 193.955 558.492 193.907 558.924ZM207.034 564L204.604 555.252H206.116L207.412 560.31C207.508 560.73 207.598 561.138 207.682 561.534C207.766 561.93 207.85 562.332 207.934 562.74H208.006C208.102 562.332 208.198 561.93 208.294 561.534C208.39 561.126 208.492 560.718 208.6 560.31L209.95 555.252H211.39L212.758 560.31C212.866 560.73 212.968 561.138 213.064 561.534C213.172 561.93 213.274 562.332 213.37 562.74H213.442C213.538 562.332 213.628 561.93 213.712 561.534C213.796 561.138 213.886 560.73 213.982 560.31L215.26 555.252H216.664L214.324 564H212.524L211.264 559.302C211.156 558.882 211.054 558.468 210.958 558.06C210.874 557.652 210.778 557.226 210.67 556.782H210.598C210.502 557.226 210.406 557.658 210.31 558.078C210.214 558.486 210.106 558.9 209.986 559.32L208.762 564H207.034ZM218.568 564V555.252H220.044V564H218.568ZM219.324 553.452C219.036 553.452 218.79 553.362 218.586 553.182C218.394 553.002 218.298 552.774 218.298 552.498C218.298 552.21 218.394 551.982 218.586 551.814C218.79 551.634 219.036 551.544 219.324 551.544C219.612 551.544 219.852 551.634 220.044 551.814C220.248 551.982 220.35 552.21 220.35 552.498C220.35 552.774 220.248 553.002 220.044 553.182C219.852 553.362 219.612 553.452 219.324 553.452ZM224.563 564.216C223.999 564.216 223.597 564.048 223.357 563.712C223.117 563.376 222.997 562.884 222.997 562.236V551.184H224.473V562.344C224.473 562.584 224.515 562.752 224.599 562.848C224.683 562.944 224.779 562.992 224.887 562.992C224.935 562.992 224.977 562.992 225.013 562.992C225.061 562.992 225.127 562.98 225.211 562.956L225.409 564.072C225.313 564.12 225.199 564.156 225.067 564.18C224.935 564.204 224.767 564.216 224.563 564.216ZM229.151 564.216C228.587 564.216 228.185 564.048 227.945 563.712C227.705 563.376 227.585 562.884 227.585 562.236V551.184H229.061V562.344C229.061 562.584 229.103 562.752 229.187 562.848C229.271 562.944 229.367 562.992 229.475 562.992C229.523 562.992 229.565 562.992 229.601 562.992C229.649 562.992 229.715 562.98 229.799 562.956L229.997 564.072C229.901 564.12 229.787 564.156 229.655 564.18C229.523 564.204 229.355 564.216 229.151 564.216ZM232.173 564V555.252H233.649V564H232.173ZM232.929 553.452C232.641 553.452 232.395 553.362 232.191 553.182C231.999 553.002 231.903 552.774 231.903 552.498C231.903 552.21 231.999 551.982 232.191 551.814C232.395 551.634 232.641 551.544 232.929 551.544C233.217 551.544 233.457 551.634 233.649 551.814C233.853 551.982 233.955 552.21 233.955 552.498C233.955 552.774 233.853 553.002 233.649 553.182C233.457 553.362 233.217 553.452 232.929 553.452ZM236.603 564V555.252H237.827L237.953 556.512H238.007C238.427 556.092 238.865 555.744 239.321 555.468C239.789 555.18 240.329 555.036 240.941 555.036C241.865 555.036 242.537 555.324 242.957 555.9C243.389 556.476 243.605 557.328 243.605 558.456V564H242.129V558.654C242.129 557.826 241.997 557.232 241.733 556.872C241.469 556.5 241.049 556.314 240.473 556.314C240.017 556.314 239.615 556.428 239.267 556.656C238.919 556.884 238.523 557.22 238.079 557.664V564H236.603ZM249.399 568.032C248.859 568.032 248.367 567.978 247.923 567.87C247.479 567.774 247.095 567.624 246.771 567.42C246.459 567.216 246.213 566.97 246.033 566.682C245.865 566.394 245.781 566.058 245.781 565.674C245.781 565.302 245.895 564.948 246.123 564.612C246.351 564.276 246.663 563.97 247.059 563.694V563.622C246.843 563.49 246.657 563.31 246.501 563.082C246.357 562.842 246.285 562.548 246.285 562.2C246.285 561.828 246.387 561.504 246.591 561.228C246.795 560.952 247.011 560.736 247.239 560.58V560.508C246.951 560.268 246.687 559.95 246.447 559.554C246.219 559.146 246.105 558.678 246.105 558.15C246.105 557.67 246.189 557.238 246.357 556.854C246.537 556.47 246.777 556.146 247.077 555.882C247.377 555.606 247.725 555.396 248.121 555.252C248.529 555.108 248.955 555.036 249.399 555.036C249.639 555.036 249.861 555.06 250.065 555.108C250.281 555.144 250.473 555.192 250.641 555.252H253.683V556.386H251.883C252.087 556.59 252.255 556.848 252.387 557.16C252.531 557.472 252.603 557.814 252.603 558.186C252.603 558.654 252.519 559.08 252.351 559.464C252.183 559.836 251.955 560.154 251.667 560.418C251.379 560.67 251.037 560.868 250.641 561.012C250.257 561.156 249.843 561.228 249.399 561.228C249.183 561.228 248.961 561.204 248.733 561.156C248.505 561.096 248.289 561.018 248.085 560.922C247.929 561.054 247.797 561.204 247.689 561.372C247.581 561.528 247.527 561.726 247.527 561.966C247.527 562.242 247.635 562.47 247.851 562.65C248.067 562.83 248.475 562.92 249.075 562.92H250.767C251.787 562.92 252.549 563.088 253.053 563.424C253.569 563.748 253.827 564.276 253.827 565.008C253.827 565.416 253.725 565.8 253.521 566.16C253.317 566.532 253.023 566.856 252.639 567.132C252.255 567.408 251.787 567.624 251.235 567.78C250.695 567.948 250.083 568.032 249.399 568.032ZM249.399 560.238C249.651 560.238 249.885 560.19 250.101 560.094C250.329 559.998 250.527 559.86 250.695 559.68C250.875 559.5 251.013 559.284 251.109 559.032C251.205 558.768 251.253 558.474 251.253 558.15C251.253 557.502 251.073 557.004 250.713 556.656C250.353 556.296 249.915 556.116 249.399 556.116C248.883 556.116 248.445 556.296 248.085 556.656C247.725 557.004 247.545 557.502 247.545 558.15C247.545 558.474 247.593 558.768 247.689 559.032C247.785 559.284 247.917 559.5 248.085 559.68C248.265 559.86 248.463 559.998 248.679 560.094C248.907 560.19 249.147 560.238 249.399 560.238ZM249.615 567.006C250.035 567.006 250.413 566.952 250.749 566.844C251.097 566.748 251.391 566.616 251.631 566.448C251.871 566.292 252.057 566.106 252.189 565.89C252.321 565.674 252.387 565.452 252.387 565.224C252.387 564.816 252.237 564.534 251.937 564.378C251.637 564.222 251.199 564.144 250.623 564.144H249.111C248.943 564.144 248.757 564.132 248.553 564.108C248.361 564.096 248.169 564.06 247.977 564C247.665 564.228 247.437 564.468 247.293 564.72C247.149 564.972 247.077 565.224 247.077 565.476C247.077 565.944 247.299 566.316 247.743 566.592C248.199 566.868 248.823 567.006 249.615 567.006ZM261.875 564.216C261.407 564.216 261.011 564.144 260.687 564C260.375 563.856 260.117 563.658 259.913 563.406C259.721 563.154 259.583 562.848 259.499 562.488C259.415 562.128 259.373 561.732 259.373 561.3V556.458H258.077V555.342L259.445 555.252L259.625 552.804H260.867V555.252H263.225V556.458H260.867V561.318C260.867 561.858 260.963 562.278 261.155 562.578C261.359 562.866 261.713 563.01 262.217 563.01C262.373 563.01 262.541 562.986 262.721 562.938C262.901 562.89 263.063 562.836 263.207 562.776L263.495 563.892C263.255 563.976 262.991 564.048 262.703 564.108C262.427 564.18 262.151 564.216 261.875 564.216ZM268.358 564.216C267.818 564.216 267.302 564.114 266.81 563.91C266.33 563.706 265.904 563.412 265.532 563.028C265.16 562.632 264.86 562.152 264.632 561.588C264.416 561.012 264.308 560.364 264.308 559.644C264.308 558.912 264.416 558.264 264.632 557.7C264.86 557.124 265.16 556.638 265.532 556.242C265.904 555.846 266.33 555.546 266.81 555.342C267.302 555.138 267.818 555.036 268.358 555.036C268.898 555.036 269.408 555.138 269.888 555.342C270.38 555.546 270.812 555.846 271.184 556.242C271.556 556.638 271.85 557.124 272.066 557.7C272.294 558.264 272.408 558.912 272.408 559.644C272.408 560.364 272.294 561.012 272.066 561.588C271.85 562.152 271.556 562.632 271.184 563.028C270.812 563.412 270.38 563.706 269.888 563.91C269.408 564.114 268.898 564.216 268.358 564.216ZM268.358 562.992C268.73 562.992 269.072 562.914 269.384 562.758C269.696 562.59 269.96 562.362 270.176 562.074C270.404 561.774 270.578 561.42 270.698 561.012C270.818 560.604 270.878 560.148 270.878 559.644C270.878 559.14 270.818 558.684 270.698 558.276C270.578 557.856 270.404 557.496 270.176 557.196C269.96 556.896 269.696 556.668 269.384 556.512C269.072 556.344 268.73 556.26 268.358 556.26C267.986 556.26 267.644 556.344 267.332 556.512C267.02 556.668 266.75 556.896 266.522 557.196C266.306 557.496 266.138 557.856 266.018 558.276C265.898 558.684 265.838 559.14 265.838 559.644C265.838 560.148 265.898 560.604 266.018 561.012C266.138 561.42 266.306 561.774 266.522 562.074C266.75 562.362 267.02 562.59 267.332 562.758C267.644 562.914 267.986 562.992 268.358 562.992ZM278.316 564V555.252H279.54L279.666 556.836H279.72C280.02 556.284 280.38 555.846 280.8 555.522C281.232 555.198 281.7 555.036 282.204 555.036C282.552 555.036 282.864 555.096 283.14 555.216L282.852 556.512C282.708 556.464 282.576 556.428 282.456 556.404C282.336 556.38 282.186 556.368 282.006 556.368C281.634 556.368 281.244 556.518 280.836 556.818C280.44 557.118 280.092 557.64 279.792 558.384V564H278.316ZM287.112 564.216C286.176 564.216 285.492 563.928 285.06 563.352C284.64 562.776 284.43 561.924 284.43 560.796V555.252H285.924V560.598C285.924 561.426 286.05 562.026 286.302 562.398C286.566 562.758 286.986 562.938 287.562 562.938C288.018 562.938 288.42 562.824 288.768 562.596C289.116 562.356 289.5 561.978 289.92 561.462V555.252H291.396V564H290.172L290.046 562.632H289.992C289.584 563.112 289.152 563.496 288.696 563.784C288.252 564.072 287.724 564.216 287.112 564.216ZM294.347 564V555.252H295.571L295.697 556.512H295.751C296.171 556.092 296.609 555.744 297.065 555.468C297.533 555.18 298.073 555.036 298.685 555.036C299.609 555.036 300.281 555.324 300.701 555.9C301.133 556.476 301.349 557.328 301.349 558.456V564H299.873V558.654C299.873 557.826 299.741 557.232 299.477 556.872C299.213 556.5 298.793 556.314 298.217 556.314C297.761 556.314 297.359 556.428 297.011 556.656C296.663 556.884 296.267 557.22 295.823 557.664V564H294.347ZM307.938 567.762C307.734 567.762 307.548 567.744 307.38 567.708C307.212 567.684 307.056 567.642 306.912 567.582L307.2 566.412C307.296 566.436 307.404 566.46 307.524 566.484C307.644 566.52 307.758 566.538 307.866 566.538C308.37 566.538 308.778 566.358 309.09 565.998C309.414 565.65 309.666 565.206 309.846 564.666L310.044 564.018L306.534 555.252H308.064L309.846 560.094C309.978 560.478 310.116 560.886 310.26 561.318C310.416 561.738 310.56 562.152 310.692 562.56H310.764C310.896 562.164 311.022 561.75 311.142 561.318C311.262 560.886 311.382 560.478 311.502 560.094L313.068 555.252H314.508L311.214 564.72C311.058 565.152 310.884 565.554 310.692 565.926C310.5 566.298 310.272 566.616 310.008 566.88C309.744 567.156 309.444 567.372 309.108 567.528C308.772 567.684 308.382 567.762 307.938 567.762ZM319.528 564.216C318.988 564.216 318.472 564.114 317.98 563.91C317.5 563.706 317.074 563.412 316.702 563.028C316.33 562.632 316.03 562.152 315.802 561.588C315.586 561.012 315.478 560.364 315.478 559.644C315.478 558.912 315.586 558.264 315.802 557.7C316.03 557.124 316.33 556.638 316.702 556.242C317.074 555.846 317.5 555.546 317.98 555.342C318.472 555.138 318.988 555.036 319.528 555.036C320.068 555.036 320.578 555.138 321.058 555.342C321.55 555.546 321.982 555.846 322.354 556.242C322.726 556.638 323.02 557.124 323.236 557.7C323.464 558.264 323.578 558.912 323.578 559.644C323.578 560.364 323.464 561.012 323.236 561.588C323.02 562.152 322.726 562.632 322.354 563.028C321.982 563.412 321.55 563.706 321.058 563.91C320.578 564.114 320.068 564.216 319.528 564.216ZM319.528 562.992C319.9 562.992 320.242 562.914 320.554 562.758C320.866 562.59 321.13 562.362 321.346 562.074C321.574 561.774 321.748 561.42 321.868 561.012C321.988 560.604 322.048 560.148 322.048 559.644C322.048 559.14 321.988 558.684 321.868 558.276C321.748 557.856 321.574 557.496 321.346 557.196C321.13 556.896 320.866 556.668 320.554 556.512C320.242 556.344 319.9 556.26 319.528 556.26C319.156 556.26 318.814 556.344 318.502 556.512C318.19 556.668 317.92 556.896 317.692 557.196C317.476 557.496 317.308 557.856 317.188 558.276C317.068 558.684 317.008 559.14 317.008 559.644C317.008 560.148 317.068 560.604 317.188 561.012C317.308 561.42 317.476 561.774 317.692 562.074C317.92 562.362 318.19 562.59 318.502 562.758C318.814 562.914 319.156 562.992 319.528 562.992ZM328.438 564.216C327.502 564.216 326.818 563.928 326.386 563.352C325.966 562.776 325.756 561.924 325.756 560.796V555.252H327.25V560.598C327.25 561.426 327.376 562.026 327.628 562.398C327.892 562.758 328.312 562.938 328.888 562.938C329.344 562.938 329.746 562.824 330.094 562.596C330.442 562.356 330.826 561.978 331.246 561.462V555.252H332.722V564H331.498L331.372 562.632H331.318C330.91 563.112 330.478 563.496 330.022 563.784C329.578 564.072 329.05 564.216 328.438 564.216ZM335.673 564V555.252H336.897L337.023 556.836H337.077C337.377 556.284 337.737 555.846 338.157 555.522C338.589 555.198 339.057 555.036 339.561 555.036C339.909 555.036 340.221 555.096 340.497 555.216L340.209 556.512C340.065 556.464 339.933 556.428 339.813 556.404C339.693 556.38 339.543 556.368 339.363 556.368C338.991 556.368 338.601 556.518 338.193 556.818C337.797 557.118 337.449 557.64 337.149 558.384V564H335.673ZM22.022 592.216C21.434 592.216 20.882 592.114 20.366 591.91C19.862 591.694 19.418 591.394 19.034 591.01C18.662 590.614 18.368 590.134 18.152 589.57C17.936 589.006 17.828 588.364 17.828 587.644C17.828 586.924 17.936 586.282 18.152 585.718C18.38 585.142 18.674 584.656 19.034 584.26C19.406 583.864 19.826 583.564 20.294 583.36C20.762 583.144 21.248 583.036 21.752 583.036C22.304 583.036 22.796 583.132 23.228 583.324C23.672 583.516 24.038 583.792 24.326 584.152C24.626 584.512 24.854 584.944 25.01 585.448C25.166 585.952 25.244 586.516 25.244 587.14C25.244 587.296 25.238 587.452 25.226 587.608C25.226 587.752 25.214 587.878 25.19 587.986H19.286C19.346 588.922 19.634 589.666 20.15 590.218C20.678 590.758 21.362 591.028 22.202 591.028C22.622 591.028 23.006 590.968 23.354 590.848C23.714 590.716 24.056 590.548 24.38 590.344L24.902 591.316C24.518 591.556 24.092 591.766 23.624 591.946C23.156 592.126 22.622 592.216 22.022 592.216ZM19.268 586.924H23.948C23.948 586.036 23.756 585.364 23.372 584.908C23 584.44 22.472 584.206 21.788 584.206C21.476 584.206 21.176 584.266 20.888 584.386C20.612 584.506 20.36 584.686 20.132 584.926C19.904 585.154 19.712 585.436 19.556 585.772C19.412 586.108 19.316 586.492 19.268 586.924ZM27.4057 592V583.252H28.6297L28.7557 584.836H28.8097C29.1097 584.284 29.4697 583.846 29.8897 583.522C30.3217 583.198 30.7897 583.036 31.2937 583.036C31.6417 583.036 31.9537 583.096 32.2297 583.216L31.9417 584.512C31.7977 584.464 31.6657 584.428 31.5457 584.404C31.4257 584.38 31.2757 584.368 31.0957 584.368C30.7237 584.368 30.3337 584.518 29.9257 584.818C29.5297 585.118 29.1817 585.64 28.8817 586.384V592H27.4057ZM33.6459 592V583.252H34.8699L34.9959 584.836H35.0499C35.3499 584.284 35.7099 583.846 36.1299 583.522C36.5619 583.198 37.0299 583.036 37.5339 583.036C37.8819 583.036 38.1939 583.096 38.4699 583.216L38.1819 584.512C38.0379 584.464 37.9059 584.428 37.7859 584.404C37.6659 584.38 37.5159 584.368 37.3359 584.368C36.9639 584.368 36.5739 584.518 36.1659 584.818C35.7699 585.118 35.4219 585.64 35.1219 586.384V592H33.6459ZM41.4627 592.216C40.7307 592.216 40.1187 592 39.6267 591.568C39.1467 591.136 38.9067 590.524 38.9067 589.732C38.9067 588.772 39.3327 588.04 40.1847 587.536C41.0367 587.02 42.3987 586.66 44.2707 586.456C44.2707 586.18 44.2407 585.91 44.1807 585.646C44.1327 585.382 44.0427 585.148 43.9107 584.944C43.7787 584.74 43.5927 584.578 43.3527 584.458C43.1247 584.326 42.8307 584.26 42.4707 584.26C41.9667 584.26 41.4927 584.356 41.0487 584.548C40.6047 584.74 40.2087 584.956 39.8607 585.196L39.2847 584.17C39.6927 583.906 40.1907 583.654 40.7787 583.414C41.3667 583.162 42.0147 583.036 42.7227 583.036C43.7907 583.036 44.5647 583.366 45.0447 584.026C45.5247 584.674 45.7647 585.544 45.7647 586.636V592H44.5407L44.4147 590.956H44.3607C43.9407 591.304 43.4907 591.604 43.0107 591.856C42.5307 592.096 42.0147 592.216 41.4627 592.216ZM41.8947 591.028C42.3147 591.028 42.7107 590.932 43.0827 590.74C43.4547 590.536 43.8507 590.242 44.2707 589.858V587.428C43.5387 587.524 42.9207 587.638 42.4167 587.77C41.9247 587.902 41.5227 588.058 41.2107 588.238C40.9107 588.418 40.6887 588.628 40.5447 588.868C40.4127 589.096 40.3467 589.348 40.3467 589.624C40.3467 590.128 40.4967 590.488 40.7967 590.704C41.0967 590.92 41.4627 591.028 41.8947 591.028ZM48.517 592V583.252H49.741L49.867 584.512H49.921C50.341 584.092 50.779 583.744 51.235 583.468C51.703 583.18 52.243 583.036 52.855 583.036C53.779 583.036 54.451 583.324 54.871 583.9C55.303 584.476 55.519 585.328 55.519 586.456V592H54.043V586.654C54.043 585.826 53.911 585.232 53.647 584.872C53.383 584.5 52.963 584.314 52.387 584.314C51.931 584.314 51.529 584.428 51.181 584.656C50.833 584.884 50.437 585.22 49.993 585.664V592H48.517ZM61.3488 592.216C60.2448 592.216 59.3628 591.82 58.7028 591.028C58.0548 590.236 57.7308 589.108 57.7308 587.644C57.7308 586.936 57.8328 586.3 58.0368 585.736C58.2528 585.16 58.5348 584.674 58.8828 584.278C59.2308 583.882 59.6328 583.576 60.0888 583.36C60.5448 583.144 61.0248 583.036 61.5288 583.036C62.0328 583.036 62.4708 583.126 62.8428 583.306C63.2148 583.486 63.5928 583.732 63.9768 584.044L63.9048 582.55V579.184H65.3988V592H64.1748L64.0488 590.974H63.9948C63.6468 591.31 63.2448 591.604 62.7888 591.856C62.3448 592.096 61.8648 592.216 61.3488 592.216ZM61.6728 590.974C62.0808 590.974 62.4648 590.878 62.8248 590.686C63.1848 590.482 63.5448 590.176 63.9048 589.768V585.196C63.5328 584.86 63.1728 584.626 62.8248 584.494C62.4888 584.35 62.1408 584.278 61.7808 584.278C61.4328 584.278 61.1028 584.362 60.7908 584.53C60.4908 584.686 60.2268 584.914 59.9988 585.214C59.7708 585.502 59.5908 585.85 59.4588 586.258C59.3268 586.666 59.2608 587.122 59.2608 587.626C59.2608 588.682 59.4708 589.504 59.8908 590.092C60.3108 590.68 60.9048 590.974 61.6728 590.974ZM70.6311 592.216C70.0071 592.216 69.4131 592.102 68.8491 591.874C68.2851 591.646 67.7931 591.358 67.3731 591.01L68.1111 590.02C68.4951 590.332 68.8851 590.584 69.2811 590.776C69.6891 590.968 70.1571 591.064 70.6851 591.064C71.2611 591.064 71.6931 590.932 71.9811 590.668C72.2691 590.404 72.4131 590.08 72.4131 589.696C72.4131 589.468 72.3531 589.27 72.2331 589.102C72.1131 588.934 71.9571 588.79 71.7651 588.67C71.5851 588.538 71.3751 588.424 71.1351 588.328C70.8951 588.232 70.6551 588.136 70.4151 588.04C70.1031 587.932 69.7911 587.812 69.4791 587.68C69.1671 587.536 68.8851 587.368 68.6331 587.176C68.3931 586.972 68.1951 586.738 68.0391 586.474C67.8831 586.21 67.8051 585.892 67.8051 585.52C67.8051 585.172 67.8711 584.848 68.0031 584.548C68.1471 584.236 68.3451 583.972 68.5971 583.756C68.8611 583.528 69.1791 583.354 69.5511 583.234C69.9231 583.102 70.3431 583.036 70.8111 583.036C71.3631 583.036 71.8671 583.132 72.3231 583.324C72.7911 583.516 73.1931 583.75 73.5291 584.026L72.8271 584.962C72.5271 584.734 72.2151 584.548 71.8911 584.404C71.5671 584.26 71.2131 584.188 70.8291 584.188C70.2771 584.188 69.8691 584.314 69.6051 584.566C69.3531 584.818 69.2271 585.112 69.2271 585.448C69.2271 585.652 69.2811 585.832 69.3891 585.988C69.4971 586.132 69.6411 586.264 69.8211 586.384C70.0011 586.492 70.2051 586.594 70.4331 586.69C70.6731 586.774 70.9191 586.864 71.1711 586.96C71.4831 587.08 71.7951 587.206 72.1071 587.338C72.4311 587.47 72.7191 587.638 72.9711 587.842C73.2231 588.034 73.4271 588.274 73.5831 588.562C73.7511 588.85 73.8351 589.198 73.8351 589.606C73.8351 589.966 73.7631 590.302 73.6191 590.614C73.4871 590.926 73.2831 591.202 73.0071 591.442C72.7431 591.682 72.4071 591.868 71.9991 592C71.6031 592.144 71.1471 592.216 70.6311 592.216ZM81.5057 592.216C80.7737 592.216 80.1617 592 79.6697 591.568C79.1897 591.136 78.9497 590.524 78.9497 589.732C78.9497 588.772 79.3757 588.04 80.2277 587.536C81.0797 587.02 82.4417 586.66 84.3137 586.456C84.3137 586.18 84.2837 585.91 84.2237 585.646C84.1757 585.382 84.0857 585.148 83.9537 584.944C83.8217 584.74 83.6357 584.578 83.3957 584.458C83.1677 584.326 82.8737 584.26 82.5137 584.26C82.0097 584.26 81.5357 584.356 81.0917 584.548C80.6477 584.74 80.2517 584.956 79.9037 585.196L79.3277 584.17C79.7357 583.906 80.2337 583.654 80.8217 583.414C81.4097 583.162 82.0577 583.036 82.7657 583.036C83.8337 583.036 84.6077 583.366 85.0877 584.026C85.5677 584.674 85.8077 585.544 85.8077 586.636V592H84.5837L84.4577 590.956H84.4037C83.9837 591.304 83.5337 591.604 83.0537 591.856C82.5737 592.096 82.0577 592.216 81.5057 592.216ZM81.9377 591.028C82.3577 591.028 82.7537 590.932 83.1257 590.74C83.4977 590.536 83.8937 590.242 84.3137 589.858V587.428C83.5817 587.524 82.9637 587.638 82.4597 587.77C81.9677 587.902 81.5657 588.058 81.2537 588.238C80.9537 588.418 80.7317 588.628 80.5877 588.868C80.4557 589.096 80.3897 589.348 80.3897 589.624C80.3897 590.128 80.5397 590.488 80.8397 590.704C81.1397 590.92 81.5057 591.028 81.9377 591.028ZM88.56 592V583.252H89.784L89.91 584.512H89.964C90.384 584.092 90.822 583.744 91.278 583.468C91.746 583.18 92.286 583.036 92.898 583.036C93.822 583.036 94.494 583.324 94.914 583.9C95.346 584.476 95.562 585.328 95.562 586.456V592H94.086V586.654C94.086 585.826 93.954 585.232 93.69 584.872C93.426 584.5 93.006 584.314 92.43 584.314C91.974 584.314 91.572 584.428 91.224 584.656C90.876 584.884 90.48 585.22 90.036 585.664V592H88.56ZM98.5477 595.762C98.3437 595.762 98.1577 595.744 97.9897 595.708C97.8217 595.684 97.6657 595.642 97.5217 595.582L97.8097 594.412C97.9057 594.436 98.0137 594.46 98.1337 594.484C98.2537 594.52 98.3677 594.538 98.4757 594.538C98.9797 594.538 99.3877 594.358 99.6997 593.998C100.024 593.65 100.276 593.206 100.456 592.666L100.654 592.018L97.1437 583.252H98.6737L100.456 588.094C100.588 588.478 100.726 588.886 100.87 589.318C101.026 589.738 101.17 590.152 101.302 590.56H101.374C101.506 590.164 101.632 589.75 101.752 589.318C101.872 588.886 101.992 588.478 102.112 588.094L103.678 583.252H105.118L101.824 592.72C101.668 593.152 101.494 593.554 101.302 593.926C101.11 594.298 100.882 594.616 100.618 594.88C100.354 595.156 100.054 595.372 99.7177 595.528C99.3817 595.684 98.9917 595.762 98.5477 595.762ZM108.192 592L105.762 583.252H107.274L108.57 588.31C108.666 588.73 108.756 589.138 108.84 589.534C108.924 589.93 109.008 590.332 109.092 590.74H109.164C109.26 590.332 109.356 589.93 109.452 589.534C109.548 589.126 109.65 588.718 109.758 588.31L111.108 583.252H112.548L113.916 588.31C114.024 588.73 114.126 589.138 114.222 589.534C114.33 589.93 114.432 590.332 114.528 590.74H114.6C114.696 590.332 114.786 589.93 114.87 589.534C114.954 589.138 115.044 588.73 115.14 588.31L116.418 583.252H117.822L115.482 592H113.682L112.422 587.302C112.314 586.882 112.212 586.468 112.116 586.06C112.032 585.652 111.936 585.226 111.828 584.782H111.756C111.66 585.226 111.564 585.658 111.468 586.078C111.372 586.486 111.264 586.9 111.144 587.32L109.92 592H108.192ZM119.726 592V579.184H121.202V582.676L121.148 584.476C121.568 584.08 122.006 583.744 122.462 583.468C122.918 583.18 123.452 583.036 124.064 583.036C124.988 583.036 125.66 583.324 126.08 583.9C126.512 584.476 126.728 585.328 126.728 586.456V592H125.252V586.654C125.252 585.826 125.12 585.232 124.856 584.872C124.592 584.5 124.172 584.314 123.596 584.314C123.14 584.314 122.738 584.428 122.39 584.656C122.042 584.884 121.646 585.22 121.202 585.664V592H119.726ZM133.063 592.216C132.475 592.216 131.923 592.114 131.407 591.91C130.903 591.694 130.459 591.394 130.075 591.01C129.703 590.614 129.409 590.134 129.193 589.57C128.977 589.006 128.869 588.364 128.869 587.644C128.869 586.924 128.977 586.282 129.193 585.718C129.421 585.142 129.715 584.656 130.075 584.26C130.447 583.864 130.867 583.564 131.335 583.36C131.803 583.144 132.289 583.036 132.793 583.036C133.345 583.036 133.837 583.132 134.269 583.324C134.713 583.516 135.079 583.792 135.367 584.152C135.667 584.512 135.895 584.944 136.051 585.448C136.207 585.952 136.285 586.516 136.285 587.14C136.285 587.296 136.279 587.452 136.267 587.608C136.267 587.752 136.255 587.878 136.231 587.986H130.327C130.387 588.922 130.675 589.666 131.191 590.218C131.719 590.758 132.403 591.028 133.243 591.028C133.663 591.028 134.047 590.968 134.395 590.848C134.755 590.716 135.097 590.548 135.421 590.344L135.943 591.316C135.559 591.556 135.133 591.766 134.665 591.946C134.197 592.126 133.663 592.216 133.063 592.216ZM130.309 586.924H134.989C134.989 586.036 134.797 585.364 134.413 584.908C134.041 584.44 133.513 584.206 132.829 584.206C132.517 584.206 132.217 584.266 131.929 584.386C131.653 584.506 131.401 584.686 131.173 584.926C130.945 585.154 130.753 585.436 130.597 585.772C130.453 586.108 130.357 586.492 130.309 586.924ZM138.447 592V583.252H139.671L139.797 584.836H139.851C140.151 584.284 140.511 583.846 140.931 583.522C141.363 583.198 141.831 583.036 142.335 583.036C142.683 583.036 142.995 583.096 143.271 583.216L142.983 584.512C142.839 584.464 142.707 584.428 142.587 584.404C142.467 584.38 142.317 584.368 142.137 584.368C141.765 584.368 141.375 584.518 140.967 584.818C140.571 585.118 140.223 585.64 139.923 586.384V592H138.447ZM148.057 592.216C147.469 592.216 146.917 592.114 146.401 591.91C145.897 591.694 145.453 591.394 145.069 591.01C144.697 590.614 144.403 590.134 144.187 589.57C143.971 589.006 143.863 588.364 143.863 587.644C143.863 586.924 143.971 586.282 144.187 585.718C144.415 585.142 144.709 584.656 145.069 584.26C145.441 583.864 145.861 583.564 146.329 583.36C146.797 583.144 147.283 583.036 147.787 583.036C148.339 583.036 148.831 583.132 149.263 583.324C149.707 583.516 150.073 583.792 150.361 584.152C150.661 584.512 150.889 584.944 151.045 585.448C151.201 585.952 151.279 586.516 151.279 587.14C151.279 587.296 151.273 587.452 151.261 587.608C151.261 587.752 151.249 587.878 151.225 587.986H145.321C145.381 588.922 145.669 589.666 146.185 590.218C146.713 590.758 147.397 591.028 148.237 591.028C148.657 591.028 149.041 590.968 149.389 590.848C149.749 590.716 150.091 590.548 150.415 590.344L150.937 591.316C150.553 591.556 150.127 591.766 149.659 591.946C149.191 592.126 148.657 592.216 148.057 592.216ZM145.303 586.924H149.983C149.983 586.036 149.791 585.364 149.407 584.908C149.035 584.44 148.507 584.206 147.823 584.206C147.511 584.206 147.211 584.266 146.923 584.386C146.647 584.506 146.395 584.686 146.167 584.926C145.939 585.154 145.747 585.436 145.591 585.772C145.447 586.108 145.351 586.492 145.303 586.924ZM154.215 592.216C153.915 592.216 153.657 592.114 153.441 591.91C153.237 591.694 153.135 591.424 153.135 591.1C153.135 590.752 153.237 590.476 153.441 590.272C153.657 590.056 153.915 589.948 154.215 589.948C154.503 589.948 154.749 590.056 154.953 590.272C155.169 590.476 155.277 590.752 155.277 591.1C155.277 591.424 155.169 591.694 154.953 591.91C154.749 592.114 154.503 592.216 154.215 592.216Z" fill="#62526D"/>
<circle cx="172" cy="636" r="4" fill="#62526D"/>
<circle cx="188" cy="636" r="3.5" stroke="#62526D" stroke-opacity="0.8"/>
<circle cx="204" cy="636" r="3.5" stroke="#62526D" stroke-opacity="0.8"/>
</g>
<defs>
<linearGradient id="paint0_linear" x1="-66.88" y1="101.1" x2="141.4" y2="101.1" gradientUnits="userSpaceOnUse">
<stop offset="0.42" stop-color="#2D0044"/>
<stop offset="0.43" stop-color="#36094D"/>
<stop offset="0.44" stop-color="#4C2166"/>
<stop offset="0.45" stop-color="#5C3278"/>
<stop offset="0.46" stop-color="#663C83"/>
<stop offset="0.47" stop-color="#693F86"/>
</linearGradient>
<clipPath id="clip0">
<rect width="375" height="812" fill="white"/>
</clipPath>
<clipPath id="clip1">
<rect width="122.871" height="240" fill="white" transform="translate(127 272)"/>
</clipPath>
</defs>
</svg>
