<svg width="32" height="32" viewBox="0 0 32 32" fill="none" xmlns="http://www.w3.org/2000/svg">
<path d="M29.5532 10.4134H3.4512C2.34231 10.4134 1.44336 9.51441 1.44336 8.40552V29.4879C1.44336 30.5968 2.34231 31.4957 3.4512 31.4957H29.5532C30.1076 31.4957 30.5571 31.0463 30.5571 30.4918V22.9624H23.5296C22.4207 22.9624 21.5218 22.0634 21.5218 20.9545V18.9467C21.5218 17.8378 22.4207 16.9389 23.5296 16.9389H30.5571V11.4173C30.5571 10.8628 30.1076 10.4134 29.5532 10.4134Z" fill="#54455E" fill-opacity="0.7"/>
<path d="M3.4512 10.4134H9.07316C8.67536 9.63668 8.46886 8.77625 8.47081 7.90359C8.46868 7.3941 8.5397 6.88699 8.68163 6.39771H3.4512C2.34231 6.39771 1.44336 7.29666 1.44336 8.40555C1.44336 9.51445 2.34231 10.4134 3.4512 10.4134Z" fill="#54455E"/>
<path d="M18.9121 10.4134H26.5419V7.40163C26.5403 6.84784 26.0918 6.39934 25.538 6.39771H19.3036C19.4456 6.88699 19.5166 7.3941 19.5145 7.90359C19.5164 8.77625 19.3099 9.63668 18.9121 10.4134Z" fill="#54455E"/>
<path d="M21.5215 18.9471V20.9549C21.5215 22.0638 22.4204 22.9627 23.5293 22.9627H30.5568V16.9392H23.5293C22.4204 16.9392 21.5215 17.8382 21.5215 18.9471ZM24.5332 18.9471C25.0877 18.9471 25.5372 19.3965 25.5372 19.951C25.5372 20.5055 25.0877 20.9549 24.5332 20.9549C23.9788 20.9549 23.5293 20.5055 23.5293 19.951C23.5293 19.3965 23.9788 18.9471 24.5332 18.9471Z" fill="#54455E"/>
<path d="M24.5332 20.9549C25.0877 20.9549 25.5371 20.5054 25.5371 19.9509C25.5371 19.3965 25.0877 18.947 24.5332 18.947C23.9788 18.947 23.5293 19.3965 23.5293 19.9509C23.5293 20.5054 23.9788 20.9549 24.5332 20.9549Z" fill="#54455E"/>
<path d="M8.18737 10.4133H12.671C12.3767 10.089 12.214 9.66659 12.215 9.22867C12.214 9.66659 12.3767 10.089 12.671 10.4133H15.3127C15.607 10.089 15.7697 9.66659 15.7687 9.22867C15.7687 8.24731 14.9732 7.45178 13.9918 7.45178C13.0105 7.45178 12.215 6.65626 12.215 5.6749C12.215 4.69355 13.0105 3.89802 13.9918 3.89802C14.9732 3.89802 15.7687 4.69355 15.7687 5.6749C15.7687 4.69355 14.9732 3.89802 13.9918 3.89802C13.0105 3.89802 12.215 4.69355 12.215 5.6749C12.215 6.65626 13.0105 7.45178 13.9918 7.45178C14.9732 7.45178 15.7687 8.24731 15.7687 9.22867C15.7697 9.66659 15.607 10.089 15.3127 10.4133H19.7963C20.2657 9.49675 20.5094 8.48149 20.5071 7.45178C20.5096 6.85061 20.4258 6.25224 20.2583 5.6749C19.2735 2.21406 15.6696 0.206774 12.2087 1.19161C10.0388 1.80908 8.34277 3.50504 7.72538 5.6749C7.55791 6.25224 7.4741 6.85061 7.47662 7.45178C7.47432 8.48149 7.71798 9.49675 8.18737 10.4133Z" fill="#FCC62D"/>
<path d="M23.0273 19.9502C23.0273 20.7819 23.7015 21.4561 24.5332 21.4561C25.3649 21.4561 26.0391 20.7819 26.0391 19.9502C26.0391 19.1185 25.3649 18.4443 24.5332 18.4443C23.7015 18.4443 23.0273 19.1185 23.0273 19.9502ZM24.5332 19.4483C24.8104 19.4483 25.0352 19.673 25.0352 19.9502C25.0352 20.2274 24.8104 20.4522 24.5332 20.4522C24.256 20.4522 24.0313 20.2274 24.0313 19.9502C24.0313 19.673 24.256 19.4483 24.5332 19.4483Z" fill="white"/>
<path d="M19.7648 4.70581L13.9568 8.08644L13.6332 6.65297L11.4277 7.54841L10.6333 7.86994L8.4707 8.55608L11.4277 6.98219L15.2405 4.92615L15.5426 6.35193L16.561 5.95609L17.2664 5.67939L19.7648 4.70581Z" fill="#F7B044"/>
</svg>
