<svg width="24" height="24" viewBox="0 0 24 24" fill="none" xmlns="http://www.w3.org/2000/svg">
<path d="M12.0025 2H11.9975C6.48375 2 2 6.485 2 12C2 14.1875 2.705 16.215 3.90375 17.8612L2.6575 21.5763L6.50125 20.3475C8.0825 21.395 9.96875 22 12.0025 22C17.5162 22 22 17.5138 22 12C22 6.48625 17.5162 2 12.0025 2Z" fill="#25D366"/>
<path d="M17.8207 16.1207C17.5794 16.802 16.6219 17.367 15.8582 17.532C15.3357 17.6432 14.6532 17.732 12.3557 16.7795C9.41695 15.562 7.52445 12.5757 7.37695 12.382C7.2357 12.1882 6.18945 10.8007 6.18945 9.36574C6.18945 7.93074 6.9182 7.23199 7.21195 6.93199C7.4532 6.68574 7.85195 6.57324 8.23445 6.57324C8.3582 6.57324 8.46945 6.57949 8.56945 6.58449C8.8632 6.59699 9.0107 6.61449 9.20445 7.07824C9.4457 7.65949 10.0332 9.09449 10.1032 9.24199C10.1745 9.38949 10.2457 9.58949 10.1457 9.78324C10.052 9.98324 9.96945 10.072 9.82195 10.242C9.67445 10.412 9.53445 10.542 9.38695 10.7245C9.25195 10.8832 9.09945 11.0532 9.26945 11.347C9.43945 11.6345 10.027 12.5932 10.892 13.3632C12.0082 14.357 12.9132 14.6745 13.237 14.8095C13.4782 14.9095 13.7657 14.8857 13.942 14.6982C14.1657 14.457 14.4419 14.057 14.7232 13.6632C14.9232 13.3807 15.1757 13.3457 15.4407 13.4457C15.7107 13.5395 17.1394 14.2457 17.4332 14.392C17.7269 14.5395 17.9207 14.6095 17.9919 14.7332C18.0619 14.857 18.0619 15.4382 17.8207 16.1207Z" fill="#FAFAFA"/>
</svg>
