<svg width="64" height="64" viewBox="0 0 64 64" fill="none" xmlns="http://www.w3.org/2000/svg">
<path d="M4.72308 61L2.77708 51.816H3.98108L4.94708 56.814C5.03108 57.318 5.11974 57.8127 5.21308 58.298C5.30641 58.7833 5.39508 59.278 5.47908 59.782H5.53508C5.63774 59.278 5.74508 58.7833 5.85708 58.298C5.96908 57.8033 6.07641 57.3087 6.17908 56.814L7.45308 51.816H8.51708L9.79108 56.814C9.90308 57.2993 10.0151 57.7893 10.1271 58.284C10.2391 58.7787 10.3511 59.278 10.4631 59.782H10.5191C10.6031 59.278 10.6871 58.7833 10.7711 58.298C10.8551 57.8033 10.9437 57.3087 11.0371 56.814L12.0031 51.816H13.1231L11.2191 61H9.81908L8.43308 55.47C8.34908 55.1153 8.26975 54.77 8.19508 54.434C8.12975 54.0887 8.05975 53.7387 7.98508 53.384H7.92908C7.85441 53.7387 7.77508 54.0887 7.69108 54.434C7.61641 54.77 7.54175 55.1153 7.46708 55.47L6.10908 61H4.72308ZM14.6089 61V51.032H15.7569V53.748L15.7149 55.148C16.0416 54.84 16.3823 54.5787 16.7369 54.364C17.0916 54.14 17.5069 54.028 17.9829 54.028C18.7016 54.028 19.2243 54.252 19.5509 54.7C19.8869 55.148 20.0549 55.8107 20.0549 56.688V61H18.9069V56.842C18.9069 56.198 18.8043 55.736 18.5989 55.456C18.3936 55.1667 18.0669 55.022 17.6189 55.022C17.2643 55.022 16.9516 55.1107 16.6809 55.288C16.4103 55.4653 16.1023 55.7267 15.7569 56.072V61H14.6089ZM23.7922 61.168C23.2228 61.168 22.7468 61 22.3642 60.664C21.9908 60.328 21.8042 59.852 21.8042 59.236C21.8042 58.4893 22.1355 57.92 22.7982 57.528C23.4608 57.1267 24.5202 56.8467 25.9762 56.688C25.9762 56.4733 25.9528 56.2633 25.9062 56.058C25.8688 55.8527 25.7988 55.6707 25.6962 55.512C25.5935 55.3533 25.4488 55.2273 25.2622 55.134C25.0848 55.0313 24.8562 54.98 24.5762 54.98C24.1842 54.98 23.8155 55.0547 23.4702 55.204C23.1248 55.3533 22.8168 55.5213 22.5462 55.708L22.0982 54.91C22.4155 54.7047 22.8028 54.5087 23.2602 54.322C23.7175 54.126 24.2215 54.028 24.7722 54.028C25.6028 54.028 26.2048 54.2847 26.5782 54.798C26.9515 55.302 27.1382 55.9787 27.1382 56.828V61H26.1862L26.0882 60.188H26.0462C25.7195 60.4587 25.3695 60.692 24.9962 60.888C24.6228 61.0747 24.2215 61.168 23.7922 61.168ZM24.1282 60.244C24.4548 60.244 24.7628 60.1693 25.0522 60.02C25.3415 59.8613 25.6495 59.6327 25.9762 59.334V57.444C25.4068 57.5187 24.9262 57.6073 24.5342 57.71C24.1515 57.8127 23.8388 57.934 23.5962 58.074C23.3628 58.214 23.1902 58.3773 23.0782 58.564C22.9755 58.7413 22.9242 58.9373 22.9242 59.152C22.9242 59.544 23.0408 59.824 23.2742 59.992C23.5075 60.16 23.7922 60.244 24.1282 60.244ZM31.2295 61.168C30.8655 61.168 30.5575 61.112 30.3055 61C30.0628 60.888 29.8621 60.734 29.7035 60.538C29.5541 60.342 29.4468 60.104 29.3815 59.824C29.3161 59.544 29.2835 59.236 29.2835 58.9V55.134H28.2755V54.266L29.3395 54.196L29.4795 52.292H30.4455V54.196H32.2795V55.134H30.4455V58.914C30.4455 59.334 30.5201 59.6607 30.6695 59.894C30.8281 60.118 31.1035 60.23 31.4955 60.23C31.6168 60.23 31.7475 60.2113 31.8875 60.174C32.0275 60.1367 32.1535 60.0947 32.2655 60.048L32.4895 60.916C32.3028 60.9813 32.0975 61.0373 31.8735 61.084C31.6588 61.14 31.4441 61.168 31.2295 61.168ZM35.4592 61.168C34.9739 61.168 34.5119 61.0793 34.0732 60.902C33.6345 60.7247 33.2519 60.5007 32.9252 60.23L33.4992 59.46C33.7979 59.7027 34.1012 59.8987 34.4092 60.048C34.7265 60.1973 35.0905 60.272 35.5012 60.272C35.9492 60.272 36.2852 60.1693 36.5092 59.964C36.7332 59.7587 36.8452 59.5067 36.8452 59.208C36.8452 59.0307 36.7985 58.8767 36.7052 58.746C36.6119 58.6153 36.4905 58.5033 36.3412 58.41C36.2012 58.3073 36.0379 58.2187 35.8512 58.144C35.6645 58.0693 35.4779 57.9947 35.2912 57.92C35.0485 57.836 34.8059 57.7427 34.5632 57.64C34.3205 57.528 34.1012 57.3973 33.9052 57.248C33.7185 57.0893 33.5645 56.9073 33.4432 56.702C33.3219 56.4967 33.2612 56.2493 33.2612 55.96C33.2612 55.6893 33.3125 55.4373 33.4152 55.204C33.5272 54.9613 33.6812 54.756 33.8772 54.588C34.0825 54.4107 34.3299 54.2753 34.6192 54.182C34.9085 54.0793 35.2352 54.028 35.5992 54.028C36.0285 54.028 36.4205 54.1027 36.7752 54.252C37.1392 54.4013 37.4519 54.5833 37.7132 54.798L37.1672 55.526C36.9339 55.3487 36.6912 55.204 36.4392 55.092C36.1872 54.98 35.9119 54.924 35.6132 54.924C35.1839 54.924 34.8665 55.022 34.6612 55.218C34.4652 55.414 34.3672 55.6427 34.3672 55.904C34.3672 56.0627 34.4092 56.2027 34.4932 56.324C34.5772 56.436 34.6892 56.5387 34.8292 56.632C34.9692 56.716 35.1279 56.7953 35.3052 56.87C35.4919 56.9353 35.6832 57.0053 35.8792 57.08C36.1219 57.1733 36.3645 57.2713 36.6072 57.374C36.8592 57.4767 37.0832 57.6073 37.2792 57.766C37.4752 57.9153 37.6339 58.102 37.7552 58.326C37.8859 58.55 37.9512 58.8207 37.9512 59.138C37.9512 59.418 37.8952 59.6793 37.7832 59.922C37.6805 60.1647 37.5219 60.3793 37.3072 60.566C37.1019 60.7527 36.8405 60.8973 36.5232 61C36.2152 61.112 35.8605 61.168 35.4592 61.168ZM41.2404 55.862L40.8064 57.262H43.5644L43.1304 55.862C42.9624 55.3487 42.8038 54.84 42.6544 54.336C42.5051 53.8227 42.3558 53.3 42.2064 52.768H42.1504C42.0104 53.3 41.8658 53.8227 41.7164 54.336C41.5671 54.84 41.4084 55.3487 41.2404 55.862ZM38.4404 61L41.5484 51.816H42.8644L45.9724 61H44.7264L43.8584 58.2H40.5124L39.6304 61H38.4404ZM47.1617 63.87V54.196H48.1137L48.2117 54.98H48.2537C48.5617 54.7187 48.8977 54.4947 49.2617 54.308C49.635 54.1213 50.0223 54.028 50.4237 54.028C50.8623 54.028 51.2497 54.112 51.5857 54.28C51.9217 54.4387 52.2017 54.672 52.4257 54.98C52.6497 55.2787 52.8177 55.6427 52.9297 56.072C53.051 56.492 53.1117 56.968 53.1117 57.5C53.1117 58.0787 53.0323 58.5967 52.8737 59.054C52.715 59.502 52.5003 59.8847 52.2297 60.202C51.959 60.5193 51.6463 60.762 51.2917 60.93C50.937 61.0887 50.5637 61.168 50.1717 61.168C49.8543 61.168 49.537 61.098 49.2197 60.958C48.9117 60.818 48.599 60.6267 48.2817 60.384L48.3097 61.574V63.87H47.1617ZM49.9757 60.202C50.2557 60.202 50.5123 60.1413 50.7457 60.02C50.9883 59.8893 51.1937 59.712 51.3617 59.488C51.539 59.2547 51.6743 58.97 51.7677 58.634C51.8703 58.298 51.9217 57.92 51.9217 57.5C51.9217 57.1267 51.889 56.786 51.8237 56.478C51.7583 56.17 51.651 55.9087 51.5017 55.694C51.3617 55.47 51.175 55.2973 50.9417 55.176C50.7177 55.0547 50.447 54.994 50.1297 54.994C49.8403 54.994 49.5463 55.0733 49.2477 55.232C48.9583 55.3907 48.6457 55.6193 48.3097 55.918V59.488C48.6177 59.7493 48.9163 59.936 49.2057 60.048C49.495 60.1507 49.7517 60.202 49.9757 60.202ZM54.9273 63.87V54.196H55.8793L55.9773 54.98H56.0193C56.3273 54.7187 56.6633 54.4947 57.0273 54.308C57.4006 54.1213 57.788 54.028 58.1893 54.028C58.628 54.028 59.0153 54.112 59.3513 54.28C59.6873 54.4387 59.9673 54.672 60.1913 54.98C60.4153 55.2787 60.5833 55.6427 60.6953 56.072C60.8166 56.492 60.8773 56.968 60.8773 57.5C60.8773 58.0787 60.798 58.5967 60.6393 59.054C60.4806 59.502 60.266 59.8847 59.9953 60.202C59.7246 60.5193 59.412 60.762 59.0573 60.93C58.7026 61.0887 58.3293 61.168 57.9373 61.168C57.62 61.168 57.3026 61.098 56.9853 60.958C56.6773 60.818 56.3646 60.6267 56.0473 60.384L56.0753 61.574V63.87H54.9273ZM57.7413 60.202C58.0213 60.202 58.278 60.1413 58.5113 60.02C58.754 59.8893 58.9593 59.712 59.1273 59.488C59.3046 59.2547 59.44 58.97 59.5333 58.634C59.636 58.298 59.6873 57.92 59.6873 57.5C59.6873 57.1267 59.6546 56.786 59.5893 56.478C59.524 56.17 59.4166 55.9087 59.2673 55.694C59.1273 55.47 58.9406 55.2973 58.7073 55.176C58.4833 55.0547 58.2126 54.994 57.8953 54.994C57.606 54.994 57.312 55.0733 57.0133 55.232C56.724 55.3907 56.4113 55.6193 56.0753 55.918V59.488C56.3833 59.7493 56.682 59.936 56.9713 60.048C57.2606 60.1507 57.5173 60.202 57.7413 60.202Z" fill="#62526D" fill-opacity="0.8"/>
<path d="M32.005 0H31.995C20.9675 0 12 8.97 12 20C12 24.375 13.41 28.43 15.8075 31.7225L13.315 39.1525L21.0025 36.695C24.165 38.79 27.9375 40 32.005 40C43.0325 40 52 31.0275 52 20C52 8.9725 43.0325 0 32.005 0Z" fill="#25D366"/>
<path d="M43.6434 28.2425C43.1609 29.605 41.2459 30.735 39.7184 31.065C38.6734 31.2875 37.3084 31.465 32.7134 29.56C26.8359 27.125 23.0509 21.1525 22.7559 20.765C22.4734 20.3775 20.3809 17.6025 20.3809 14.7325C20.3809 11.8625 21.8384 10.465 22.4259 9.86496C22.9084 9.37246 23.7059 9.14746 24.4709 9.14746C24.7184 9.14746 24.9409 9.15996 25.1409 9.16996C25.7284 9.19496 26.0234 9.22996 26.4109 10.1575C26.8934 11.32 28.0684 14.19 28.2084 14.485C28.3509 14.78 28.4934 15.18 28.2934 15.5675C28.1059 15.9675 27.9409 16.145 27.6459 16.485C27.3509 16.825 27.0709 17.085 26.7759 17.45C26.5059 17.7675 26.2009 18.1075 26.5409 18.695C26.8809 19.27 28.0559 21.1875 29.7859 22.7275C32.0184 24.715 33.8284 25.35 34.4759 25.62C34.9584 25.82 35.5334 25.7725 35.8859 25.3975C36.3334 24.915 36.8859 24.115 37.4484 23.3275C37.8484 22.7625 38.3534 22.6925 38.8834 22.8925C39.4234 23.08 42.2809 24.4925 42.8684 24.785C43.4559 25.08 43.8434 25.22 43.9859 25.4675C44.1259 25.715 44.1259 26.8775 43.6434 28.2425Z" fill="#FAFAFA"/>
</svg>
